<svg width="270" height="167" viewBox="0 0 270 167" fill="none" xmlns="http://www.w3.org/2000/svg">
    <path d="M241.433 101.362C240.494 101.363 239.587 101.022 238.879 100.401C238.171 99.7813 237.71 98.9236 237.58 97.9869C237.451 97.0503 237.662 96.0983 238.175 95.3068C238.688 94.5152 239.468 93.9367 240.372 93.6801C241.275 93.4226 242.239 93.5033 243.088 93.9068C243.937 94.3112 244.612 95.0103 244.988 95.8771C245.364 96.743 245.417 97.7167 245.136 98.6189C244.855 99.5211 244.259 100.291 243.459 100.785C242.85 101.161 242.149 101.361 241.433 101.362ZM241.433 94.7401C241.024 94.7473 240.62 94.8489 240.256 95.0375C239.891 95.2261 239.575 95.4963 239.331 95.8281C239.086 96.16 238.92 96.5435 238.846 96.9497C238.773 97.3559 238.792 97.773 238.904 98.171C239.016 98.5681 239.216 98.9345 239.491 99.2409C239.765 99.5474 240.106 99.7867 240.486 99.94C240.867 100.093 241.278 100.156 241.687 100.124C242.095 100.091 242.491 99.9654 242.843 99.755C243.451 99.3787 243.885 98.7758 244.051 98.0776C244.217 97.3795 244.102 96.6432 243.73 96.0312C243.486 95.6341 243.146 95.3058 242.74 95.0801C242.335 94.8534 241.878 94.7364 241.414 94.7401H241.433Z" fill="#2DCC70"/>
    <path d="M251.799 117.993C251.719 117.994 251.642 117.978 251.569 117.948C251.496 117.917 251.43 117.872 251.376 117.815C251.32 117.759 251.275 117.693 251.245 117.62C251.214 117.546 251.198 117.467 251.198 117.388C251.198 117.309 251.214 117.23 251.245 117.156C251.275 117.084 251.32 117.017 251.376 116.961L259.404 108.873C259.518 108.767 259.667 108.709 259.822 108.713C259.977 108.716 260.124 108.779 260.233 108.889C260.343 108.999 260.406 109.147 260.41 109.303C260.413 109.458 260.357 109.61 260.252 109.725L252.224 117.813C252.168 117.87 252.103 117.916 252.029 117.947C251.956 117.978 251.878 117.994 251.799 117.993Z" fill="#0052B4"/>
    <path d="M30.3312 98.3399C27.6925 98.3399 25.4472 94.6624 25.1796 94.2199C25.0987 94.0821 25.0754 93.917 25.1151 93.762C25.1548 93.607 25.254 93.4737 25.391 93.3921C25.528 93.3105 25.6915 93.2878 25.8456 93.3277C25.9997 93.3676 26.1317 93.4673 26.2126 93.6051C26.8388 94.6705 28.8379 97.3797 30.556 97.1104C31.8111 96.9219 32.8923 95.1257 33.6845 91.9123C33.7487 91.5914 34.5167 87.9918 37.1073 87.2882C39.093 86.7487 41.4909 88.097 44.2393 91.2704C44.292 91.3302 44.3324 91.4001 44.3582 91.4753C44.384 91.5506 44.3947 91.6304 44.3895 91.7101C44.3845 91.7899 44.3638 91.8679 44.3286 91.9395C44.2935 92.0112 44.2445 92.0746 44.1848 92.1272C44.1249 92.1798 44.0554 92.2197 43.9801 92.2451C43.9049 92.2705 43.8255 92.2795 43.7464 92.2741C43.6674 92.2678 43.5902 92.246 43.5196 92.2097C43.4489 92.1735 43.3861 92.1236 43.3347 92.0629C40.9503 89.2992 38.9057 88.0516 37.4231 88.4533C35.4909 88.9764 34.8647 92.1281 34.8593 92.1572V92.1898C33.9146 96.0342 32.5658 98.0325 30.738 98.3046C30.6035 98.3263 30.4675 98.3381 30.3312 98.3399Z" fill="#0052B4"/>
    <path d="M52.533 74.9258C51.7989 74.9258 51.0815 74.7055 50.4714 74.2947C49.8614 73.8831 49.386 73.2992 49.1055 72.6155C48.825 71.9328 48.7519 71.1811 48.8953 70.4558C49.0389 69.7304 49.3927 69.064 49.9119 68.5417C50.4311 68.0186 51.0925 67.6631 51.8124 67.519C52.5324 67.3748 53.2786 67.4492 53.9567 67.732C54.6347 68.0149 55.2143 68.4946 55.622 69.1093C56.0298 69.7241 56.2474 70.4476 56.2474 71.1866C56.2467 72.1785 55.855 73.1296 55.1585 73.8314C54.462 74.5323 53.5177 74.9258 52.533 74.9258ZM52.533 68.6551C52.036 68.656 51.5504 68.8047 51.1375 69.083C50.7247 69.3614 50.4029 69.7567 50.2132 70.22C50.0234 70.6824 49.974 71.1911 50.0713 71.6825C50.1686 72.173 50.4081 72.6237 50.7596 72.9782C51.1111 73.3318 51.559 73.5721 52.0463 73.67C52.5337 73.767 53.0389 73.7171 53.4979 73.5249C53.9569 73.3336 54.3492 73.009 54.6252 72.5928C54.9012 72.1767 55.0486 71.6871 55.0486 71.1866C55.0478 70.5147 54.7824 69.8709 54.3107 69.3967C53.839 68.9216 53.1996 68.6551 52.533 68.6551Z" fill="#FFA800"/>
    <path d="M255.812 148.821H10.1395C9.9805 148.821 9.82804 148.758 9.71563 148.644C9.60322 148.531 9.54004 148.377 9.54004 148.217C9.54004 148.057 9.60322 147.903 9.71563 147.79C9.82804 147.677 9.9805 147.613 10.1395 147.613H255.812C255.972 147.613 256.124 147.677 256.236 147.79C256.349 147.903 256.412 148.057 256.412 148.217C256.412 148.377 256.349 148.531 256.236 148.644C256.124 148.758 255.972 148.821 255.812 148.821Z" fill="#5A1C89"/>
    <path d="M164.218 18.182C161.826 17.2218 146.823 12.5197 136.145 27.5908C130.755 35.1935 128.148 45.3367 131.352 53.9884C132.408 56.8917 133.892 59.6181 135.754 62.0771C142.875 71.3834 142.8 74.1226 142.528 77.3985C142.516 77.5372 142.542 77.6768 142.603 77.8019C142.665 77.9261 142.759 78.0322 142.875 78.1075C143.339 78.4149 144.35 78.6923 146.523 78.1619C146.688 78.1265 146.84 78.0404 146.955 77.9162C147.071 77.792 147.147 77.6351 147.171 77.4655C147.245 76.8354 147.288 76.2007 147.299 75.5651C147.318 74.5759 148.905 74.487 149.06 75.4627C149.109 75.7963 149.136 76.1336 149.143 76.4709C149.154 76.5915 149.189 76.7085 149.246 76.8145C149.304 76.9215 149.383 77.014 149.478 77.0875C149.574 77.1609 149.684 77.2135 149.801 77.2425C149.918 77.2706 150.039 77.2742 150.157 77.2534C150.909 77.1555 152.089 77.1799 153.778 77.6813C157.011 78.6443 161.054 76.7166 162.384 76.8191C162.438 76.8245 162.493 76.8245 162.548 76.8191L176.288 75.7809H179.862C180.024 75.7863 180.184 75.7474 180.325 75.6685C180.466 75.5896 180.584 75.4735 180.665 75.333C180.735 75.2042 180.821 75.0637 180.915 74.8887C181.346 74.1416 182.584 74.419 182.584 75.2632C182.595 75.4835 182.689 75.6902 182.849 75.8417C183.008 75.9922 183.219 76.0747 183.438 76.072L187.891 76.2315C188.097 76.2451 188.301 76.1844 188.467 76.0602C188.633 75.936 188.749 75.7573 188.796 75.5542L188.892 75.0157C189.018 74.3247 189.995 74.0908 190.457 74.6484C190.993 75.2931 191.796 75.6866 193.048 75.2577C196.278 74.1443 197.643 67.3903 194.772 63.1959C191.9 59.0006 191.469 60.5719 193.407 50.2138C195.344 39.8557 188.884 40.1169 187.447 35.7248C186.009 31.3328 187.95 24.5144 180.267 20.4488C173.413 16.8229 166.219 17.9445 164.745 18.2274C164.569 18.2627 164.386 18.2473 164.218 18.182Z" fill="#5A1C89"/>
    <path d="M144.392 79.0703C143.746 79.1029 143.104 78.9461 142.545 78.617C142.339 78.4819 142.174 78.2933 142.065 78.0702C141.957 77.8481 141.91 77.5996 141.93 77.353C142.179 74.3491 142.396 71.7551 135.28 62.4514C133.381 59.9426 131.867 57.1609 130.79 54.1987C127.776 46.0565 129.641 35.7274 135.657 27.238C147.205 10.9483 163.741 17.3378 164.44 17.6179C164.502 17.6424 164.569 17.6479 164.635 17.6343C166.056 17.365 173.498 16.1836 180.55 19.9146C186.459 23.04 186.973 27.8446 187.372 31.7053C187.518 33.1016 187.658 34.42 188.022 35.5361C188.453 36.8572 189.398 37.7122 190.489 38.7014C192.77 40.7669 195.352 43.1098 194 50.3244C192.395 58.9516 192.422 58.9924 194.178 61.338C194.495 61.7642 194.854 62.2438 195.269 62.8531C196.977 65.3465 197.428 68.9461 196.422 72.0198C195.778 73.991 194.648 75.3411 193.249 75.8243C191.586 76.3955 190.572 75.7083 190.002 75.031C189.962 74.9884 189.91 74.9575 189.852 74.943C189.795 74.9285 189.734 74.9312 189.678 74.9503C189.641 74.9503 189.507 75.0047 189.486 75.1198L189.39 75.6593C189.317 76.0029 189.124 76.3094 188.847 76.5234C188.57 76.7374 188.226 76.8453 187.878 76.8271L183.403 76.6839C183.029 76.683 182.67 76.5352 182.403 76.2722C182.135 76.0084 181.98 75.6502 181.971 75.274C181.971 75.1579 181.869 75.1071 181.784 75.0854C181.719 75.0627 181.648 75.0627 181.582 75.0836C181.517 75.1053 181.46 75.147 181.42 75.2041C181.326 75.3628 181.246 75.5088 181.176 75.6348C181.045 75.8697 180.853 76.0637 180.622 76.197C180.39 76.3312 180.127 76.3992 179.859 76.3955H176.33L162.593 77.4364C162.504 77.4419 162.415 77.4419 162.326 77.4364C161.98 77.4119 161.226 77.6033 160.423 77.8082C158.517 78.296 155.91 78.9651 153.593 78.2742C151.958 77.7864 150.855 77.7837 150.221 77.8644C150.006 77.8943 149.787 77.878 149.579 77.8163C149.37 77.7547 149.177 77.6504 149.011 77.509C148.868 77.3838 148.753 77.2288 148.674 77.0547C148.594 76.8806 148.552 76.692 148.551 76.5007C148.547 76.1897 148.521 75.8796 148.474 75.5732C148.447 75.39 148.233 75.39 148.169 75.3955C148.104 75.4009 147.9 75.4299 147.9 75.5949C147.9 76.3901 147.82 77.0991 147.77 77.5525C147.729 77.8435 147.603 78.1146 147.406 78.3313C147.209 78.548 146.951 78.6995 146.667 78.7657C145.923 78.9561 145.16 79.0585 144.392 79.0703ZM155.916 17.3568C150.296 17.3568 142.741 19.3243 136.648 27.9416C130.859 36.1073 129.05 46.0048 131.926 53.778C132.963 56.6259 134.418 59.3007 136.241 61.7152C143.643 71.3888 143.41 74.2004 143.137 77.4555C143.136 77.4854 143.143 77.5162 143.157 77.5434C143.172 77.5706 143.193 77.5933 143.22 77.6087C143.466 77.7728 144.269 78.0965 146.397 77.5788C146.442 77.5715 146.486 77.5507 146.52 77.5189C146.554 77.4872 146.578 77.4464 146.589 77.4011C146.638 76.9749 146.699 76.3094 146.712 75.5596C146.723 75.196 146.873 74.8496 147.129 74.593C147.385 74.3364 147.729 74.1877 148.09 74.1796C148.455 74.1388 148.821 74.2403 149.114 74.4634C149.406 74.6855 149.603 75.0119 149.664 75.3764C149.718 75.7337 149.749 76.0936 149.755 76.4545C149.757 76.479 149.764 76.5016 149.776 76.5225C149.788 76.5433 149.803 76.5615 149.822 76.576C149.86 76.6059 149.903 76.6277 149.949 76.6413C149.995 76.654 150.042 76.6576 150.09 76.6512C151.182 76.5089 152.482 76.6512 153.954 77.0991C155.956 77.6948 158.378 77.0747 160.149 76.6195C161.127 76.3711 161.897 76.1716 162.438 76.2151C162.462 76.2178 162.486 76.2178 162.51 76.2151L176.25 75.1742H179.862C179.914 75.176 179.967 75.1652 180.013 75.1416C180.06 75.118 180.101 75.0826 180.13 75.0391C180.202 74.9077 180.288 74.7508 180.398 74.5812C180.568 74.292 180.828 74.069 181.138 73.9456C181.449 73.8232 181.791 73.8087 182.11 73.9039C182.413 73.9756 182.684 74.1469 182.878 74.3908C183.072 74.6356 183.179 74.9394 183.18 75.2522C183.18 75.3465 183.29 75.4489 183.449 75.4544L187.921 75.6004C187.983 75.6103 188.048 75.5976 188.102 75.565C188.157 75.5315 188.197 75.4798 188.218 75.419L188.314 74.8941C188.366 74.623 188.496 74.3736 188.685 74.1741C188.875 73.9756 189.118 73.8359 189.384 73.7725C189.66 73.6936 189.953 73.6972 190.227 73.7806C190.503 73.865 190.748 74.0263 190.934 74.2467C191.415 74.8288 192.031 74.9639 192.869 74.6728C193.893 74.3192 194.777 73.2112 195.294 71.6318C196.026 69.394 196.003 66.0184 194.295 63.5241C193.89 62.9365 193.54 62.4678 193.224 62.0525C191.177 59.3134 191.163 58.9788 192.828 50.0868C194.054 43.5386 191.838 41.5294 189.695 39.5718C188.576 38.5609 187.419 37.5127 186.888 35.887C186.483 34.6466 186.339 33.2657 186.184 31.8051C185.769 27.86 185.338 23.7817 179.999 20.9555C173.308 17.413 166.219 18.5292 164.868 18.7985C164.577 18.8565 164.276 18.8284 164.001 18.7178C161.406 17.7902 158.669 17.3296 155.916 17.3568Z" fill="#5A1C89"/>
    <path d="M182.185 42.2767C181.995 46.666 174.839 48.6689 174.839 48.6689C176.349 53.9477 173.977 62.7018 171.965 66.752C170.75 69.1974 171.893 73.0418 172.985 75.7057C173.705 77.4529 174.979 80.2238 174.979 80.2238C174.979 80.2238 163.265 90.1993 162.548 83.1034C162.464 82.2511 161.785 78.1347 161.691 77.4067C161.023 72.0472 160.265 69.8575 160.265 69.8575C140.304 68.9898 140.876 37.3052 140.876 37.3052C153.989 35.0865 161.938 23.897 161.938 23.897C164.86 35.5199 172.758 35.714 172.758 35.714C181.038 33.1127 182.378 37.89 182.185 42.2767Z" fill="white"/>
    <path d="M164.954 86.2469C164.538 86.2541 164.124 86.1798 163.736 86.0283C162.703 85.6076 162.101 84.6429 161.954 83.1623C161.903 82.669 161.633 80.949 161.419 79.5663C161.268 78.6088 161.15 77.781 161.1 77.4818C160.602 73.4914 160.051 71.2809 159.816 70.4422C151.592 69.9036 145.616 64.0255 142.511 53.4298C140.162 45.4038 140.277 37.3777 140.279 37.2997V36.7983L140.772 36.7139C153.481 34.5578 161.378 23.6602 161.446 23.5496L162.197 22.4951L162.513 23.7545C165.128 34.1507 171.832 35.0402 172.682 35.11C176.191 34.0319 178.838 34.1507 180.554 35.4799C182.178 36.7384 182.927 39.0333 182.785 42.3037C182.608 46.3476 177.333 48.4747 175.559 49.0732C176.815 54.5759 174.526 62.9366 172.5 67.024C171.642 68.7494 172.011 71.7497 173.536 75.4762C174.243 77.1908 175.505 79.9435 175.519 79.9707L175.712 80.3887L175.361 80.6852C174.631 81.3108 168.711 86.2469 164.954 86.2469ZM141.476 37.8147C141.492 39.6643 141.695 46.393 143.667 53.1116C146.707 63.4788 152.301 68.9108 160.289 69.259L160.696 69.278L160.83 69.6634C160.862 69.7549 161.633 71.9709 162.288 77.3313C162.323 77.6006 162.457 78.4692 162.601 79.3777C162.832 80.8466 163.094 82.5131 163.137 83.0417C163.241 84.0554 163.58 84.6592 164.178 84.9095C166.469 85.8425 171.909 81.9627 174.232 80.0568C173.847 79.21 172.972 77.2715 172.423 75.9395C171.248 73.0716 170.122 69.1021 171.422 66.4845C173.517 62.2629 175.667 53.7807 174.256 48.8383L174.09 48.2508L174.671 48.0894C174.738 48.0703 181.409 46.1509 181.578 42.2521C181.704 39.3996 181.11 37.4448 179.815 36.4392C178.41 35.3612 176.092 35.3013 172.926 36.2996L172.832 36.3286H172.733C172.404 36.3286 164.885 36.0076 161.67 25.2288C159.428 27.9951 152.266 35.79 141.476 37.8147Z" fill="#5A1C89"/>
    <path d="M156.24 52.5278C154.971 52.5278 154.383 51.9638 154.099 51.4923C153.093 49.7206 154.966 46.3967 155.185 46.024C155.222 45.9515 155.275 45.8862 155.338 45.8345C155.401 45.7819 155.473 45.743 155.551 45.7203C155.629 45.6967 155.712 45.6904 155.793 45.7003C155.874 45.7103 155.951 45.7375 156.022 45.7783C156.093 45.82 156.154 45.8753 156.202 45.9415C156.25 46.0077 156.284 46.0839 156.303 46.1637C156.321 46.2435 156.323 46.3269 156.309 46.4076C156.294 46.4883 156.264 46.5653 156.219 46.6333C155.644 47.6289 154.613 49.9772 155.149 50.8912C155.21 50.9964 155.394 51.3192 156.235 51.3192C156.393 51.3192 156.546 51.3835 156.659 51.496C156.771 51.6093 156.834 51.7634 156.834 51.923C156.834 52.0835 156.771 52.2376 156.659 52.3501C156.546 52.4634 156.393 52.5278 156.235 52.5278H156.24Z" fill="#5A1C89"/>
    <path d="M147.96 48.2057H147.928C147.689 48.2057 147.125 48.0516 146.967 46.9626C146.939 46.7559 146.93 46.5474 146.94 46.3397C146.949 45.9698 147.025 45.6035 147.165 45.2617C147.454 44.6034 147.909 44.5526 148.088 44.5608C148.725 44.5871 149.124 45.3369 149.076 46.4231C149.067 46.794 148.991 47.1594 148.851 47.5021C148.578 48.125 148.158 48.2057 147.96 48.2057Z" fill="#5A1C89"/>
    <path d="M161.538 46.5745C161.287 46.5745 160.68 46.4476 160.468 45.2906C160.429 45.0658 160.41 44.8373 160.41 44.6088C160.41 43.4337 160.861 42.6431 161.536 42.6431C162.211 42.6431 162.662 43.4337 162.662 44.6088C162.662 45.7848 162.213 46.5745 161.538 46.5745Z" fill="#5A1C89"/>
    <path d="M160.645 58.893C160.486 58.8967 160.332 58.8368 160.216 58.7262C160.101 58.6165 160.035 58.4642 160.031 58.3037C160.027 58.1441 160.086 57.9882 160.196 57.8721C160.305 57.756 160.457 57.6889 160.616 57.6853C160.765 57.6853 164.055 57.4478 165.457 54.18C165.487 54.1057 165.532 54.0377 165.588 53.9815C165.644 53.9243 165.712 53.879 165.786 53.8491C165.859 53.8183 165.939 53.8028 166.019 53.8037C166.098 53.8047 166.177 53.8219 166.25 53.8536C166.324 53.8853 166.39 53.9316 166.445 53.9905C166.5 54.0486 166.543 54.1166 166.572 54.1918C166.6 54.2671 166.614 54.3469 166.611 54.4276C166.608 54.5083 166.59 54.5871 166.557 54.6597C164.85 58.6237 160.845 58.8713 160.669 58.8822L160.645 58.893Z" fill="#5A1C89"/>
    <path d="M146.081 39.3355C146.081 39.3355 143.812 40.1226 144.31 41.4463C144.31 41.4463 144.285 42.9397 148.284 41.042C148.46 40.9594 148.614 40.8361 148.734 40.682C148.854 40.5278 148.937 40.3474 148.974 40.1552C149.129 39.3464 148.896 38.486 146.081 39.3355Z" fill="#5A1C89"/>
    <path d="M145.214 42.6111C144.87 42.6256 144.53 42.5386 144.235 42.36C144.098 42.2738 143.982 42.1596 143.894 42.0236C143.805 41.8885 143.746 41.7362 143.721 41.5757C143.589 41.1813 143.616 40.7506 143.796 40.3761C144.274 39.3488 145.725 38.8202 145.888 38.7586H145.912C147.606 38.249 148.618 38.2572 149.191 38.7822C149.563 39.1222 149.689 39.6236 149.563 40.271C149.507 40.5557 149.385 40.824 149.207 41.0525C149.03 41.2819 148.801 41.466 148.54 41.5893C147.095 42.2738 146.006 42.6111 145.214 42.6111ZM144.909 41.3545C145.047 41.4116 145.752 41.573 148.026 40.4949C148.117 40.4514 148.197 40.3879 148.259 40.3081C148.321 40.2283 148.363 40.1359 148.383 40.0361C148.431 39.7859 148.398 39.6889 148.383 39.6753C148.367 39.6617 148.035 39.3788 146.262 39.9092C145.827 40.0633 145.074 40.4487 144.876 40.8884C144.852 40.941 144.84 40.999 144.84 41.058C144.84 41.1169 144.852 41.1749 144.876 41.2275L144.92 41.3354L144.909 41.3545Z" fill="#5A1C89"/>
    <path d="M161.849 37.0867C161.849 37.0867 164.231 37.3914 164.009 38.7904C164.009 38.7904 164.333 40.2493 160.037 39.2084C159.848 39.1622 159.672 39.0733 159.524 38.9464C159.375 38.8203 159.258 38.6608 159.181 38.4803C158.865 37.7205 158.924 36.8365 161.849 37.0867Z" fill="#5A1C89"/>
    <path d="M162.558 40.1904C161.655 40.1614 160.756 40.029 159.882 39.796C159.603 39.7289 159.342 39.5956 159.122 39.4088C158.902 39.2211 158.73 38.9845 158.616 38.7179C158.362 38.1086 158.384 37.5936 158.678 37.1838C159.135 36.5527 160.125 36.3396 161.889 36.491H161.933C162.104 36.5128 163.629 36.7304 164.306 37.6398C164.555 37.9708 164.669 38.386 164.622 38.7986C164.629 38.9609 164.601 39.1223 164.541 39.2737C164.481 39.4242 164.39 39.5602 164.274 39.6726C163.918 40.0172 163.358 40.1904 162.558 40.1904ZM160.921 37.6471C159.85 37.6471 159.671 37.8792 159.663 37.8901C159.655 37.901 159.636 38.0089 159.735 38.2464C159.774 38.3389 159.835 38.4214 159.911 38.4867C159.989 38.552 160.079 38.5973 160.177 38.6209C162.62 39.2111 163.275 38.9119 163.404 38.8258V38.8095L163.423 38.6934C163.435 38.6354 163.434 38.5764 163.42 38.5184C163.406 38.4613 163.38 38.4078 163.343 38.3616C163.075 37.9871 162.248 37.7495 161.79 37.6879C161.445 37.658 161.161 37.6471 160.921 37.6471Z" fill="#5A1C89"/>
    <path d="M174.098 44.7331C173.96 44.7331 173.826 44.6851 173.719 44.5971C173.612 44.5092 173.538 44.3868 173.511 44.2498C173.483 44.1138 173.503 43.9724 173.567 43.8491C173.631 43.7258 173.735 43.6287 173.862 43.5734C176.169 42.5815 176.579 41.7374 176.619 41.323C176.681 40.6484 175.88 40.0935 175.872 40.0881C175.739 40.0001 175.646 39.8623 175.613 39.7055C175.581 39.5486 175.612 39.3845 175.7 39.2503C175.787 39.1161 175.924 39.0227 176.079 38.9901C176.235 38.9574 176.397 38.9892 176.53 39.0771C176.586 39.1143 177.935 40.0174 177.812 41.4228C177.705 42.6568 176.565 43.7249 174.333 44.6851C174.259 44.7168 174.179 44.7331 174.098 44.7331Z" fill="#5A1C89"/>
    <path d="M137.619 30.5947C137.584 30.5929 137.55 30.5865 137.517 30.5756C137.443 30.5475 137.382 30.4913 137.348 30.4188C137.315 30.3453 137.311 30.2628 137.338 30.1876C140.11 22.6221 146.261 19.9256 150.93 18.9953C154.072 18.3933 157.29 18.3234 160.455 18.7877C160.495 18.7931 160.535 18.8067 160.57 18.8267C160.605 18.8475 160.636 18.8756 160.66 18.9083C160.684 18.9418 160.701 18.9799 160.71 19.0198C160.72 19.0597 160.721 19.1014 160.714 19.1422C160.707 19.1821 160.691 19.2211 160.668 19.2555C160.646 19.2891 160.616 19.319 160.582 19.3407C160.547 19.3634 160.51 19.3788 160.469 19.3852C160.429 19.3924 160.387 19.3906 160.348 19.3816C157.252 18.9291 154.103 19.0007 151.029 19.5919C144.464 20.9048 140.057 24.5389 137.903 30.3943C137.881 30.4532 137.842 30.5031 137.792 30.5394C137.741 30.5747 137.681 30.5938 137.619 30.5947Z" fill="white"/>
    <path d="M180.606 34.4418C180.564 34.4418 180.522 34.4337 180.482 34.4155C180.444 34.3974 180.409 34.372 180.381 34.3394C179.82 33.7056 179.224 33.1035 178.597 32.535C176.995 31.097 175.085 30.0489 173.017 29.4731C167.016 27.7014 165.727 21.8052 165.713 21.7453C165.702 21.7063 165.701 21.6646 165.706 21.6238C165.712 21.583 165.726 21.544 165.747 21.5087C165.769 21.4733 165.797 21.4434 165.831 21.4198C165.864 21.3963 165.902 21.379 165.943 21.3709C165.982 21.3627 166.024 21.3627 166.064 21.3709C166.104 21.3799 166.142 21.3963 166.175 21.4198C166.209 21.4434 166.237 21.4742 166.259 21.5096C166.279 21.544 166.294 21.5839 166.299 21.6247C166.299 21.6782 167.525 27.2354 173.182 28.8765C175.339 29.4786 177.329 30.5729 178.998 32.0744C179.643 32.6565 180.255 33.2749 180.831 33.9268C180.858 33.9558 180.877 33.9912 180.891 34.0284C180.903 34.0655 180.909 34.1054 180.906 34.1453C180.904 34.1852 180.894 34.2233 180.876 34.2596C180.858 34.2949 180.834 34.3267 180.804 34.353C180.752 34.4065 180.681 34.4391 180.606 34.4418Z" fill="white"/>
    <path d="M178.104 71.9447C178.055 71.9429 178.006 71.9311 177.962 71.9093C174.9 70.2618 176.94 64.2794 177.028 64.0256C181.072 55.2741 179.218 52.3273 179.199 52.2974C179.153 52.2321 179.136 52.1505 179.149 52.0717C179.164 51.9928 179.209 51.923 179.274 51.8776C179.339 51.8314 179.419 51.8142 179.498 51.8278C179.576 51.8423 179.646 51.8867 179.691 51.9529C179.779 52.0798 181.794 55.1427 177.585 64.2522C177.585 64.2849 175.634 69.9708 178.246 71.3753C178.305 71.407 178.352 71.4578 178.38 71.5194C178.407 71.5811 178.413 71.65 178.397 71.7162C178.38 71.7815 178.343 71.8395 178.29 71.8812C178.237 71.922 178.171 71.9447 178.104 71.9447Z" fill="white"/>
    <path d="M89.7022 103.715C89.7022 103.715 75.6737 76.6431 74.9994 74.9258C74.4829 73.602 72.3231 70.9354 75.9574 67.9161C75.9574 67.9161 75.8343 65.0664 78.7031 64.6593C78.7031 64.6593 78.5827 62.0552 82.3401 62.6645C82.3401 62.6645 75.9173 54.0128 78.299 52.5295C81.9761 50.2518 90.5849 64.1225 93.8555 68.811C96.8714 73.1251 106.053 87.7193 106.053 87.7193C106.053 87.7193 104.86 109.139 89.7022 103.715Z" fill="white"/>
    <path d="M94.3054 105.201C92.6638 105.173 91.0393 104.863 89.5015 104.284L89.2793 104.206L89.1696 103.996C88.5969 102.888 75.1197 76.8754 74.4506 75.1472C74.3864 74.9858 74.2901 74.7891 74.183 74.5597C73.4711 73.1199 72.1544 70.4669 75.3766 67.6416C75.4328 66.4901 76.0697 64.6758 78.1732 64.1581C78.2796 63.6077 78.5615 63.1081 78.9761 62.7345C79.5813 62.2313 80.3457 61.9638 81.1304 61.9793C79.6826 59.8902 76.8218 55.4148 77.2392 53.2042C77.2768 52.963 77.3654 52.7328 77.4987 52.5287C77.6322 52.3256 77.8074 52.1525 78.0126 52.0228C81.4194 49.912 87.224 57.9082 92.8762 66.2797C93.454 67.1347 93.9463 67.8764 94.372 68.4721C97.3636 72.7481 106.495 87.258 106.586 87.404L106.69 87.5681V87.7621C106.663 88.2345 105.97 99.3905 99.655 103.621C98.071 104.68 96.2062 105.231 94.3054 105.201ZM90.1222 103.225C93.6016 104.416 96.5662 104.211 98.9539 102.617C104.346 99.0079 105.326 89.3561 105.444 87.8836C104.411 86.2416 96.1675 73.1715 93.3685 69.1676C92.9455 68.5637 92.4424 67.8193 91.8619 66.9598C88.712 62.2921 81.3311 51.3682 78.6174 53.0528C78.5534 53.0936 78.4997 53.1489 78.4607 53.2151C78.4217 53.2804 78.3984 53.3538 78.3926 53.43C78.0715 55.1264 80.9403 59.7769 82.8217 62.3111L83.7129 63.5079L82.2463 63.2686C81.0983 63.0827 80.2392 63.206 79.7629 63.6267C79.6216 63.7564 79.5082 63.9132 79.4294 64.0891C79.3508 64.2641 79.3085 64.4536 79.3052 64.6459L79.3186 65.1853L78.7834 65.2688C76.5381 65.587 76.5434 67.6688 76.5514 67.9027V68.2019L76.324 68.3932C73.5675 70.6772 74.5283 72.6103 75.2268 74.0229C75.3472 74.2659 75.4622 74.4953 75.5452 74.7057C76.0777 76.0294 85.2463 93.8125 90.1222 103.225Z" fill="#5A1C89"/>
    <path d="M78.7031 64.6675C78.7031 64.6675 78.8905 66.6196 80.1724 67.889L78.7031 64.6675Z" fill="white"/>
    <path d="M80.1724 68.4937C80.015 68.4928 79.864 68.4302 79.7523 68.3178C78.3312 66.9106 78.1144 64.8134 78.1064 64.7273C78.0908 64.5677 78.1387 64.4081 78.2395 64.2848C78.3404 64.1606 78.4861 64.0817 78.6443 64.0663C78.8026 64.0509 78.9606 64.0989 79.0836 64.2005C79.2065 64.302 79.2844 64.4489 79.3 64.6085C79.3 64.6248 79.49 66.3639 80.5926 67.4583C80.6483 67.5145 80.6926 67.5807 80.7227 67.6541C80.7529 67.7275 80.7685 67.8064 80.7685 67.8853C80.7685 67.9651 80.7529 68.0431 80.7227 68.1165C80.6926 68.19 80.6483 68.2571 80.5926 68.3124C80.4812 68.4257 80.3304 68.4901 80.1724 68.4937Z" fill="#5A1C89"/>
    <path d="M81.77 61.8779C81.77 61.8779 86.2231 67.825 87.315 68.9955L81.77 61.8779Z" fill="white"/>
    <path d="M87.315 69.599C87.2327 69.599 87.1513 69.5818 87.0757 69.5491C87.0002 69.5165 86.9323 69.4675 86.876 69.4077C85.7761 68.229 81.4729 62.4841 81.2909 62.2411C81.2435 62.1777 81.2088 62.1051 81.1891 62.029C81.1693 61.9519 81.1648 61.8721 81.1757 61.7932C81.1867 61.7143 81.2129 61.6391 81.2528 61.5702C81.2928 61.5022 81.3457 61.4423 81.4086 61.3943C81.4715 61.3471 81.5432 61.3118 81.6194 61.2918C81.6957 61.2719 81.7751 61.2673 81.8531 61.2782C81.9312 61.2891 82.0063 61.3163 82.0743 61.3562C82.1421 61.3961 82.2015 61.4496 82.249 61.5131C82.2944 61.5729 86.6941 67.4447 87.7512 68.5826C87.8051 68.6397 87.8472 68.7077 87.8751 68.7821C87.9029 68.8555 87.9161 68.9344 87.9136 69.0142C87.911 69.093 87.893 69.171 87.8606 69.2427C87.8281 69.3152 87.7819 69.3805 87.7244 69.434C87.614 69.54 87.4673 69.599 87.315 69.599Z" fill="#5A1C89"/>
    <path d="M75.9575 67.9243C75.9575 67.9243 77.2501 73.7453 80.9673 72.1169L75.9575 67.9243Z" fill="white"/>
    <path d="M79.7042 73.0091C79.2172 73.01 78.7373 72.8922 78.3046 72.6673C76.1636 71.5883 75.4037 68.2 75.3608 68.0568C75.3433 67.9797 75.3409 67.899 75.3541 67.821C75.3673 67.743 75.3956 67.6678 75.4374 67.6007C75.4794 67.5336 75.5339 67.4756 75.5982 67.4293C75.6624 67.3831 75.735 67.3504 75.8117 67.3332C75.8885 67.3151 75.9681 67.3123 76.0457 67.3259C76.1234 67.3395 76.1977 67.3677 76.2644 67.4103C76.3311 67.452 76.389 67.5073 76.4346 67.5717C76.4802 67.637 76.5127 67.7095 76.5303 67.7875C76.715 68.5962 77.491 70.8956 78.8399 71.5856C79.133 71.728 79.4548 71.7987 79.78 71.7942C80.1051 71.7887 80.4246 71.7071 80.7131 71.5566C80.7854 71.5249 80.8631 71.5076 80.9418 71.5058C81.0206 71.5049 81.0989 71.5185 81.1722 71.5475C81.2455 71.5766 81.3124 71.6201 81.3691 71.6754C81.4258 71.7307 81.4712 71.796 81.5026 71.8694C81.5341 71.942 81.551 72.0199 81.5525 72.0997C81.5538 72.1786 81.5398 72.2575 81.5109 72.3318C81.4821 72.4053 81.4391 72.4724 81.3844 72.5295C81.3297 72.5866 81.2644 72.6328 81.1922 72.6646C80.725 72.8813 80.2185 72.9983 79.7042 73.0091Z" fill="#5A1C89"/>
    <path d="M73.9558 70.896C73.8889 73.4601 76.525 75.9835 79.094 72.3277L73.9558 70.896Z" fill="white"/>
    <path d="M76.4286 74.7644C76.1556 74.7644 75.8845 74.7199 75.6257 74.632C74.2689 74.1795 73.3135 72.5992 73.359 70.8792C73.3597 70.7994 73.3762 70.7214 73.4076 70.6479C73.439 70.5754 73.4846 70.5092 73.5418 70.4548C73.599 70.3995 73.6665 70.3569 73.7404 70.3288C73.8143 70.3007 73.8929 70.288 73.9719 70.2916C74.1311 70.2962 74.2822 70.3632 74.392 70.4793C74.5019 70.5963 74.5616 70.7513 74.558 70.9118C74.5285 72.0733 75.1628 73.2057 76.0058 73.4868C76.8487 73.767 77.7345 73.2166 78.6097 71.9763C78.7045 71.8539 78.8427 71.7732 78.9954 71.7505C79.1481 71.7278 79.3037 71.765 79.4296 71.8548C79.5554 71.9454 79.642 72.0805 79.6712 72.2329C79.7005 72.3861 79.6701 72.5439 79.5864 72.6744C78.4063 74.3437 77.2635 74.7644 76.4286 74.7644Z" fill="#5A1C89"/>
    <path d="M93.3712 73.2441C93.3712 73.2441 82.9716 64.2687 80.1242 68.4531C78.4622 70.8957 87.6603 77.4765 87.6603 77.4765C87.6603 77.4765 84.7513 85.236 92.239 87.4094L93.3712 73.2441Z" fill="white"/>
    <path d="M92.2392 88.0131C92.1834 88.0131 92.1276 88.0049 92.0736 87.9886C89.7693 87.3203 88.1502 86.08 87.2564 84.3001C85.9772 81.726 86.6248 78.8056 86.9459 77.7057C85.5236 76.6531 84.1577 75.5242 82.8541 74.3247C79.7818 71.4595 78.7248 69.4285 79.6213 68.1237C79.8716 67.7493 80.2004 67.4337 80.5847 67.2016C80.9689 66.9686 81.3992 66.8235 81.8452 66.7764C86.0816 66.2124 93.4407 72.5185 93.7512 72.7878C93.8151 72.8386 93.8682 72.9011 93.9078 72.9728C93.9465 73.0444 93.9717 73.1224 93.9798 73.204C93.9879 73.2856 93.9789 73.3672 93.9546 73.4452C93.9312 73.5231 93.8916 73.5957 93.8385 73.6573C93.7854 73.719 93.7215 73.7698 93.6486 73.806C93.5757 73.8423 93.4965 73.8631 93.4155 73.8677C93.3345 73.8722 93.2535 73.8595 93.1779 73.8323C93.1014 73.8042 93.0321 73.7607 92.9727 73.7045C90.9657 71.9709 85.0807 67.5661 82.0004 67.976C81.7239 67.9986 81.4558 68.0829 81.2156 68.2226C80.9754 68.3622 80.7691 68.5544 80.6115 68.7847C79.8086 69.9517 83.7881 73.9611 88.0004 76.9722L88.3777 77.2424L88.2118 77.6785C88.2118 77.7112 86.9862 81.0569 88.3322 83.7534C89.0628 85.2141 90.4302 86.2468 92.3976 86.8162C92.538 86.8552 92.6595 86.9441 92.7396 87.0665C92.8197 87.1898 92.853 87.3376 92.8323 87.4827C92.8116 87.6277 92.7396 87.761 92.6289 87.8571C92.5182 87.9523 92.3769 88.004 92.2311 88.0022L92.2392 88.0131Z" fill="#5A1C89"/>
    <path d="M161.012 80.0353C161.012 80.0353 161.708 85.7974 174.098 77.5474L189.085 79.4859C189.085 79.4859 202.661 82.6321 214.083 99.4559C214.083 99.4559 244.465 134.299 236.924 156.551C231.786 171.708 199.956 161.482 180.189 153.421L169.471 146.999H139.308C139.308 146.999 139.027 143.764 139.538 135.602C139.538 135.602 130.84 150.469 118.959 141.137C106.246 131.161 90.0559 105.068 88.4873 101.658C88.4873 101.658 102.366 96.7431 106.353 88.1775C106.353 88.1775 119.283 111.094 123.053 112.173C123.053 112.173 137.383 84.9424 145.032 83.9505C152.681 82.9585 161.012 80.0353 161.012 80.0353Z" fill="#FFA800"/>
    <path d="M221.918 164.955C209.828 164.955 193.233 159.389 179.967 153.981L179.887 153.941L169.311 147.602H138.759L138.711 147.063C138.711 146.941 138.478 144.262 138.815 137.724C137.078 140.004 133.6 143.733 128.913 144.634C125.453 145.297 121.982 144.283 118.597 141.625C105.92 131.66 89.769 105.888 87.9438 101.911L87.6763 101.307L88.2971 101.089C88.4336 101.041 101.986 96.1552 105.818 87.9106L106.311 86.8534L106.883 87.8698C111.775 96.5379 119.79 109.471 122.799 111.37C124.861 107.516 137.595 84.2766 144.965 83.33C152.458 82.3725 160.741 79.4883 160.825 79.4584L161.526 79.2127L161.614 79.9516C161.671 80.2173 161.793 80.4639 161.967 80.6716C162.14 80.8792 162.362 81.0415 162.612 81.143C163.728 81.6444 166.658 81.7768 173.774 77.0375L173.962 76.916L189.242 78.8899C189.805 79.0214 203.159 82.281 214.578 99.0803C219.901 105.424 224.68 112.21 228.864 119.369C237.783 134.777 240.69 147.356 237.505 156.758C236.509 159.691 234.508 161.881 231.55 163.228C228.914 164.431 225.625 164.955 221.918 164.955ZM180.459 152.878C194.483 158.591 219.655 167.365 231.039 162.118C233.683 160.902 235.473 158.96 236.356 156.356C240.178 145.082 233.824 130.35 227.822 119.981C223.672 112.877 218.927 106.143 213.638 99.8546L213.596 99.7974C202.687 83.7317 189.652 80.2481 188.975 80.0786L174.243 78.1754C168.515 81.9491 164.424 83.3246 162.079 82.2193C161.442 81.9337 160.928 81.425 160.634 80.7876C158.605 81.4613 151.581 83.6936 145.112 84.5187C137.847 85.4598 123.725 112.17 123.583 112.44L123.355 112.871L122.89 112.736C119.322 111.709 109.096 94.1786 106.377 89.4284C102.331 96.5759 92.025 100.944 89.3248 101.99C92.1186 107.317 107.554 131.415 119.327 140.668C122.426 143.094 125.573 144.038 128.677 143.445C134.876 142.261 138.982 135.373 139.021 135.303L140.293 133.132L140.137 135.647C139.749 141.808 139.821 145.17 139.87 146.403H169.639L180.459 152.878Z" fill="#FFA800"/>
    <path d="M147.133 150.878L187.752 89.5802L227.993 68.9955L244.963 18.0227L236.479 16.5566L250.296 1.16992L258.055 20.4626L249.812 19.1334L233.571 78.4641L198.662 97.8838L167.388 162.846L147.133 150.878Z" fill="#0774F5"/>
    <path d="M167.645 163.698L146.281 151.075L146.635 150.535L187.355 89.1131L187.495 89.0405L227.498 68.5691L244.168 18.4967L235.297 16.9653L250.49 0.050293L259.007 21.2304L250.246 19.815L234.079 78.8601L199.131 98.3178L167.645 163.698ZM147.984 150.681L167.132 162.004L198.205 97.4465L233.059 78.0568L249.384 18.4514L257.107 19.6972L250.109 2.28766L237.667 16.1456L245.768 17.5456L228.483 69.4205L188.158 90.046L147.984 150.681Z" fill="#0774F5"/>
    <path d="M180.191 153.421C180.191 153.421 154.856 142.016 154.706 136.813C154.706 136.813 154.15 134.19 156.331 134.027C156.063 133.612 154.074 129.619 158.431 128.574C157.861 128.177 156.826 123.407 161.34 123.607C161.34 123.607 158.723 116.284 167.61 117.832C167.61 117.832 165.221 121.736 176.209 126.538C176.209 126.538 178.976 125.912 180.159 120.337C180.281 119.705 180.559 119.116 180.969 118.622C181.378 118.128 181.903 117.746 182.498 117.511C184.197 116.881 186.285 117.463 186.068 124.338C185.744 134.583 188.744 133.157 189.547 133.318C189.529 133.321 188.884 145.589 180.191 153.421Z" fill="white"/>
    <path d="M180.304 154.133L179.948 153.973C179.884 153.944 173.525 151.072 167.217 147.6C154.442 140.563 154.128 137.821 154.104 136.88C154.046 136.562 153.858 135.249 154.557 134.308C154.788 133.998 155.099 133.759 155.456 133.615C155.124 132.784 154.805 131.458 155.271 130.269C155.638 129.32 156.4 128.63 157.548 128.209C157.237 127.247 157.227 126.212 157.519 125.243C157.787 124.435 158.52 123.19 160.556 123.008C160.321 121.93 160.123 119.944 161.301 118.527C162.478 117.112 164.622 116.689 167.708 117.225L168.582 117.38L168.117 118.139C168.117 118.139 167.815 118.701 168.132 119.649C168.609 121.07 170.405 123.3 176.228 125.88C176.78 125.632 178.655 124.497 179.565 120.205C179.706 119.475 180.028 118.793 180.5 118.222C180.974 117.652 181.583 117.211 182.271 116.942C183.529 116.476 184.383 116.805 184.878 117.166C186.192 118.118 186.77 120.471 186.646 124.354C186.478 129.706 187.232 131.634 187.896 132.307C188.303 132.72 188.732 132.709 189.141 132.701C189.307 132.69 189.474 132.698 189.639 132.725L190.147 132.828L190.12 133.348C190.093 133.861 189.36 145.955 180.585 153.865L180.304 154.133ZM158.799 128.101L159.869 128.846L158.555 129.161C157.399 129.43 156.682 129.97 156.379 130.709C155.91 131.917 156.647 133.456 156.812 133.691L157.394 134.553L156.36 134.629C156.197 134.629 156.036 134.665 155.887 134.735C155.739 134.804 155.608 134.906 155.504 135.033C155.137 135.526 155.22 136.414 155.277 136.686L155.289 136.794C155.397 140.269 170.397 148.322 180.076 152.701C187.123 146.127 188.6 136.443 188.873 133.906C188.535 133.911 188.199 133.847 187.886 133.717C187.572 133.589 187.289 133.396 187.05 133.154C185.827 131.911 185.305 129.021 185.445 124.314C185.587 119.851 184.709 118.533 184.174 118.142C183.791 117.873 183.304 117.843 182.683 118.072C182.182 118.269 181.739 118.592 181.396 119.01C181.053 119.427 180.821 119.926 180.722 120.458C179.472 126.341 176.439 127.09 176.319 127.12L176.126 127.164L175.947 127.085C170.742 124.81 167.715 122.407 166.947 119.945C166.776 119.425 166.728 118.871 166.806 118.328C164.547 118.031 163 118.363 162.202 119.315C160.974 120.787 161.873 123.384 161.881 123.41L162.2 124.249L161.311 124.211C160.034 124.152 159.186 124.529 158.782 125.33C158.25 126.378 158.606 127.816 158.799 128.101Z" fill="#5A1C89"/>
    <path d="M139.155 148.821C138.997 148.817 138.845 148.751 138.735 148.636C138.625 148.521 138.564 148.366 138.566 148.206C138.591 146.896 139.2 115.999 142.693 105.475C142.743 105.324 142.851 105.198 142.994 105.126C143.136 105.056 143.3 105.044 143.452 105.095C143.603 105.145 143.727 105.254 143.798 105.397C143.869 105.541 143.881 105.707 143.831 105.859C140.397 116.206 139.771 147.918 139.765 148.228C139.763 148.307 139.747 148.385 139.716 148.458C139.684 148.531 139.638 148.596 139.582 148.651C139.525 148.707 139.458 148.75 139.385 148.779C139.312 148.808 139.233 148.822 139.155 148.821Z" fill="#5A1C89"/>
    <path d="M216.923 142.773C216.766 142.772 216.617 142.711 216.505 142.601C209.705 135.907 188.37 133.825 188.159 133.803C188.002 133.787 187.858 133.709 187.758 133.586C187.657 133.462 187.61 133.305 187.625 133.146C187.639 132.988 187.716 132.842 187.836 132.74C187.958 132.638 188.114 132.588 188.271 132.601C189.165 132.687 210.245 134.758 217.346 141.735C217.431 141.819 217.49 141.927 217.515 142.045C217.54 142.163 217.528 142.286 217.483 142.398C217.438 142.509 217.361 142.605 217.261 142.672C217.162 142.739 217.045 142.774 216.925 142.773H216.923Z" fill="#5A1C89"/>
    <path d="M206.488 137.417C206.356 137.417 206.229 137.373 206.124 137.293C203.563 135.316 195.325 116.616 194.397 114.489C194.332 114.342 194.329 114.176 194.386 114.027C194.444 113.877 194.557 113.757 194.703 113.692C194.849 113.628 195.014 113.624 195.162 113.682C195.311 113.739 195.429 113.854 195.494 114.001C199.099 122.238 205.099 134.98 206.854 136.332C206.917 136.381 206.969 136.441 207.009 136.51C207.048 136.578 207.075 136.654 207.084 136.732C207.095 136.811 207.09 136.891 207.07 136.968C207.049 137.044 207.014 137.117 206.967 137.179C206.91 137.253 206.837 137.313 206.754 137.353C206.671 137.395 206.58 137.416 206.488 137.417Z" fill="#5A1C89"/>
    <path d="M120.451 116.641C120.299 116.64 120.153 116.582 120.041 116.476C119.929 116.371 119.862 116.227 119.852 116.074C119.667 113.182 122.673 111.674 122.796 111.612C122.936 111.551 123.095 111.548 123.238 111.6C123.382 111.654 123.5 111.76 123.568 111.898C123.636 112.035 123.65 112.194 123.606 112.341C123.562 112.489 123.464 112.614 123.331 112.691C123.307 112.691 120.922 113.91 121.051 115.991C121.061 116.15 121.008 116.308 120.903 116.428C120.798 116.548 120.65 116.622 120.492 116.632L120.451 116.641Z" fill="#5A1C89"/>
    <path d="M117.288 115.419C117.222 115.419 117.157 115.407 117.095 115.386C116.945 115.335 116.821 115.225 116.751 115.082C116.68 114.938 116.67 114.772 116.721 114.621C117.823 111.385 122.528 111.545 122.728 111.553C122.881 111.567 123.023 111.64 123.124 111.757C123.225 111.874 123.277 112.025 123.271 112.179C123.265 112.334 123.199 112.48 123.089 112.588C122.979 112.695 122.831 112.756 122.678 112.758C122.608 112.758 118.663 112.634 117.86 115.012C117.82 115.132 117.742 115.235 117.64 115.308C117.536 115.382 117.414 115.42 117.288 115.419Z" fill="#5A1C89"/>
    <path d="M198.4 121.881C198.4 121.881 200.52 131.75 199.712 134.734L206.067 136.813L198.4 121.881Z" fill="#5A1C89"/>
    <path d="M159.031 69.1539C159.031 69.1539 160.803 69.27 163.632 68.0759C166.169 67.0159 166.634 66.5581 167.429 66.8491C167.696 66.9516 167.271 68.5664 159.935 72.807L159.031 69.1539Z" fill="#5A1C89"/>
    <path d="M164.988 127.91C164.895 127.908 164.804 127.886 164.721 127.843C164.589 127.773 161.483 126.107 160.768 123.799C160.745 123.723 160.737 123.644 160.744 123.565C160.751 123.486 160.774 123.409 160.81 123.339C160.847 123.27 160.898 123.208 160.958 123.157C161.018 123.106 161.088 123.068 161.163 123.045C161.238 123.022 161.317 123.014 161.395 123.021C161.473 123.028 161.549 123.051 161.619 123.088C161.688 123.124 161.75 123.175 161.799 123.236C161.85 123.297 161.888 123.367 161.911 123.443C162.478 125.282 165.251 126.772 165.28 126.786C165.399 126.849 165.492 126.95 165.547 127.073C165.602 127.196 165.614 127.334 165.581 127.466C165.549 127.596 165.474 127.712 165.369 127.796C165.264 127.879 165.133 127.924 164.999 127.924L164.988 127.91Z" fill="#5A1C89"/>
    <path d="M162.296 131.671C162.204 131.672 162.113 131.652 162.029 131.612C161.889 131.544 158.614 129.932 157.455 127.7C157.381 127.557 157.367 127.39 157.416 127.236C157.463 127.083 157.57 126.954 157.712 126.88C157.854 126.806 158.019 126.791 158.172 126.84C158.325 126.888 158.451 126.996 158.525 127.139C159.503 129.026 162.54 130.509 162.559 130.523C162.681 130.582 162.781 130.683 162.84 130.806C162.899 130.93 162.915 131.072 162.883 131.205C162.852 131.339 162.776 131.459 162.669 131.543C162.561 131.628 162.428 131.673 162.291 131.671H162.296Z" fill="#5A1C89"/>
    <path d="M199.104 98.3015L209.571 92.4941L212.097 95.7129L198.668 99.259L199.104 98.3015Z" fill="#5A1C89"/>
    <g opacity="0.25">
        <path d="M243.173 13.005C242.559 13.0131 241.95 12.888 241.388 12.6405C240.825 12.393 240.322 12.0276 239.91 11.5688L240.127 11.3639C241.334 12.6496 242.927 13.0104 244.861 12.4419C250.037 10.9132 249.465 7.21391 248.798 2.92976C248.739 2.55801 248.681 2.1781 248.624 1.7982L248.921 1.75195C248.978 2.13458 249.036 2.51177 249.093 2.88442C249.78 7.3082 250.374 11.129 244.947 12.733C244.371 12.908 243.774 12.9995 243.173 13.005Z" fill="#5A1C89"/>
    </g>
    <g opacity="0.25">
        <path d="M191.726 112.165C191.459 111.874 185.118 104.942 187.581 99.7115C188.196 98.4094 187.669 95.8698 187.112 93.1814C186.911 92.2004 186.7 91.1867 186.537 90.1938L186.834 90.1431C186.995 91.1296 187.206 92.1405 187.407 93.1089C187.974 95.848 188.509 98.4357 187.853 99.8302C185.475 104.877 191.867 111.878 191.946 111.949L191.726 112.165Z" fill="#5A1C89"/>
    </g>
    <g opacity="0.25">
        <path d="M202.929 89.5231C202.659 89.5213 202.391 89.4995 202.126 89.4587C199.951 89.0861 197.982 87.9382 196.578 86.2227C196.215 85.792 195.839 85.3822 195.465 85.0095L195.674 84.7947C196.056 85.1746 196.436 85.5898 196.809 86.0287C198.16 87.6897 200.06 88.8041 202.161 89.1704C203.448 89.3671 204.432 89.0888 205.083 88.3453C207.123 86.0187 205.423 79.874 205.407 79.8114L205.696 79.728C205.768 79.9982 207.454 86.094 205.308 88.5448C205.008 88.8739 204.639 89.1332 204.227 89.3018C203.816 89.4714 203.372 89.5467 202.929 89.5231Z" fill="#5A1C89"/>
    </g>
    <g opacity="0.25">
        <path d="M222.507 76.867C220.366 76.867 218.351 75.7164 217.08 73.7833L217.332 73.6183C218.546 75.4653 220.481 76.5651 222.507 76.5651C226.275 76.5651 228.24 72.9038 228.339 65.7056H228.639C228.537 73.1006 226.473 76.8534 222.51 76.8616L222.507 76.867Z" fill="#5A1C89"/>
    </g>
    <g opacity="0.25">
        <path d="M240.456 47.1141C240.031 47.125 239.613 46.9936 239.268 46.7415C237.395 45.3452 237.647 40.0981 240.02 30.7002L240.312 30.7754C238.002 39.9122 237.711 45.2019 239.445 46.4994C240.213 47.0706 241.428 46.8576 243.057 45.8656L243.213 46.1349C242.13 46.7877 241.211 47.1141 240.456 47.1141Z" fill="#5A1C89"/>
    </g>
    <g opacity="0.25">
        <path d="M236.943 67.4667C230.855 64.1101 233.145 57.7822 233.999 55.9244C234.187 55.5182 234.34 55.0957 234.456 54.6623C235.439 51.0636 235.527 48.524 234.725 46.6689L234.992 46.5474C235.827 48.4696 235.749 51.0745 234.751 54.7439C234.624 55.1891 234.462 55.6234 234.267 56.0432C233.445 57.8412 231.224 63.9614 237.084 67.1938L236.943 67.4667Z" fill="#5A1C89"/>
    </g>
    <g opacity="0.25">
        <path d="M226.594 83.1417C224.598 82.5959 222.564 82.2051 220.508 81.9739C215.508 81.7046 214.92 78.5638 214.567 76.687C214.452 76.0749 214.353 75.5463 214.139 75.423L214.289 75.1528C214.62 75.3469 214.722 75.8836 214.861 76.6226C215.22 78.5285 215.76 81.4109 220.535 81.6665C222.608 81.8968 224.659 82.2904 226.671 82.8425L226.594 83.1417Z" fill="#5A1C89"/>
    </g>
    <g opacity="0.25">
        <path d="M215.485 89.2853C211.153 85.9559 209.062 80.9274 209.273 77.8999L209.573 77.9217C209.356 80.8875 211.417 85.7809 215.667 89.0459L215.485 89.2853Z" fill="#5A1C89"/>
    </g>
    <g opacity="0.25">
        <path d="M195.117 105.775C191.881 102.58 192.122 99.2209 192.553 97.5037C193.174 95.0284 194.921 92.9203 196.803 92.3808C199.303 91.6555 203.025 91.9547 203.903 93.4135C204.2 93.9041 204.307 94.7618 203.135 95.9886L202.918 95.7782C203.753 94.8987 203.989 94.1607 203.646 93.5695C202.859 92.2566 199.27 91.9791 196.886 92.6719C195.104 93.1896 193.442 95.2088 192.845 97.5871C192.427 99.2427 192.197 102.478 195.325 105.568L195.117 105.775Z" fill="#5A1C89"/>
    </g>
    <g opacity="0.25">
        <path d="M246.604 31.7C245.041 27.8066 244.902 22.5894 246.266 19.0143C247.656 15.3721 249.652 13.4472 251.908 13.5986C254.557 13.7763 257.188 16.8845 258.162 20.9937L257.871 21.0635C256.926 17.0813 254.41 14.0674 251.889 13.9006C249.781 13.7627 247.874 15.6151 246.537 19.125C245.199 22.6357 245.338 27.7531 246.874 31.5866L246.604 31.7Z" fill="#5A1C89"/>
    </g>
    <g opacity="0.25">
        <path d="M155.715 156.717L155.662 156.421C156.569 156.254 157.519 156.097 158.488 155.955C160.948 155.617 163.303 154.735 165.385 153.372C167.467 152.011 169.224 150.201 170.53 148.074L170.798 148.233C169.47 150.397 167.683 152.238 165.565 153.625C163.447 155.012 161.051 155.909 158.549 156.254C157.565 156.394 156.617 156.55 155.715 156.717Z" fill="#5A1C89"/>
    </g>
    <g opacity="0.25">
        <path d="M169.626 122.676H169.479V122.374C171.537 122.374 177.775 122.374 178.214 121.064C178.331 120.7 177.946 120.191 177.143 119.59C174.965 117.999 173.729 116.893 173.863 115.909C174.012 114.796 175.8 114.022 179.557 112.609C181.57 111.86 182.732 110.768 183.015 109.374C183.454 107.195 181.652 104.561 179.975 102.968C179.675 102.683 179.268 102.3 178.784 101.863L178.985 101.636C179.472 102.076 179.879 102.464 180.178 102.744C181.913 104.394 183.772 107.136 183.309 109.434C183.004 110.941 181.776 112.105 179.662 112.896C176.423 114.103 174.293 114.968 174.16 115.952C174.047 116.777 175.286 117.862 177.32 119.347C178.284 120.05 178.674 120.643 178.506 121.161C178.155 122.221 175.497 122.676 169.626 122.676Z" fill="#5A1C89"/>
    </g>
    <g opacity="0.25">
        <path d="M147.997 148.661L147.925 148.37C150.717 147.68 153.559 147.22 156.424 146.993C158.986 146.817 161.476 146.072 163.717 144.809L163.867 145.078C161.588 146.363 159.054 147.122 156.449 147.3C153.599 147.524 150.773 147.979 147.997 148.661Z" fill="#5A1C89"/>
    </g>
    <path d="M54.321 24.0557C54.0918 24.0577 53.8727 24.1512 53.7113 24.3156C53.55 24.4801 53.4595 24.7023 53.4595 24.9339V26.9335C53.4799 27.1511 53.5799 27.3532 53.7399 27.5003C53.9 27.6474 54.1086 27.7289 54.3249 27.7289C54.5413 27.7289 54.7499 27.6474 54.9099 27.5003C55.07 27.3532 55.17 27.1511 55.1904 26.9335V24.9339C55.1904 24.701 55.0988 24.4776 54.9358 24.3129C54.7727 24.1482 54.5516 24.0557 54.321 24.0557Z" fill="#8D4F98"/>
    <path d="M54.321 50.5928C54.2079 50.5928 54.0959 50.6153 53.9913 50.659C53.8868 50.7028 53.7918 50.7669 53.7118 50.8477C53.6318 50.9285 53.5683 51.0245 53.5251 51.1301C53.4818 51.2357 53.4595 51.3489 53.4595 51.4632V52.0984C53.4595 52.3292 53.5503 52.5506 53.7118 52.7138C53.8734 52.8771 54.0925 52.9688 54.321 52.9688C54.5495 52.9688 54.7687 52.8771 54.9303 52.7138C55.0918 52.5506 55.1826 52.3292 55.1826 52.0984V51.4475C55.1786 51.2194 55.086 51.002 54.9249 50.8421C54.7637 50.6823 54.5469 50.5927 54.321 50.5928Z" fill="#8D4F98"/>
    <path d="M61.2131 46.5479C61.1 46.5479 60.9879 46.5704 60.8834 46.6141C60.7789 46.6579 60.6839 46.722 60.6039 46.8028C60.5239 46.8836 60.4604 46.9796 60.4171 47.0852C60.3738 47.1908 60.3516 47.304 60.3516 47.4183V50.3981C60.3516 50.6289 60.4423 50.8503 60.6039 51.0136C60.7655 51.1768 60.9846 51.2685 61.2131 51.2685C61.4416 51.2685 61.6608 51.1768 61.8224 51.0136C61.9839 50.8503 62.0747 50.6289 62.0747 50.3981V47.3947C62.0686 47.168 61.9752 46.9526 61.8143 46.7944C61.6533 46.6362 61.4377 46.5478 61.2131 46.5479Z" fill="#8D4F98"/>
    <path d="M68.9442 27.3891V16.5677C68.9443 15.9516 68.7607 15.3498 68.4174 14.8406C68.074 14.3315 67.5868 13.9386 67.0192 13.7133L55.3763 9.07894C55.0203 8.93677 54.6414 8.86233 54.2586 8.85938C53.8758 8.86233 53.4969 8.93677 53.1409 9.07894L41.5368 13.7133C40.9707 13.9399 40.4851 14.3332 40.1432 14.8423C39.8013 15.3513 39.6189 15.9525 39.6196 16.5677V41.5353L43.7723 39.8807L54.3207 35.6933L64.8071 39.8807L68.9675 41.5353V27.4204L68.9442 27.3891ZM55.159 32.737V30.0474C55.159 29.8165 55.0682 29.5951 54.9066 29.4319C54.7451 29.2686 54.5259 29.1769 54.2974 29.1769C54.0689 29.1769 53.8498 29.2686 53.6882 29.4319C53.5266 29.5951 53.4359 29.8165 53.4359 30.0474V32.737L42.6778 37.0264V16.5677L53.4203 12.2783V21.5628C53.4203 21.7936 53.5111 22.015 53.6727 22.1782C53.8343 22.3415 54.0534 22.4332 54.2819 22.4332C54.5104 22.4332 54.7296 22.3415 54.8911 22.1782C55.0527 22.015 55.1435 21.7936 55.1435 21.5628V12.2783L65.886 16.5677V37.0264L55.159 32.737Z" fill="#8D4F98"/>
    <path d="M60.3516 43.3365C60.3516 43.5673 60.4423 43.7887 60.6039 43.952C60.7655 44.1152 60.9846 44.2069 61.2131 44.2069C61.4416 44.2069 61.6608 44.1152 61.8224 43.952C61.9839 43.7887 62.0747 43.5673 62.0747 43.3365V41.1173L60.3516 40.4272V43.3365Z" fill="#8D4F98"/>
    <path d="M53.4355 38.3686V47.3943C53.4355 47.6251 53.5263 47.8465 53.6879 48.0098C53.8495 48.173 54.0686 48.2647 54.2971 48.2647C54.5256 48.2647 54.7448 48.173 54.9063 48.0098C55.0679 47.8465 55.1587 47.6251 55.1587 47.3943V38.3608L54.3204 37.9844L53.4355 38.3686Z" fill="#8D4F98"/>
    <path d="M46.5586 49.4661C46.5586 49.6969 46.6494 49.9183 46.8109 50.0816C46.9725 50.2448 47.1917 50.3365 47.4202 50.3365C47.6487 50.3365 47.8678 50.2448 48.0294 50.0816C48.191 49.9183 48.2817 49.6969 48.2817 49.4661V40.4404L46.5586 41.1226V49.4661Z" fill="#8D4F98"/>
</svg>
