<svg width="352" height="276" viewBox="0 0 402 276" fill="none" xmlns="http://www.w3.org/2000/svg">
    <path d="M296.224 246.471H141.965C141.865 246.471 141.769 246.395 141.699 246.26C141.628 246.126 141.588 245.943 141.588 245.753C141.588 245.563 141.628 245.38 141.699 245.245C141.769 245.111 141.865 245.035 141.965 245.035H296.224C296.324 245.035 296.419 245.111 296.49 245.245C296.561 245.38 296.6 245.563 296.6 245.753C296.6 245.943 296.561 246.126 296.49 246.26C296.419 246.395 296.324 246.471 296.224 246.471Z" fill="#171020"/>
    <path d="M197.668 101.543C197.224 101.572 196.779 101.493 196.373 101.31C195.967 101.129 195.61 100.853 195.334 100.503C193.706 98.3208 195.66 93.5929 195.888 93.0583C195.926 92.9707 195.98 92.8913 196.048 92.8236C196.117 92.7571 196.197 92.7045 196.286 92.6695C196.374 92.6333 196.47 92.6158 196.564 92.617C196.659 92.6182 196.753 92.6392 196.842 92.6765C196.929 92.7139 197.008 92.7687 197.075 92.8376C197.141 92.9053 197.193 92.987 197.229 93.0758C197.264 93.1645 197.282 93.259 197.281 93.3548C197.279 93.4505 197.26 93.5451 197.222 93.6326C196.497 95.3498 195.646 98.4982 196.497 99.6294C196.606 99.7718 196.931 100.208 198.121 100.059C198.314 100.034 198.507 100.088 198.66 100.207C198.813 100.327 198.913 100.503 198.936 100.695C198.961 100.888 198.907 101.083 198.788 101.236C198.67 101.39 198.494 101.489 198.302 101.514C198.091 101.537 197.88 101.546 197.668 101.543Z" fill="#171020"/>
    <path d="M187.08 93.3677C186.743 93.3677 186.083 93.1926 185.747 91.9132C185.676 91.6459 185.629 91.3739 185.608 91.0984C185.493 89.6835 185.971 88.6901 186.775 88.6212C187.581 88.5523 188.226 89.4652 188.328 90.8766C188.429 92.2868 187.964 93.2872 187.161 93.3526L187.08 93.3677Z" fill="#171020"/>
    <path d="M203.83 89.9964C203.467 89.9964 202.8 89.8003 202.38 88.5057C202.29 88.2139 202.228 87.9162 202.192 87.6138C202.032 86.3449 202.315 85.0071 203.3 84.8833C204.286 84.7596 204.892 85.9737 205.051 87.2543C205.211 88.5337 204.928 89.8622 203.941 89.9894L203.83 89.9964Z" fill="#171020"/>
    <path d="M203.717 107.747C203.525 107.766 203.333 107.708 203.183 107.585C203.034 107.463 202.938 107.285 202.92 107.093C202.9 106.9 202.958 106.707 203.08 106.557C203.203 106.406 203.379 106.312 203.573 106.292C203.761 106.252 208.201 105.26 209.44 100.542C209.461 100.447 209.501 100.357 209.558 100.277C209.613 100.197 209.686 100.129 209.768 100.078C209.852 100.026 209.944 99.9926 210.04 99.9785C210.137 99.9634 210.236 99.9692 210.33 99.9937C210.424 100.018 210.513 100.061 210.59 100.121C210.667 100.181 210.731 100.255 210.78 100.34C210.828 100.426 210.858 100.52 210.869 100.617C210.879 100.714 210.871 100.812 210.843 100.907C209.368 106.513 204.09 107.663 203.866 107.71C203.817 107.726 203.767 107.738 203.717 107.747Z" fill="#171020"/>
    <path d="M182.937 82.5042C182.937 82.5042 180.002 83.9599 180.896 85.6432C180.896 85.6432 181.117 87.6546 186.196 84.4245C186.419 84.2832 186.607 84.0918 186.743 83.8641C186.879 83.6365 186.959 83.3797 186.979 83.1159C187.037 82.0034 186.562 80.8932 182.937 82.5042Z" fill="#171020"/>
    <path d="M181.85 86.9892C181.543 86.9962 181.237 86.932 180.958 86.8036C180.771 86.716 180.603 86.5888 180.468 86.43C180.333 86.2724 180.233 86.0868 180.175 85.8872C179.941 85.3969 179.906 84.8354 180.077 84.3194C180.538 82.8941 182.375 81.9555 182.586 81.8504H182.611C184.753 80.9048 186.131 80.7367 186.96 81.3158C187.49 81.6788 187.729 82.3162 187.685 83.1742C187.657 83.5525 187.542 83.919 187.348 84.2459C187.152 84.5716 186.885 84.8471 186.566 85.0502C184.518 86.3413 182.966 86.9892 181.85 86.9892ZM181.578 85.4868C181.691 85.5417 182.575 85.851 185.776 83.8104C185.903 83.7299 186.011 83.6202 186.089 83.4918C186.167 83.3622 186.213 83.2162 186.225 83.0645C186.225 82.7668 186.206 82.5555 186.124 82.4971C186.04 82.4388 185.522 82.1341 183.223 83.1625C182.825 83.3633 181.695 84.0649 181.466 84.77C181.436 84.8576 181.426 84.9498 181.434 85.0409C181.443 85.1331 181.471 85.2218 181.516 85.3012L181.582 85.4249L181.578 85.4868Z" fill="#171020"/>
    <path d="M203.84 77.7915C203.84 77.7915 207.103 77.7915 207.044 79.7118C207.044 79.7118 207.726 81.6205 201.753 80.9516C201.489 80.9224 201.236 80.8325 201.014 80.6877C200.792 80.543 200.607 80.348 200.473 80.1192C199.922 79.1515 199.849 77.9514 203.84 77.7915Z" fill="#171020"/>
    <path d="M203.993 81.8213C203.217 81.8142 202.441 81.7652 201.669 81.6753C201.296 81.631 200.937 81.4991 200.622 81.2913C200.308 81.0835 200.046 80.8056 199.856 80.4788C199.429 79.7515 199.371 79.0686 199.687 78.4966C200.172 77.6129 201.499 77.1588 203.823 77.0642H203.851C204.083 77.0642 206.145 77.0969 207.186 78.1767C207.566 78.5655 207.779 79.0873 207.78 79.6313C207.816 79.8367 207.808 80.0468 207.756 80.2476C207.704 80.4496 207.61 80.6375 207.48 80.7986C206.928 81.4792 205.773 81.8213 203.993 81.8213ZM203.855 78.5188C201.318 78.6203 200.977 79.141 200.955 79.1993C200.934 79.2577 200.955 79.497 201.114 79.755C201.19 79.8858 201.295 79.9967 201.42 80.0795C201.547 80.1613 201.69 80.2126 201.84 80.2278C205.602 80.6504 206.265 79.9885 206.345 79.8858L206.323 79.8286V79.6896C206.33 79.5974 206.316 79.5052 206.284 79.4188C206.251 79.3313 206.201 79.253 206.135 79.1877C205.62 78.653 204.297 78.5223 203.855 78.5188Z" fill="#171020"/>
    <path d="M220.509 86.3308C220.35 86.3308 220.195 86.2771 220.07 86.1802C219.943 86.0822 219.852 85.9456 219.811 85.7915C219.769 85.6374 219.78 85.4728 219.84 85.3257C219.902 85.1774 220.009 85.0537 220.148 84.9743C222.369 83.6762 223.573 82.4026 223.537 81.3917C223.5 80.3807 222.286 79.7912 222.274 79.7842C222.102 79.7001 221.97 79.5507 221.907 79.3674C221.844 79.1853 221.856 78.9857 221.939 78.8118C222.024 78.6378 222.173 78.5047 222.355 78.4417C222.537 78.3787 222.736 78.3904 222.91 78.4756C222.992 78.5153 224.913 79.4795 224.986 81.3368C225.043 82.9559 223.664 84.6101 220.879 86.2328C220.767 86.297 220.64 86.3308 220.509 86.3308Z" fill="#171020"/>
    <path fill-rule="evenodd" clip-rule="evenodd" d="M231.59 58.1788C231.59 58.1788 240.431 88.1051 257.828 86.312C257.828 86.312 250.63 81.792 248.484 75.4858C245.765 67.4928 231.59 58.1788 231.59 58.1788Z" fill="#8B38CB"/>
    <path d="M256.36 87.113C249.517 87.113 243.047 82.3852 237.564 73.2925C234.788 68.5915 232.551 63.5893 230.898 58.3827L230.336 56.4697L231.988 57.5608C232.576 57.9462 246.404 67.1031 249.169 75.2385C251.202 81.2213 258.143 85.6398 258.212 85.683L259.999 86.8072L257.9 87.022C257.389 87.0792 256.875 87.1095 256.36 87.113ZM232.975 60.0265C235.218 66.3256 242.924 84.9627 255.635 85.6398C253.29 83.821 249.339 80.25 247.799 75.7183C245.758 69.7215 236.827 62.7976 232.975 60.0265Z" fill="#8B38CB"/>
    <path fill-rule="evenodd" clip-rule="evenodd" d="M235.196 63.4955C235.196 63.4955 231.34 94.4686 247.999 99.8186C247.999 99.8186 243.207 92.7852 243.762 86.1452C244.464 77.7296 235.196 63.4955 235.196 63.4955Z" fill="#8B38CB"/>
    <path d="M249.785 101.158L247.777 100.513C240.681 98.2333 236.135 91.0586 234.631 79.748C233.966 74.3243 233.915 68.8435 234.478 63.4085L234.721 61.4374L235.809 63.0994C236.193 63.6884 245.2 77.6455 244.486 86.207C243.961 92.505 248.553 99.3423 248.6 99.4112L249.785 101.158ZM235.725 65.7465C235.269 72.4204 234.881 92.5926 246.255 98.3244C244.834 95.7246 242.631 90.8543 243.04 86.0833C243.565 79.7701 238.15 69.8346 235.725 65.7465Z" fill="#8B38CB"/>
    <path d="M210.227 46.1523C210.59 41.9518 212.706 29.1871 224.185 27.7979C225.963 27.5676 227.77 27.7859 229.441 28.4329C231.113 29.08 232.598 30.1354 233.761 31.5036C237.237 35.6676 240.169 43.6356 230.604 56.2768C230.604 56.2768 230.739 56.4767 230.967 56.8513C221.09 59.0625 221.709 53.1565 218.787 52.7456C215.703 52.3128 214.282 50.4581 214.282 50.4581C213.453 48.2979 211.601 46.9159 210.227 46.1523Z" fill="#171020"/>
    <path d="M227.031 58.0734C223.08 58.0734 221.594 56.2551 220.412 54.8441C219.735 54.0221 219.325 53.553 218.698 53.4658C215.355 52.9966 213.782 50.9892 213.717 50.9019L213.652 50.8182L213.616 50.7237C212.858 48.7671 211.165 47.5052 209.875 46.7887L209.462 46.5597L209.505 46.0869C209.868 41.9992 212.01 28.5399 224.098 27.0779C225.996 26.8289 227.925 27.0608 229.711 27.7527C231.496 28.4445 233.081 29.5741 234.319 31.0383C238.176 35.6569 240.782 43.7666 231.488 56.3096L231.587 56.4624L232.137 57.3387L231.144 57.5607C229.795 57.8816 228.416 58.0535 227.031 58.0734ZM214.92 50.0727C215.196 50.3854 216.457 51.6728 218.907 52.0147C220.118 52.1856 220.843 53.0585 221.539 53.9057C222.8 55.4295 224.351 57.3097 229.792 56.3387L229.727 56.2405L230.038 55.826C239.118 43.8249 236.777 36.2279 233.217 31.9619C232.13 30.6816 230.741 29.6955 229.175 29.0944C227.61 28.4932 225.918 28.2964 224.257 28.5217C213.659 29.8055 211.438 41.4864 210.98 45.7596C212.398 46.6106 214.077 47.9998 214.92 50.0836V50.0727Z" fill="#171020"/>
    <path d="M234.591 58.1753C233.362 58.1777 232.135 58.0559 230.931 57.8116L230.074 57.6334L230.419 56.8333C230.525 56.5679 233.066 50.3818 237.168 49.4727C238.904 49.0908 240.619 49.6836 242.276 51.2329C243.443 52.3239 243.762 53.6513 243.141 54.8514C242.069 56.8988 238.539 58.1753 234.591 58.1753ZM232.127 56.5424C237.034 57.2698 241.036 55.7351 241.841 54.1713C241.956 53.9458 242.308 53.2621 241.267 52.2875C239.966 51.0656 238.731 50.6074 237.469 50.8837C234.892 51.451 232.917 54.9277 232.127 56.5424Z" fill="#171020"/>
    <path d="M241.399 64.5613C236.863 64.5613 231.485 58.088 231.249 57.808L230.162 56.4661L231.891 56.6225C233.906 56.8043 244.019 57.8552 245.302 60.7246C245.443 61.0457 245.49 61.4004 245.438 61.7475C245.387 62.0946 245.237 62.4195 245.008 62.6848C244.619 63.2518 244.1 63.7176 243.496 64.0438C242.891 64.3701 242.219 64.5476 241.532 64.5613H241.399ZM233.631 58.2881C235.599 60.321 238.871 63.1213 241.399 63.1213H241.474C241.941 63.1109 242.398 62.9878 242.806 62.7624C243.216 62.5371 243.564 62.216 243.823 61.8265C244.044 61.532 243.986 61.401 243.954 61.3283C243.359 59.9718 238.063 58.8263 233.631 58.2881Z" fill="#171020"/>
    <path d="M240.144 86.5957C239.92 88.2347 239.374 89.8118 238.539 91.2383C237.704 92.6649 236.597 93.9104 235.28 94.9062C233.159 96.509 230.506 99.2698 230.872 102.965C231.132 105.93 230.5 108.905 229.06 111.507L226.943 115.434C226.943 115.434 221.506 101.833 222.398 91.0002C222.398 91.0002 233.95 83.8827 229.752 76.7045C225.555 69.5252 218.516 75.9586 218.516 75.9586C218.516 75.9586 205.41 71.9977 203.633 60.1061C203.633 60.1061 171.81 89.6215 169.465 74.3114C167.243 59.8262 178.069 54.1639 188.896 49.8289C188.896 49.8289 195.627 46.3523 209.473 47.4287C211.647 51.5963 217.951 60.4335 231.464 57.6332C234.077 61.9246 241.656 75.4823 240.144 86.5957Z" fill="#171020"/>
    <path d="M226.834 117.144L226.258 115.708C226.034 115.144 220.749 101.818 221.662 90.9385L221.692 90.5743L222.007 90.3817C222.115 90.3128 232.902 83.5514 229.115 77.0713C228.092 75.3226 226.813 74.3186 225.309 74.0887C222.213 73.6124 219.034 76.4678 219.002 76.497L218.698 76.7736L218.306 76.6569C218.175 76.6172 205.706 72.7217 203.162 61.5245C198.984 65.2808 182.658 79.4387 174.064 79.4387C173.398 79.4481 172.733 79.3442 172.1 79.1329C170.255 78.4862 169.128 76.9044 168.751 74.4307C166.442 59.3971 177.779 53.5092 188.599 49.1743C189.193 48.8761 195.986 45.6577 209.531 46.7123L209.93 46.7413L210.118 47.105C212.127 50.9635 218.219 59.6479 231.318 56.9241H231.464H231.868L232.086 57.2877C235.225 62.441 242.362 75.6203 240.861 86.7197C240.623 88.452 240.045 90.1214 239.162 91.6296C238.28 93.139 237.11 94.4582 235.718 95.5135C233.656 97.0731 231.267 99.6226 231.594 102.917C231.867 106.02 231.205 109.132 229.694 111.853L226.834 117.144ZM223.08 91.4183C222.488 99.8222 225.722 109.94 227.067 113.681L228.422 111.162C229.804 108.691 230.412 105.86 230.165 103.037C229.771 99.0693 232.5 96.1088 234.877 94.3274C237.379 92.4293 239.026 89.6136 239.459 86.4978C240.887 75.9518 233.779 62.8591 231.144 58.4515C229.61 58.7476 228.052 58.8999 226.49 58.9061C216.272 58.9061 211.082 51.8545 209.056 48.1305C195.888 47.1851 189.327 50.4508 189.262 50.4835L189.197 50.5125C178.418 54.8294 168.069 60.2153 170.216 74.2089C170.509 76.1362 171.302 77.2966 172.611 77.7589C179.135 80.0458 196.895 65.3941 203.177 59.5752L204.181 58.6442L204.384 60.0043C205.91 70.1873 216.298 74.3875 218.39 75.137C219.375 74.3326 222.377 72.1613 225.552 72.6458C227.512 72.9435 229.144 74.1832 230.398 76.3335C234.512 83.4288 225.004 90.1564 223.08 91.4183Z" fill="#171020"/>
    <path d="M231.464 57.6407C217.951 60.441 211.644 51.6037 209.473 47.4361L210.139 47.487C210.139 47.487 210.139 46.9889 210.227 46.1523C211.601 46.916 213.453 48.298 214.289 50.4582C214.289 50.4582 215.711 52.3129 218.796 52.7457C221.717 53.1567 221.097 59.0627 230.974 56.8515C231.108 57.0625 231.275 57.3243 231.464 57.6407Z" fill="#8B38CB"/>
    <path d="M226.457 58.906C215.9 58.906 210.713 51.3817 208.832 47.7742L208.234 46.6249L209.455 46.705C209.455 46.5267 209.484 46.3195 209.505 46.0831L209.611 44.9921L210.578 45.5303C212.053 46.3486 213.989 47.8032 214.928 50.0979C215.203 50.4108 216.465 51.6982 218.914 52.04C220.125 52.2109 220.85 53.0837 221.546 53.931C222.884 55.5493 224.548 57.5677 230.836 56.1567L231.332 56.0439L231.604 56.4767C231.75 56.7022 231.916 56.9641 232.105 57.284L232.627 58.1605L231.63 58.3678C229.929 58.7235 228.195 58.9039 226.457 58.906ZM210.775 48.2688C212.615 51.3163 216.363 55.8294 222.865 57.1023C221.915 56.5094 221.082 55.7435 220.412 54.8439C219.735 54.0219 219.324 53.5528 218.698 53.4656C215.355 52.9964 213.782 50.989 213.717 50.9017L213.652 50.8181L213.616 50.7235C213.046 49.3717 212.089 48.2192 210.869 47.4104C210.869 47.4686 210.869 47.4977 210.869 47.4977V48.276L210.775 48.2688Z" fill="#8B38CB"/>
    <path d="M212.369 138.295L212.17 138.226C210.622 137.699 202.872 134.902 202.307 131.797C202.202 131.219 202.281 130.342 203.256 129.549C206.051 127.232 204.507 122.418 203.921 120.89C198.254 121.421 192.869 119.777 187.906 115.998C174.071 105.492 174.633 75.2163 174.662 73.9252V73.5621L204.728 52.6511L225.156 65.296L236.33 76.4129L236.08 76.8892C235.983 77.0748 226.294 95.6477 227.65 111.398C228.984 126.945 234.899 131.539 234.946 131.582L236.179 132.505L234.685 132.869L212.369 138.295ZM204.819 119.327L205.04 119.806C205.178 120.104 208.371 127.196 204.181 130.669C203.655 131.105 203.713 131.418 203.732 131.535C204.032 133.175 208.936 135.557 212.43 136.782L233.051 131.76C231.162 129.68 227.273 123.977 226.2 111.508C224.917 96.5676 232.978 79.7772 234.536 76.6755L224.257 66.4447L204.776 54.3895L176.105 74.3326C176.083 77.8394 176.326 105.384 188.791 114.857C193.609 118.519 198.828 120.046 204.308 119.403L204.819 119.327Z" fill="#171020"/>
    <path d="M173.151 71.5217C173.103 71.5193 173.057 71.5077 173.014 71.4878C172.971 71.4668 172.932 71.4388 172.9 71.4026C172.868 71.3676 172.843 71.3255 172.828 71.2812C172.811 71.2357 172.804 71.1878 172.807 71.1399C173.288 61.4448 179.418 56.117 184.471 53.3531C187.88 51.5214 191.569 50.2726 195.388 49.6583C195.435 49.6521 195.483 49.6555 195.53 49.6681C195.576 49.6807 195.619 49.7023 195.656 49.7317C195.694 49.7611 195.726 49.7978 195.749 49.8395C195.773 49.8811 195.788 49.927 195.794 49.9746C195.799 50.0222 195.797 50.0705 195.784 50.1167C195.772 50.1629 195.749 50.2062 195.72 50.2441C195.691 50.2819 195.655 50.3137 195.613 50.3372C195.571 50.3609 195.526 50.3761 195.478 50.3819C191.744 50.9841 188.134 52.207 184.801 54.0004C177.697 57.8917 173.905 63.6704 173.528 71.1761C173.523 71.2718 173.482 71.3629 173.411 71.4271C173.34 71.4913 173.247 71.5263 173.151 71.5217Z" fill="white"/>
    <path d="M218.227 73.3544H218.172C210.778 72.2243 206.001 61.2083 205.801 60.7391C205.781 60.6949 205.769 60.6468 205.767 60.598C205.765 60.5491 205.773 60.5003 205.79 60.4545C205.808 60.4088 205.834 60.3671 205.868 60.3318C205.902 60.2967 205.943 60.2687 205.988 60.2495C206.032 60.2305 206.081 60.2206 206.13 60.2207C206.179 60.2208 206.227 60.2307 206.272 60.25C206.316 60.2691 206.357 60.2973 206.391 60.3327C206.424 60.3679 206.451 60.4097 206.468 60.4555C206.515 60.5646 211.285 71.5659 218.28 72.6388C218.328 72.6458 218.373 72.6621 218.414 72.6866C218.455 72.7111 218.491 72.7438 218.519 72.7823C218.547 72.8209 218.568 72.864 218.579 72.9107C218.59 72.9574 218.592 73.0053 218.585 73.0532C218.57 73.1372 218.527 73.2143 218.461 73.2703C218.395 73.3252 218.312 73.3555 218.227 73.3544Z" fill="white"/>
    <path d="M234.639 44.4686C234.613 44.4721 234.588 44.4721 234.562 44.4686C234.469 44.4485 234.386 44.392 234.335 44.3117C234.283 44.2312 234.264 44.1334 234.283 44.0394C235.334 39.0644 234.74 35.4277 232.518 33.2312C228.784 29.5362 221.587 31.1183 221.514 31.1365C221.422 31.1543 221.325 31.1354 221.247 31.0837C221.168 31.032 221.112 30.9516 221.091 30.8594C221.07 30.7672 221.087 30.6706 221.135 30.5899C221.184 30.5092 221.263 30.451 221.354 30.4273C221.666 30.3546 229.005 28.7362 233.025 32.7111C235.436 35.0932 236.099 38.9553 234.994 44.1885C234.975 44.2686 234.93 44.3399 234.864 44.3908C234.8 44.4417 234.72 44.469 234.639 44.4686Z" fill="white"/>
    <path d="M280.656 199.079C276.454 201.13 269.141 201.698 262.105 201.672C257.031 201.672 252.094 201.326 248.585 201.021C245.487 200.752 243.511 200.505 243.511 200.505L244.715 205.068L247.477 215.541L251.348 230.22L241.833 227.758L239.35 227.031L222.122 222.099L196.602 214.8L176.921 209.171L168.341 194.515L157.065 175.24C157.957 168.695 159.645 163.293 161.777 158.828C162.992 156.261 164.462 153.824 166.167 151.554C174.656 140.281 185.572 138.23 185.572 138.23C194.152 135.978 198.621 133.698 200.912 132.008C203.108 130.404 203.355 129.331 203.355 129.331C216.338 139.31 229.738 130.244 232.047 128.53C232.275 128.36 232.41 128.262 232.41 128.262C234.377 131.97 239.343 134.913 243.609 136.87C245.918 137.93 248.291 138.839 250.717 139.593C253.192 140.349 255.591 141.335 257.883 142.539C262.482 144.98 266.548 148.318 269.843 152.359C280.308 165.028 282.777 182.848 284.153 193.915C284.454 196.227 283.07 197.9 280.656 199.079Z" fill="#FFCE26"/>
    <path d="M169.023 246.003C166.319 244.227 163.687 242.341 161.081 240.434C157.094 237.525 153.165 234.489 149.352 231.343C147.609 229.888 129.018 210.661 123.771 204.795C118.924 199.394 113.422 194.828 108.032 190.041C105.335 187.641 102.659 185.217 100.004 182.767L119.283 165.585C119.283 165.585 116.746 157.355 120.823 155.125C124.9 152.896 133.226 173.934 133.226 173.934C133.226 173.934 134.582 182.353 142.603 183.778C150.625 185.205 161.048 207.392 161.048 207.392L210.528 234.666L207.947 246.003H169.023Z" fill="white"/>
    <path d="M208.516 246.73H168.802L168.62 246.61C165.783 244.748 162.995 242.74 160.646 241.021C156.41 237.922 152.563 234.936 148.884 231.893C146.992 230.329 128.29 210.934 123.223 205.286C119.309 200.922 114.861 197.016 110.559 193.241C109.554 192.361 108.547 191.477 107.547 190.587C104.745 188.099 102.037 185.649 99.5036 183.314L98.9164 182.767L118.452 165.355C117.964 163.505 116.474 156.681 120.472 154.496C120.751 154.348 121.06 154.261 121.376 154.244C121.693 154.228 122.008 154.28 122.302 154.398C126.793 156.028 133.176 171.883 133.901 173.672L133.941 173.825C133.995 174.149 135.325 181.753 142.731 183.07C150.682 184.481 160.436 204.406 161.603 206.842L211.357 234.303L208.516 246.73ZM169.241 245.276H207.36L209.701 235.031L160.495 207.901L160.392 207.686C160.291 207.468 150.037 185.867 142.476 184.51C134.503 183.092 132.708 175.084 132.527 174.152C130.628 169.374 125.085 156.948 121.816 155.761C121.716 155.712 121.605 155.686 121.494 155.686C121.382 155.686 121.271 155.712 121.171 155.761C118.272 157.355 119.323 163.238 119.975 165.374L120.113 165.817L101.084 182.776C103.44 184.957 105.934 187.201 108.514 189.493C109.515 190.38 110.516 191.262 111.519 192.139C115.868 195.944 120.334 199.875 124.31 204.308C129.631 210.239 148.185 229.402 149.813 230.765C153.47 233.791 157.294 236.758 161.509 239.857C163.792 241.519 166.492 243.464 169.241 245.276Z" fill="#171020"/>
    <path d="M107.684 166.4C107.684 166.4 109.359 161.569 111.896 160.842C114.433 160.115 131.516 164.803 133.368 170.375C135.22 175.945 125.909 173 124.36 172.556C122.28 171.916 107.684 166.4 107.684 166.4Z" fill="white"/>
    <path d="M130.537 174.436C128.964 174.436 126.891 174.047 124.299 173.272L124.136 173.222C122.074 172.614 108.025 167.304 107.427 167.079L106.767 166.828L106.999 166.159C107.18 165.628 108.869 160.952 111.675 160.13C113.364 159.635 118.924 160.995 123.118 162.544C126.691 163.864 132.864 166.603 134.035 170.131C134.513 171.585 134.379 172.676 133.639 173.458C133.009 174.109 131.984 174.436 130.537 174.436ZM108.634 165.974C111.533 167.065 122.799 171.309 124.557 171.829L124.724 171.879C130.628 173.647 132.205 172.865 132.607 172.447C132.944 172.084 132.969 171.472 132.672 170.588C131.948 168.468 128.214 165.97 122.628 163.907C117.586 162.045 113.02 161.253 112.092 161.526C110.566 161.97 109.243 164.479 108.634 165.974Z" fill="#171020"/>
    <path d="M104.353 170.916C104.353 170.916 103.03 164.788 108.134 164.664C113.237 164.541 116.691 169.371 116.753 172.713C116.815 176.055 106.862 172.713 106.862 172.713L104.353 170.916Z" fill="white"/>
    <path d="M114.154 174.92C111.341 174.92 107.579 173.719 106.633 173.399L106.528 173.367L103.704 171.345L103.643 171.068C103.614 170.93 102.918 167.621 104.556 165.54C105.361 164.516 106.56 163.977 108.115 163.937C109.294 163.921 110.465 164.141 111.558 164.582C112.652 165.023 113.648 165.678 114.487 166.508C116.3 168.246 117.438 170.617 117.478 172.691C117.493 173.005 117.429 173.319 117.292 173.601C117.155 173.885 116.95 174.129 116.695 174.312C116.104 174.756 115.194 174.92 114.154 174.92ZM107.184 172.054C110.12 173.029 114.676 173.996 115.825 173.145C115.893 173.099 115.947 173.035 115.981 172.959C116.015 172.884 116.027 172.802 116.017 172.72C115.984 171.04 114.988 169.013 113.48 167.555C112.782 166.853 111.95 166.297 111.034 165.922C110.118 165.548 109.137 165.361 108.148 165.374C107.028 165.399 106.223 165.737 105.691 166.421C104.784 167.581 104.864 169.541 105.009 170.476L107.184 172.054Z" fill="#171020"/>
    <path d="M104.353 169.68C104.353 169.68 99.2535 168.563 101.247 177.819C101.247 177.819 109.721 181.132 112.371 177.415C115.02 173.698 107.684 169.934 104.353 169.68Z" fill="white"/>
    <path d="M107.909 179.898C104.647 179.898 101.222 178.586 100.997 178.495L100.634 178.352L100.551 177.989C99.7029 174.051 99.9857 171.338 101.399 169.923C101.801 169.538 102.286 169.25 102.817 169.086C103.348 168.921 103.91 168.883 104.458 168.974C107.119 169.192 111.983 171.389 113.317 174.25C113.602 174.824 113.721 175.467 113.66 176.104C113.599 176.741 113.361 177.35 112.972 177.859C111.842 179.408 109.899 179.898 107.909 179.898ZM101.885 177.276C104.346 178.16 109.986 179.523 111.794 176.992C112.034 176.695 112.181 176.334 112.218 175.952C112.254 175.572 112.179 175.189 112.001 174.85C110.935 172.56 106.6 170.574 104.31 170.403H104.212C103.887 170.348 103.555 170.369 103.24 170.466C102.925 170.563 102.637 170.732 102.4 170.96C101.714 171.647 101.084 173.313 101.874 177.276H101.885Z" fill="#171020"/>
    <path d="M99.2318 176.673C97.463 177.259 96.082 179.131 98.0465 181.67C99.2119 183.168 100.907 184.16 102.78 184.44C104.716 184.743 107.101 184.554 107.931 182.121C108.761 179.688 106.818 178.254 104.984 177.524C103.197 176.819 101.04 176.073 99.2318 176.673Z" fill="white"/>
    <path d="M104.092 185.277C103.616 185.275 103.141 185.235 102.671 185.161C100.614 184.852 98.7532 183.763 97.4739 182.117C96.2198 180.491 96.2523 179.182 96.4988 178.368C96.6971 177.799 97.0278 177.285 97.4634 176.871C97.899 176.455 98.4269 176.151 99.0034 175.981C100.961 175.335 103.164 176.014 105.252 176.848C108.228 178.036 109.424 179.993 108.616 182.356C107.963 184.266 106.379 185.277 104.092 185.277ZM99.4601 177.364C99.1037 177.461 98.7751 177.64 98.5011 177.889C98.2272 178.138 98.0155 178.447 97.8834 178.792C97.6732 179.487 97.9269 180.331 98.6083 181.226C99.6606 182.577 101.191 183.47 102.882 183.721C105.227 184.084 106.691 183.47 107.231 181.902C107.43 181.321 108.036 179.549 104.694 178.218C102.882 177.469 100.975 176.862 99.4601 177.364Z" fill="#171020"/>
    <path d="M186.972 204.686H158.841C158.713 204.687 158.587 204.655 158.475 204.59C158.363 204.526 158.271 204.434 158.207 204.323L141.425 173.989C141.361 173.878 141.329 173.753 141.329 173.626C141.329 173.497 141.361 173.372 141.425 173.262C141.489 173.152 141.58 173.06 141.691 172.995C141.8 172.932 141.926 172.898 142.052 172.898H170.183C170.311 172.897 170.438 172.93 170.548 172.994C170.66 173.057 170.753 173.151 170.817 173.262L187.598 203.592C187.662 203.702 187.696 203.828 187.696 203.955C187.696 204.082 187.662 204.209 187.598 204.319C187.535 204.43 187.444 204.523 187.334 204.587C187.225 204.651 187.099 204.686 186.972 204.686ZM159.265 203.231H185.725L169.751 174.357H143.288L159.265 203.231Z" fill="#171020"/>
    <path d="M170.19 173.629H142.059L138.468 177.229H166.602L170.19 173.629Z" fill="white"/>
    <path d="M166.602 177.957H138.468C138.325 177.957 138.185 177.914 138.066 177.833C137.948 177.754 137.856 177.64 137.801 177.507C137.746 177.375 137.732 177.229 137.759 177.088C137.787 176.948 137.856 176.819 137.957 176.717L141.545 173.117C141.613 173.048 141.693 172.994 141.781 172.958C141.87 172.921 141.964 172.902 142.059 172.902H170.19C170.333 172.902 170.473 172.944 170.593 173.023C170.711 173.104 170.804 173.217 170.86 173.349C170.915 173.482 170.929 173.628 170.902 173.769C170.874 173.911 170.806 174.04 170.704 174.142L167.116 177.745C167.049 177.813 166.968 177.867 166.88 177.903C166.792 177.939 166.697 177.958 166.602 177.957ZM140.219 176.502H166.316L168.458 174.357H142.361L140.219 176.502Z" fill="#171020"/>
    <path d="M186.972 203.967L183.383 207.564L166.602 177.226L170.19 173.629L186.972 203.967Z" fill="white"/>
    <path d="M183.383 208.29H183.282C183.171 208.275 183.065 208.234 182.973 208.171C182.88 208.108 182.803 208.025 182.749 207.927L165.971 177.571C165.894 177.434 165.865 177.275 165.886 177.119C165.908 176.962 165.979 176.817 166.09 176.705L169.679 173.109C169.758 173.029 169.855 172.97 169.961 172.933C170.067 172.898 170.181 172.888 170.291 172.903C170.402 172.918 170.508 172.959 170.601 173.023C170.693 173.086 170.769 173.17 170.824 173.269L187.606 203.606C187.682 203.744 187.711 203.904 187.689 204.059C187.667 204.216 187.593 204.36 187.483 204.471L183.895 208.068C183.828 208.138 183.748 208.193 183.661 208.23C183.574 208.269 183.479 208.289 183.383 208.29ZM167.504 177.353L183.55 206.367L186.087 203.838L170.038 174.826L167.504 177.353Z" fill="#171020"/>
    <path d="M183.383 207.563H155.25L138.468 177.229H166.602L183.383 207.563Z" fill="#F7F7F8"/>
    <path d="M183.383 208.291H155.25C155.121 208.292 154.995 208.258 154.883 208.194C154.772 208.131 154.68 208.039 154.616 207.927L137.837 177.571C137.773 177.46 137.739 177.336 137.739 177.207C137.739 177.08 137.773 176.954 137.837 176.844C137.9 176.734 137.991 176.642 138.1 176.579C138.209 176.515 138.334 176.481 138.461 176.48H166.595C166.723 176.479 166.848 176.513 166.96 176.576C167.072 176.64 167.165 176.732 167.229 176.844L184.025 207.21C184.089 207.321 184.123 207.447 184.122 207.575C184.122 207.704 184.088 207.83 184.023 207.941C183.959 208.051 183.867 208.143 183.755 208.207C183.644 208.27 183.519 208.302 183.391 208.301L183.383 208.291ZM155.677 206.835H182.137L166.16 177.957H139.7L155.677 206.835Z" fill="#171020"/>
    <path d="M181.223 195.289C181.038 195.29 180.861 195.22 180.726 195.093C180.591 194.967 180.51 194.794 180.498 194.609C180.168 189.572 183.3 173.207 183.42 172.512C183.456 172.323 183.565 172.156 183.725 172.047C183.883 171.939 184.078 171.898 184.268 171.934C184.457 171.97 184.623 172.08 184.731 172.24C184.839 172.4 184.88 172.596 184.844 172.785C184.811 172.956 181.629 189.653 181.945 194.515C181.95 194.61 181.939 194.706 181.907 194.796C181.877 194.887 181.828 194.971 181.765 195.044C181.703 195.115 181.626 195.174 181.541 195.216C181.455 195.258 181.362 195.283 181.266 195.289H181.223Z" fill="#171020"/>
    <path d="M242.239 199.515L246.683 225.637C246.683 225.637 198.682 212.142 197.82 210.665C197.041 209.323 188.312 191.391 179.121 191.391C178.665 191.397 178.217 191.515 177.815 191.734C177.415 191.954 177.075 192.269 176.824 192.652C176.574 193.035 176.422 193.473 176.379 193.93C176.337 194.385 176.408 194.845 176.583 195.268C177.229 196.798 179.697 199.631 181.176 202.86C183.55 208.025 169.114 207.382 156.725 199.984C155.354 199.166 154.155 198.101 152.763 197.326C148.646 195.031 141.165 191.652 141.632 197.661C142.186 204.904 157.794 210.662 157.794 210.662C157.794 210.662 151.269 209.145 154.122 217.317C154.122 217.317 149.773 219.265 153.662 223.907C153.662 223.907 151.161 228.831 155.79 231.616C160.418 234.402 172.354 236.165 177.443 238.392C182.531 240.617 216.853 250.181 219.546 251.396C222.238 252.61 269.148 273.217 277.756 257.058C286.365 240.9 285.074 202.508 283.493 194.198C283.483 194.191 261.149 207.254 242.239 199.515Z" fill="white"/>
    <path d="M284.172 193.97C284.172 193.97 282.813 194.274 282.842 194.547C282.892 194.995 282.96 195.471 282.965 195.503C284.563 206.381 284.98 241.926 277.107 256.709C268.705 272.474 220.321 250.946 219.839 250.724C218.64 250.186 211.978 248.221 203.547 245.738C193.314 242.723 180.585 238.973 177.725 237.737C175.468 236.748 171.981 235.871 168.302 234.943C163.59 233.755 158.696 232.526 156.167 231.001C152.179 228.606 154.224 224.423 154.311 224.248L154.528 223.819L154.22 223.455C153.071 222.081 152.604 220.873 152.829 219.865C153.108 218.612 154.412 218 154.422 217.993L155.032 217.72L154.811 217.087C153.948 214.629 153.898 212.869 154.662 211.996C155.176 211.415 156.011 211.269 156.663 211.269C156.989 211.267 157.315 211.299 157.635 211.363L158.048 209.971C157.895 209.916 142.871 204.294 142.357 197.606C142.266 196.446 142.505 195.675 143.063 195.314C144.401 194.456 147.895 195.442 152.415 197.962C153.128 198.378 153.815 198.836 154.474 199.334C155.075 199.766 155.695 200.214 156.355 200.606C166.569 206.704 178.381 208.37 181.364 205.697C181.871 205.239 182.611 204.221 181.85 202.566C180.977 200.788 179.96 199.086 178.809 197.475C178.23 196.687 177.714 195.855 177.269 194.984C177.137 194.67 177.085 194.327 177.116 193.987C177.149 193.649 177.265 193.322 177.454 193.038C177.635 192.754 177.886 192.521 178.182 192.361C178.479 192.2 178.809 192.116 179.146 192.118C184.325 192.118 190.622 198.61 196.873 210.392C197.037 210.698 197.152 210.916 197.236 211.028C197.509 211.498 197.922 212.207 222.416 219.394C234.377 222.91 246.411 226.303 246.531 226.328L247.617 226.637C247.617 226.637 242.979 198.999 242.942 198.999L242.543 198.842L241.293 198.347L245.758 224.626C227.324 219.433 200.434 211.575 198.381 210.203L198.114 209.705C191.517 197.245 184.945 190.664 179.121 190.664C178.544 190.666 177.976 190.812 177.468 191.088C176.96 191.364 176.529 191.761 176.211 192.244C175.892 192.727 175.698 193.283 175.646 193.86C175.592 194.437 175.682 195.018 175.906 195.551C176.384 196.513 176.945 197.431 177.584 198.294C178.69 199.834 179.669 201.464 180.509 203.166C180.872 203.988 180.632 204.366 180.368 204.621C178.098 206.668 167.08 205.348 157.083 199.373C156.475 199.009 155.909 198.598 155.308 198.166C154.602 197.639 153.866 197.153 153.103 196.712C147.812 193.762 144.165 192.889 142.266 194.111C141.223 194.783 140.762 196.002 140.896 197.747C141.334 203.46 150.106 208.134 154.738 210.215C154.297 210.397 153.901 210.676 153.579 211.028C152.491 212.247 152.378 214.255 153.245 216.997C152.334 217.581 151.679 218.491 151.411 219.542C151.096 220.921 151.567 222.434 152.81 224.045C151.958 226.11 151.585 229.962 155.413 232.268C158.127 233.9 163.118 235.177 167.942 236.37C171.568 237.286 175 238.148 177.149 239.09C180.092 240.377 192.336 243.984 203.141 247.167C210.854 249.44 218.139 251.585 219.252 252.084C220.701 252.746 245.897 263.943 263.334 263.943C270.188 263.943 275.846 262.212 278.394 257.429C287.304 240.649 285.625 201.621 284.172 193.97Z" fill="#171020"/>
    <path d="M242.485 201.693C242.313 201.695 242.144 201.637 242.012 201.526C241.879 201.415 241.789 201.26 241.76 201.089C239.727 189.135 241.738 176.466 241.76 176.339C241.792 176.147 241.896 175.977 242.052 175.865C242.208 175.752 242.403 175.706 242.592 175.736C242.782 175.767 242.952 175.873 243.065 176.029C243.177 176.186 243.223 176.381 243.193 176.571C243.17 176.695 241.198 189.135 243.193 200.845C243.224 201.036 243.18 201.229 243.068 201.386C242.958 201.543 242.79 201.65 242.602 201.682C242.563 201.689 242.525 201.693 242.485 201.693Z" fill="#171020"/>
    <path d="M163.456 213.428C163.37 213.43 163.285 213.413 163.206 213.382L155.906 210.683C155.812 210.654 155.726 210.605 155.651 210.542C155.577 210.477 155.516 210.398 155.473 210.31C155.43 210.222 155.406 210.126 155.401 210.028C155.395 209.929 155.41 209.831 155.444 209.738C155.478 209.646 155.53 209.562 155.598 209.491C155.665 209.42 155.745 209.362 155.836 209.323C155.926 209.284 156.022 209.263 156.12 209.262C156.218 209.262 156.316 209.282 156.405 209.319L163.706 212.018C163.867 212.077 164 212.19 164.086 212.338C164.171 212.486 164.202 212.66 164.173 212.828C164.142 212.998 164.054 213.151 163.922 213.26C163.792 213.37 163.626 213.43 163.456 213.428Z" fill="#171020"/>
    <path d="M159.273 220.415C156.71 220.415 154.561 218.891 153.571 217.8C153.507 217.729 153.458 217.645 153.427 217.554C153.394 217.463 153.38 217.367 153.386 217.271C153.391 217.175 153.415 217.081 153.457 216.994C153.498 216.907 153.556 216.83 153.628 216.766C153.699 216.702 153.783 216.652 153.872 216.62C153.963 216.587 154.058 216.575 154.155 216.579C154.25 216.585 154.345 216.608 154.431 216.65C154.517 216.692 154.595 216.751 154.659 216.822C154.796 216.971 157.899 220.305 161.658 218.368C161.829 218.279 162.028 218.263 162.211 218.322C162.395 218.38 162.546 218.51 162.634 218.682C162.723 218.853 162.739 219.053 162.68 219.237C162.622 219.421 162.492 219.573 162.321 219.662C161.38 220.155 160.334 220.414 159.273 220.415Z" fill="#171020"/>
    <path d="M158.751 226.448C154.321 226.448 153.079 224.375 153.017 224.266C152.938 224.102 152.924 223.913 152.978 223.738C153.031 223.562 153.149 223.414 153.307 223.323C153.465 223.231 153.651 223.202 153.829 223.243C154.007 223.282 154.163 223.388 154.267 223.539C154.314 223.604 155.901 225.888 162.202 224.631C162.39 224.592 162.587 224.631 162.747 224.738C162.908 224.845 163.018 225.011 163.057 225.201C163.095 225.391 163.056 225.588 162.95 225.749C162.843 225.909 162.676 226.021 162.488 226.059C161.258 226.312 160.006 226.442 158.751 226.448Z" fill="#171020"/>
    <path d="M130.82 189.438C130.727 189.438 130.634 189.419 130.548 189.383C119.533 184.928 122.936 175.276 122.984 175.178C123.056 175.006 123.191 174.868 123.362 174.793C123.534 174.718 123.728 174.713 123.902 174.778C124.077 174.842 124.221 174.972 124.302 175.14C124.385 175.308 124.399 175.502 124.343 175.68C124.22 176.022 121.403 184.117 131.091 188.045C131.247 188.109 131.375 188.225 131.454 188.373C131.533 188.52 131.56 188.692 131.527 188.856C131.496 189.022 131.408 189.17 131.278 189.278C131.149 189.385 130.988 189.444 130.82 189.445V189.438Z" fill="#171020"/>
    <path d="M242.888 203.075L246.683 225.637L236.581 222.238L242.888 203.075Z" fill="#171020"/>
    <path d="M198.208 245.446L186.145 246.188L178.345 239.446L198.208 245.446Z" fill="#171020"/>
    <path d="M204.569 119.417C204.569 119.417 211.568 117.264 213.105 116.265C215.203 114.897 213.638 119.446 205.348 123.384L204.569 119.417Z" fill="#171020"/>
    <g opacity="0.25">
        <path d="M262.239 201.796L261.971 201.548C267.093 196.013 265.734 189.761 264.533 184.249C263.226 178.24 262.098 173.052 269.434 170.411C271.92 169.517 274.081 169.742 275.861 171.083C280.678 174.72 281.769 185.936 281.185 195.223L280.822 195.202C281.403 186.008 280.344 174.92 275.643 171.374C273.969 170.112 271.92 169.902 269.557 170.753C262.522 173.298 263.616 178.332 264.889 184.172C266.106 189.773 267.484 196.119 262.239 201.796Z" fill="#171020"/>
    </g>
    <g opacity="0.25">
        <path d="M222.057 217.996C222.01 214.305 222.228 208.879 222.819 205.079C223.587 200.13 224.188 191.14 219.596 186.532C215.972 182.925 208.534 180.666 202.274 181.285C198.929 181.612 194.34 182.903 191.474 187.179C188.936 190.983 188.734 195.966 190.973 200.188L190.654 200.362C188.348 196.021 188.549 190.907 191.172 186.976C194.119 182.583 198.816 181.259 202.238 180.921C208.592 180.298 216.167 182.597 219.85 186.278C224.323 190.748 224.127 199.005 223.174 205.123C222.586 208.901 222.372 214.302 222.42 217.975L222.057 217.996Z" fill="#171020"/>
    </g>
    <g opacity="0.25">
        <path d="M188.646 181.543C184.485 181.543 180.151 179.295 177.675 177.757C176.504 177.03 174.195 175.753 171.85 175.331L171.912 174.967C174.318 175.4 176.674 176.702 177.863 177.444C180.839 179.288 186.533 182.172 191.273 180.823C193.688 180.128 195.595 178.4 196.935 175.684C201.122 167.203 194.036 162.857 187.193 158.653C184.065 156.733 181.11 154.919 179.327 152.769C179.157 152.58 175.082 147.951 176.109 144.371C176.551 142.834 177.881 141.732 180.056 141.099C182.996 140.309 186.122 140.608 188.86 141.942C192.212 143.506 198.266 145.51 201.143 141.361C203.105 138.531 202.014 134.749 200.752 132.077L201.078 131.924C202.38 134.683 203.499 138.596 201.441 141.567C198.41 145.932 192.162 143.885 188.708 142.27C186.048 140.973 183.013 140.681 180.158 141.448C178.11 142.04 176.863 143.056 176.457 144.469C175.485 147.853 179.56 152.471 179.599 152.529C181.35 154.638 184.279 156.435 187.382 158.347C194.043 162.435 201.597 167.076 197.262 175.847C195.874 178.662 193.891 180.455 191.372 181.175C190.485 181.426 189.568 181.55 188.646 181.543Z" fill="#171020"/>
    </g>
    <g opacity="0.25">
        <path d="M173.326 166.006C171.9 166.006 168.439 165.123 161.65 158.973L161.893 158.704C170.954 166.912 173.945 165.559 173.974 165.545H174.021C176.533 165.014 177.899 163.807 177.968 162.05C178.098 158.828 173.6 153.973 166.112 151.75L166.213 151.387C173.869 153.66 178.465 158.689 178.331 162.05C178.254 163.959 176.758 165.323 174.116 165.883C173.863 165.977 173.594 166.019 173.326 166.006Z" fill="#171020"/>
    </g>
    <g opacity="0.25">
        <path d="M223.402 176.447C219.19 176.447 214.188 174.757 212.14 174.062C209.027 173.01 205.131 170.669 204.399 167.516C203.917 165.468 204.79 163.308 206.986 161.104C210.36 157.707 212.543 155.384 212.144 154.067C211.807 152.976 209.608 152.318 206.211 151.638C204.605 151.318 203.782 150.805 203.703 150.074C203.463 147.954 210.012 144.841 217.334 141.568C218.227 141.168 219.049 140.8 219.752 140.477C224.102 138.466 226.277 136.215 227.208 135.051C227.652 134.475 228.128 133.926 228.633 133.404C230.235 131.778 231.296 130.17 231.873 128.49L232.213 128.607C231.619 130.342 230.532 131.992 228.893 133.658C228.395 134.171 227.928 134.711 227.49 135.276C226.556 136.466 224.327 138.764 219.904 140.804C219.18 141.132 218.378 141.498 217.483 141.895C212.377 144.183 203.833 148.012 204.072 150.063C204.133 150.602 204.902 151.035 206.294 151.31C209.918 152.039 212.111 152.704 212.503 153.99C212.946 155.446 211.155 157.465 207.252 161.388C205.149 163.501 204.311 165.545 204.761 167.461C205.461 170.45 209.241 172.706 212.267 173.731C215.127 174.698 223.826 177.64 227.788 175.084C228.926 174.356 229.6 173.193 229.742 171.654C229.91 169.434 229.941 167.205 229.832 164.981C229.756 161.995 229.676 158.911 230.064 155.635C230.494 152.167 231.682 148.836 233.543 145.882C235.404 142.927 237.892 140.421 240.828 138.543C241.67 138.001 242.569 137.396 243.496 136.75L243.703 137.047C242.771 137.699 241.87 138.302 241.025 138.866C238.134 140.712 235.685 143.174 233.852 146.078C232.019 148.982 230.847 152.257 230.419 155.668C230.031 158.916 230.112 161.988 230.187 164.959C230.295 167.199 230.265 169.444 230.096 171.68C229.927 173.335 229.212 174.589 227.977 175.378C226.74 176.167 225.153 176.447 223.402 176.447Z" fill="#171020"/>
    </g>
    <g opacity="0.25">
        <path d="M237.165 217.727C236.319 217.734 235.479 217.574 234.695 217.254C233.91 216.935 233.197 216.465 232.594 215.87C229.444 212.76 229.085 206.744 231.848 203.246C236.128 197.824 239.665 188.532 237.919 179.993C237.871 179.767 237.802 179.473 237.715 179.112C237.113 176.568 235.856 171.291 236.712 165.388C237.799 158.038 241.786 152.361 248.56 148.51C251.777 146.707 254.853 144.664 257.763 142.397L257.987 142.681C255.066 144.963 251.977 147.023 248.748 148.841C238.306 154.754 234.714 164.915 238.074 179.026C238.165 179.389 238.234 179.692 238.28 179.917C240.17 189.165 236.154 198.383 232.119 203.467C229.466 206.832 229.807 212.618 232.845 215.607C235.689 218.414 239.985 217.833 244.631 214.011L244.86 214.291C241.706 216.898 239.144 217.727 237.165 217.727Z" fill="#171020"/>
    </g>
    <g opacity="0.25">
        <path d="M248.724 201.141L248.448 200.904C254.348 193.994 256.324 186.95 254.857 178.117C252.648 164.904 263.092 158.184 263.555 157.904L263.595 157.878C265.175 156.886 267.825 155.22 269.72 152.245L270.025 152.441C268.085 155.486 265.397 157.169 263.787 158.187L263.75 158.209C263.313 158.486 253.066 165.083 255.229 178.058C256.701 187.005 254.704 194.121 248.724 201.141Z" fill="#171020"/>
    </g>
</svg>