<svg width="245" height="90" viewBox="0 0 245 90" fill="none" xmlns="http://www.w3.org/2000/svg">
<g clip-path="url(#clip0_3352_15929)">
<path fill-rule="evenodd" clip-rule="evenodd" d="M121.73 7.9759C121.583 7.89393 121.418 7.84993 121.249 7.84761H112.03C111.552 7.84761 111.139 8.18338 111.043 8.65067L110.775 9.95345C110.052 9.50283 109.302 9.09342 108.532 8.72709C107.213 7.99489 106.527 7.9282 105.053 7.85271L89.7267 7.84761C88.9398 7.83928 88.1547 7.92032 87.3863 8.0889C86.823 8.20422 86.2778 8.39596 85.767 8.65947L84.697 8.09075C84.0604 7.65819 74.3151 7.92449 74.0841 7.96617C73.9416 7.89068 73.7829 7.84993 73.6215 7.84761H64.3574C63.8795 7.84761 63.467 8.18338 63.3709 8.65067L63.0916 10.0095C62.2406 9.48616 61.3655 9.00219 60.47 8.55898C59.7123 8.17273 58.0489 7.8967 56.9646 7.85085L41.5641 7.84715C38.2786 7.82955 35.6937 9.23005 34.5272 12.2177C34.2298 12.9365 34.0057 13.6835 33.8581 14.4472L31.74 24.7666H22.3163L26.9131 2.37947C27.1339 1.30316 25.2306 0.78492 24.4423 0.249545C23.9801 -0.0639921 14.7425 0.00686638 13.8312 0.00686638C13.3528 0.00686638 12.9408 0.342634 12.8448 0.809929L5.82731 34.9679C5.7192 35.4945 6.04539 36.0127 6.56738 36.1442L8.52033 37.1826C8.66603 37.2599 8.82889 37.3007 8.99361 37.3007H32.3849C32.8628 37.3007 33.2753 36.9654 33.3714 36.4981L33.5533 35.6153L35.4162 36.5865C35.9257 36.8533 36.4741 37.0376 37.0411 37.1325L38.8525 37.2965L54.259 37.3007C55.0441 37.309 55.8273 37.2284 56.5938 37.0598C57.3636 36.9042 58.0962 36.6032 58.7523 36.1729L60.651 37.1826C60.7967 37.2599 60.9595 37.3007 61.1243 37.3007H70.515C70.9934 37.3007 71.4059 36.9644 71.502 36.4962L74.9453 19.6449L80.909 19.6462L79.0859 28.5272C78.6187 30.6358 78.6159 33.4646 80.5698 34.929C80.6807 35.0123 83.318 36.4693 83.531 36.5837C84.0535 36.857 84.6172 37.0436 85.2 37.1372L87.0174 37.2965L106.639 37.3002C107.014 37.3002 107.358 37.0927 107.531 36.7611L108.323 37.1821C108.469 37.2594 108.632 37.3002 108.796 37.3002H118.187C118.666 37.3002 119.079 36.964 119.174 36.4957L122.612 19.6703L126.819 19.6546L123.693 34.9688C123.586 35.4949 123.912 36.0127 124.433 36.1442L126.386 37.1826C126.532 37.2599 126.695 37.3007 126.86 37.3007H136.202C136.443 37.3007 136.676 37.2145 136.859 37.0575C137.352 37.3771 160.923 37.3007 161.937 37.3007C162.416 37.3007 162.829 36.9635 162.924 36.4948L164.662 27.9168C164.879 26.8423 162.978 26.3245 162.19 25.7892C162.01 25.6359 161.781 25.5497 161.544 25.546H157.426L166.57 17.7294C166.74 17.5839 166.857 17.3857 166.902 17.1667L168.321 10.2188C168.54 9.14344 166.638 8.6252 165.85 8.08983C165.379 7.77027 141.811 7.84669 140.837 7.84669C140.359 7.84669 139.947 8.18199 139.851 8.64929L139.556 10.0757L137.242 8.79702C135.899 7.99535 134.9 7.91754 133.403 7.85039C132.141 7.79389 122.205 7.88559 121.728 7.97497L121.73 7.9759ZM45.4668 25.3608L46.6231 19.6671L50.386 19.6541L49.2275 25.3529L45.4668 25.3608ZM140.713 19.3522C140.88 19.449 141.068 19.5031 141.262 19.5101H145.283L139.75 24.0381L140.713 19.3522Z" fill="white"/>
<path fill-rule="evenodd" clip-rule="evenodd" d="M122.5 4.9043C54.845 4.9043 0 23.9541 0 47.4527C0 70.9513 54.845 90.0012 122.5 90.0012C190.155 90.0012 245 70.9513 245 47.4527C245 23.9541 190.155 4.9043 122.5 4.9043Z" fill="#ED1C24"/>
<path fill-rule="evenodd" clip-rule="evenodd" d="M119.866 6.48242C62.7635 6.48242 16.4727 22.5608 16.4727 42.3947C16.4727 62.2286 62.7635 78.307 119.866 78.307C176.969 78.307 223.26 62.2286 223.26 42.3947C223.26 22.5608 176.969 6.48242 119.866 6.48242Z" fill="#0000FF"/>
<path fill-rule="evenodd" clip-rule="evenodd" d="M121.548 9.04466L121.245 8.88303L121.251 8.85293H112.032L111.363 12.1022C111.024 11.4432 110.509 10.9162 109.855 10.5683L108.022 9.59393C107.615 9.323 107.138 9.12571 106.599 9.01687C106.059 8.90109 105.507 8.84598 104.955 8.85293H89.7232C89.0087 8.84505 88.2955 8.91869 87.5972 9.07245C86.9059 9.21787 86.3064 9.47166 85.7881 9.80882L84.0463 8.88257L84.0523 8.85246H75.5974C75.0248 8.83811 74.4536 8.89878 73.8978 9.03216L73.6166 8.88257L73.6231 8.85246H64.359L63.6843 12.1319C63.3331 11.4775 62.8028 10.9606 62.1476 10.6123L60.3515 9.65738C60.2387 9.58143 60.1223 9.51196 60.0021 9.44897C59.572 9.22297 59.1075 9.0706 58.6273 8.99835C58.0515 8.89507 57.4673 8.84644 56.8822 8.85293H41.5597C40.8479 8.84505 40.138 8.92008 39.4439 9.07662C37.503 9.49714 36.1913 10.8397 35.467 12.583C35.1905 13.2471 34.9831 13.9376 34.8471 14.6439L32.5193 25.9849L32.1759 25.8025L32.1819 25.7724H21.0832L25.9278 2.17787L23.7911 1.04182L23.7971 1.01172H13.8319L6.81445 35.1697H6.87709L8.9943 36.2955H32.3856L32.8677 33.9535C33.1169 34.1939 33.4022 34.4018 33.7191 34.5676C33.8365 34.6287 33.9562 34.6852 34.0778 34.7357L35.8832 35.6958C36.2948 35.9144 36.7407 36.0593 37.2084 36.1413C37.7796 36.2506 38.3605 36.302 38.9419 36.2955H54.2643C54.9775 36.3034 55.6893 36.2298 56.3857 36.0765C57.4998 35.8398 58.3739 35.3244 59.0565 34.6278L58.9451 35.1697H59.0077L61.125 36.2955H70.5157L74.1033 18.7361L74.1339 18.6397L82.1434 18.6416L80.0698 28.7447C79.8559 29.6358 79.7789 30.5541 79.8411 31.4688C79.9088 32.5104 80.3993 33.4913 81.2117 34.154C81.5207 34.406 81.8543 34.5977 82.2074 34.7408L83.9985 35.693C84.4207 35.9176 84.8782 36.063 85.3594 36.1441C85.9347 36.2506 86.5189 36.3011 87.104 36.2946H106.639L106.849 35.2591L108.797 36.2946H118.187L121.775 18.7384L121.798 18.6675C122.701 18.6532 125.734 18.6471 128.053 18.6439L124.681 35.1687H124.743L126.86 36.2946H136.202L136.337 35.6397L137.568 36.2946H161.937L163.676 27.7166L161.539 26.5805L161.545 26.5504H154.703L165.916 16.9651L167.335 10.0172L165.198 8.88118L165.204 8.85107H140.838L140.12 12.3315C139.753 11.4928 139.165 10.9574 138.533 10.6211L136.731 9.66294C136.263 9.34616 135.695 9.12108 135.024 9.00159C134.461 8.89507 133.889 8.84505 133.316 8.85107H123.214C122.651 8.8432 122.091 8.90758 121.545 9.04235L121.548 9.04466ZM93.901 18.4823L93.9279 18.3906C96.4024 18.3734 97.9132 18.3697 99.6685 18.3688L99.6443 18.4823H93.901ZM44.236 26.3693L45.8006 18.6671V18.6657C47.3207 18.6508 49.585 18.6471 51.6205 18.6458L50.0527 26.3573C49.9399 26.3675 46.614 26.3693 44.236 26.3693ZM106.199 26.8116L106.205 26.7815H92.1666L92.2098 26.5754H108.387L108.128 27.8365L106.199 26.8111V26.8116ZM139.999 17.8334L141.263 18.5059H148.101L138.195 26.6129L139.999 17.8334H139.999Z" fill="black"/>
<path fill-rule="evenodd" clip-rule="evenodd" d="M36.7844 34.6186H52.113C52.7876 34.6264 53.4613 34.5565 54.1202 34.4111C54.9559 34.2332 55.8091 33.8243 56.4235 33.2213C57.4739 32.1895 58.0382 30.6852 58.324 29.2727L61.2207 15.1589C61.3608 14.5137 61.4425 13.857 61.4648 13.1975C61.5228 11.2996 60.4983 9.87691 58.5411 9.54578C57.9945 9.44713 57.4401 9.40082 56.8847 9.40684H41.5562C40.8857 9.39897 40.2162 9.46983 39.5619 9.61803C38.7365 9.79865 37.8966 10.2081 37.2902 10.8046C36.2393 11.8378 35.6755 13.3393 35.3897 14.7532L32.493 28.867C32.1473 30.5046 31.9515 32.5285 33.4423 33.7266C33.9365 34.1175 34.5234 34.3745 35.1461 34.4727C35.6857 34.5764 36.2346 34.6255 36.7844 34.619V34.6186ZM50.4746 26.8552C50.4486 26.8686 50.4208 26.8774 50.3925 26.8825C50.2454 26.9089 50.096 26.9223 49.9466 26.9228H41.1915L43.1245 17.4055C43.1537 17.2666 43.1876 17.1286 43.2261 16.9919C43.4428 16.9572 52.1167 16.9665 52.5273 16.9665L50.5943 26.5092C50.5767 26.6009 50.5289 26.7908 50.4751 26.8556L50.4746 26.8552Z" fill="white"/>
<path fill-rule="evenodd" clip-rule="evenodd" d="M71.4333 17.4569C71.5971 16.9308 71.5669 17.0373 71.5794 17.0183C71.6778 16.9738 71.7859 16.9544 71.8936 16.9618L81.7924 16.9646L83.3718 9.40634H75.5916C74.6311 9.38133 73.679 9.58603 72.8141 10.0038L72.9408 9.40634H64.8121L59.627 34.6181H67.9273L71.4337 17.4573L71.4333 17.4569Z" fill="white"/>
<path fill-rule="evenodd" clip-rule="evenodd" d="M84.9484 34.6181H104.05L105.528 27.335H89.1114L91.2276 17.2092C91.2378 17.1675 91.364 16.7335 91.3719 16.7155C91.6151 16.6821 100.148 16.69 100.592 16.69L100.093 19.0357H90.9817L89.8278 24.8975H106.902L108.94 14.9713C109.07 14.3493 109.136 13.7158 109.139 13.0804C109.154 11.2969 108.21 9.89406 106.493 9.56061C105.99 9.45177 105.475 9.40036 104.959 9.40685H89.7196C89.045 9.39897 88.3713 9.46891 87.7124 9.61433C86.8768 9.79217 86.0235 10.2011 85.4091 10.8041C84.3587 11.836 83.7944 13.3402 83.5086 14.7527L80.6119 28.8665C80.2667 30.5028 80.0704 32.5289 81.5612 33.7261C82.0637 34.1226 82.6614 34.3805 83.2947 34.475C83.8399 34.5764 84.3935 34.6246 84.9479 34.6181H84.9484Z" fill="white"/>
<path fill-rule="evenodd" clip-rule="evenodd" d="M137.613 15.1519C137.745 14.5146 137.811 13.8663 137.812 13.2156C137.828 11.3181 136.936 9.89263 134.931 9.54714C134.401 9.44618 133.861 9.39894 133.321 9.40496H123.211C122.247 9.3906 121.293 9.6092 120.431 10.0418L120.566 9.40496H112.482L107.297 34.6167H115.597L119.104 17.4564C119.121 17.3888 119.237 17.0229 119.255 16.9956C119.465 16.953 128.554 16.9623 128.963 16.9623L125.36 34.6167H133.613L137.613 15.1519Z" fill="white"/>
<path fill-rule="evenodd" clip-rule="evenodd" d="M136.066 34.618H159.347L160.869 27.1051H149.742L163.276 15.5357L164.528 9.40625H141.291L139.762 16.8269H151.024L137.405 27.973L136.066 34.618Z" fill="white"/>
<path fill-rule="evenodd" clip-rule="evenodd" d="M29.796 34.6169L31.503 26.3246H18.0347L23.1182 1.56445H14.2842L7.49414 34.6169H29.796Z" fill="white"/>
<path fill-rule="evenodd" clip-rule="evenodd" d="M28.9749 33.6123H8.72852L15.1057 2.57031H21.8841L16.8002 27.3305H30.268L28.9749 33.6123Z" fill="#ED1C24"/>
<path fill-rule="evenodd" clip-rule="evenodd" d="M36.779 33.6114C35.5304 33.6114 34.6311 33.3896 34.0808 32.9464C33.531 32.5032 33.2559 31.8076 33.2559 30.86C33.2559 30.4321 33.3301 29.836 33.479 29.0719L36.3776 14.9493C36.7047 13.3904 37.2471 12.2441 38.0053 11.5105C38.7635 10.777 39.9453 10.4102 41.5507 10.4102H56.8913C58.1993 10.4102 59.1212 10.632 59.6562 11.0752C60.1912 11.5184 60.4589 12.214 60.4589 13.1616C60.4589 13.5895 60.3847 14.1856 60.2357 14.9497L57.3372 29.0723C57.01 30.6312 56.4676 31.7775 55.7095 32.5111C54.9513 33.2446 53.7547 33.6114 52.1195 33.6114H36.779ZM53.5022 17.2422C53.5616 16.9365 53.5913 16.7531 53.5913 16.692C53.5913 16.203 53.19 15.9584 52.3873 15.9584H43.5575C43.0819 15.9584 42.7473 16.0422 42.5538 16.2108C42.3608 16.3789 42.2193 16.723 42.1302 17.2427L40.2125 26.6882C40.1828 26.8104 40.1606 26.9174 40.1457 27.0091C40.1309 27.1008 40.1234 27.1925 40.1234 27.2842C40.1234 27.7121 40.4506 27.9261 41.1043 27.9261H49.9341C50.4691 27.9261 50.8556 27.8344 51.0936 27.651C51.3317 27.4676 51.495 27.1467 51.5841 26.6882L53.5018 17.2427L53.5022 17.2422Z" fill="#ED1C24"/>
<path fill-rule="evenodd" clip-rule="evenodd" d="M60.8594 33.6114L65.6311 10.4102H71.696L71.161 12.9319C71.7257 12.0455 72.3576 11.4036 73.0564 11.0062C73.7552 10.6088 74.595 10.4102 75.5759 10.4102H82.1312L80.9717 15.9584H71.9637C71.5178 15.9584 71.1832 16.0422 70.9605 16.2108C70.7373 16.3789 70.5666 16.723 70.4478 17.2427L67.1033 33.6119H60.8598L60.8594 33.6114Z" fill="#ED1C24"/>
<path fill-rule="evenodd" clip-rule="evenodd" d="M84.9407 33.6114C83.6624 33.6114 82.7483 33.3896 82.198 32.9464C81.6482 32.5032 81.373 31.8076 81.373 30.86C81.373 30.4321 81.4473 29.836 81.5962 29.0719L84.4948 14.9493C84.8219 13.3904 85.3643 12.2441 86.1225 11.5105C86.8807 10.777 88.0773 10.4102 89.7124 10.4102H104.964C106.094 10.4102 106.904 10.632 107.394 11.0752C107.885 11.5184 108.13 12.1835 108.13 13.0699C108.13 13.6201 108.071 14.1856 107.952 14.7663L106.079 23.8909H91.0501L91.8083 20.0395H100.906L101.575 16.9217C101.605 16.7689 101.619 16.5702 101.619 16.3257C101.619 16.0812 101.553 15.913 101.419 15.8213C101.285 15.7296 101.04 15.6838 100.683 15.6838H91.7196C91.2144 15.6838 90.8724 15.7681 90.6938 15.9362C90.5156 16.1043 90.3666 16.4484 90.2479 16.968L88.152 26.9637C88.1223 27.1165 88.1 27.2467 88.0852 27.3537C88.0703 27.4607 88.0629 27.5598 88.0629 27.6519C88.0629 27.927 88.1372 28.1104 88.2861 28.2021C88.4346 28.2938 88.7023 28.3397 89.0888 28.3397H104.296L103.225 33.6128H84.9412L84.9407 33.6114Z" fill="#ED1C24"/>
<path fill-rule="evenodd" clip-rule="evenodd" d="M126.592 33.611L129.937 17.2417C129.996 16.9361 130.026 16.7527 130.026 16.6916C130.026 16.2025 129.654 15.958 128.911 15.958H119.591C119.145 15.958 118.818 16.0418 118.61 16.2104C118.401 16.3785 118.238 16.7226 118.119 17.2422L114.775 33.6114H108.531L113.303 10.4102H119.323L118.788 12.9319C119.859 11.2507 121.33 10.4102 123.203 10.4102H133.326C134.545 10.4102 135.429 10.6241 135.98 11.0521C136.53 11.48 136.805 12.1983 136.805 13.207C136.805 13.7877 136.745 14.3685 136.627 14.9493L132.791 33.611H126.593H126.592Z" fill="#ED1C24"/>
<path fill-rule="evenodd" clip-rule="evenodd" d="M137.297 33.6114L138.323 28.5221L153.842 15.8209H140.998L142.113 10.4102H163.296L162.36 14.9956L147.018 28.109H159.639L158.524 33.6114H137.297Z" fill="#ED1C24"/>
<path fill-rule="evenodd" clip-rule="evenodd" d="M124.375 53.5576C124.368 53.5521 124.361 53.547 124.354 53.5414C124.108 53.3571 123.822 53.2334 123.519 53.1792C123.274 53.132 123.024 53.1093 122.774 53.1121H115.74L115.714 53.2339L115.563 53.1533L115.572 53.1121H111.751L111.47 54.4473L109.039 53.1547L109.036 53.1116H104.899L99.3369 63.8562L99.5299 62.9299L97.8846 62.0551L97.9138 61.9134H99.8352L100.477 58.9243L98.7402 58.0009L98.7699 57.8591L98.5087 57.7202L99.1439 54.7085L96.2184 53.1528L96.2272 53.1116H90.5205C90.2129 53.1005 89.9053 53.1306 89.6055 53.201C88.4641 53.4696 87.841 54.3542 87.6294 55.4578L87.2531 57.2427L87.202 57.6882C87.1765 57.9439 87.2266 58.2204 87.331 58.4543C86.9881 58.7544 86.7608 59.1642 86.6884 59.6135L86.1553 62.1417C85.965 63.0295 86.0305 64.0419 86.9329 64.5157C87.0248 64.5638 87.1213 64.6046 87.2215 64.6379L89.8965 66.0602C90.0783 66.157 90.2816 66.2246 90.4741 66.2598C90.7122 66.3052 90.9539 66.3265 91.1961 66.3237H93.697C94.1666 66.3265 94.6983 66.2232 95.0978 65.9815L95.1688 66.0194C95.6138 66.2561 96.3817 66.3376 96.8935 66.3242H98.8223L99.1248 64.8737L101.853 66.3242H105.704L106.408 64.8973L109.092 66.3242H116.046L116.069 66.2172L116.27 66.3242H120.035L120.263 65.2363L122.309 66.3242H126.072L126.965 61.9888C127.01 61.6387 126.9 61.1154 126.719 60.8491C127.073 60.4753 127.303 60.0011 127.377 59.4917L127.897 56.9491C127.99 56.2878 127.86 55.5579 127.289 55.1309C127.209 55.0711 127.125 55.0179 127.038 54.9711L124.376 53.5558L124.375 53.5576Z" fill="black"/>
<path fill-rule="evenodd" clip-rule="evenodd" d="M74.951 53.5372L74.2281 53.1528L74.2369 53.1116H70.5654L70.1612 55.0401L69.9793 54.708L67.0729 53.1625L67.045 53.1116H63.843L63.8189 53.226L63.6811 53.1528L63.6899 53.1116H51.414L51.2836 53.7326L50.1965 53.1547L50.1932 53.1116H46.0558L45.4327 54.3153L43.2459 53.1528L43.2547 53.1116H34.2054L34.1901 53.1834L34.1325 53.1528L34.1414 53.1116H30.3208L30.0698 54.3046L27.903 53.1524L27.9118 53.1111H24.0912L21.6367 64.7824H21.7226L24.6216 66.3237H28.386L28.6333 65.1446L30.8512 66.3237H34.6146L34.6267 66.2667L34.7339 66.3237H46.8604L47.5642 64.8968L50.248 66.3237H54.0063L53.9901 66.1088L54.3942 66.3237H58.1582L58.3837 65.252L60.3993 66.3237H64.1632L64.1841 66.2237L64.3724 66.3237H67.9721L68.5442 63.6098L69.2175 64.7824H69.2852L72.1842 66.3237H74.7098L74.9042 65.3988L76.1537 66.0634C76.3254 66.1546 76.5179 66.2209 76.7258 66.2589C76.9652 66.3047 77.2084 66.326 77.452 66.3237H84.3901L85.9366 58.9683L84.4759 58.1916H86.0057L86.7253 54.7075L83.7999 53.1519L83.8082 53.1107H76.6618C76.3546 53.0972 76.0465 53.1255 75.7472 53.1954C75.4433 53.2663 75.1789 53.383 74.9506 53.5363L74.951 53.5372ZM43.1456 58.7349L42.0413 58.1476H43.4495L43.1456 58.7349Z" fill="black"/>
<path fill-rule="evenodd" clip-rule="evenodd" d="M92.5027 39.36C92.2758 39.1868 92.0007 39.0636 91.6945 39.0071C91.455 38.9612 91.2114 38.9399 90.9674 38.9427H84.0228L83.285 42.4356H83.2939L81.5664 50.614H81.6522L84.5513 52.1553H88.3161L89.0033 48.8847H91.3868L91.0231 50.614H91.1089L94.0079 52.1553H102.283L102.444 51.3948L103.364 51.8843C103.719 52.0728 104.168 52.1613 104.683 52.1557H109.686C110.353 52.178 110.91 52.0325 111.353 51.7431L112.129 52.1557H115.504L115.637 51.5268L116.82 52.1557H119.61L119.888 51.6986L120.748 52.1557H124.11L124.126 52.0765L124.275 52.1557H131.736C132.33 52.1956 132.919 52.0446 133.419 51.7283L134.223 52.1557H137.987L138.008 52.0557L138.196 52.1557H141.796L142.368 49.4418L143.041 50.6144H143.109L146.008 52.1557H148.533L148.728 51.2309L149.977 51.8954C150.149 51.9867 150.341 52.0529 150.549 52.0909C150.789 52.1367 151.032 52.158 151.275 52.1557H158.214L159.76 44.8003L158.299 44.0237H159.829L160.549 40.5396L157.623 38.9839L157.632 38.9427H150.485C150.178 38.9293 149.87 38.9575 149.571 39.0275C149.267 39.0983 149.002 39.215 148.774 39.3683L148.051 38.9839L148.06 38.9427H144.388L143.984 40.8712L143.802 40.5391L140.896 38.9936L140.868 38.9427H137.666L137.642 39.0571L137.504 38.9839L137.513 38.9427H133.692L133.478 39.9639L132.394 39.3878C132.387 39.3822 132.38 39.3771 132.373 39.3716C132.127 39.1872 131.842 39.0636 131.539 39.0094C131.293 38.9622 131.043 38.9395 130.793 38.9422H123.741L123.722 39.0339L123.627 38.9835L123.635 38.9422H119.917L118.387 41.4218L118.222 40.5386L115.303 38.9862L115.295 38.9422H111.598L111.585 39.0066L111.541 38.9835L111.55 38.9422H107.819L107.56 40.1714L105.326 38.983L105.334 38.9418H101.514L99.8232 47.0437H98.8479L100.215 40.5382L97.2898 38.9825L97.2986 38.9413H93.4781L93.3008 39.7833L92.5023 39.3586L92.5027 39.36Z" fill="black"/>
<path fill-rule="evenodd" clip-rule="evenodd" d="M194.871 65.9249L195.622 66.3242H199.222L199.794 63.6102L200.467 64.7829H200.535L203.434 66.3242H205.959L205.982 66.2167L206.184 66.3242H209.948L209.969 66.2241L210.157 66.3242H213.757L214.329 63.6102L215.002 64.7829H215.07L217.969 66.3242H220.494L220.689 65.3993L221.938 66.0639C222.11 66.1551 222.303 66.2213 222.51 66.2593C222.75 66.3052 222.993 66.3265 223.237 66.3242H230.175L231.721 58.9688L230.261 58.1921H231.79L232.51 54.708L229.585 53.1523L229.593 53.1111H222.446C222.139 53.0977 221.831 53.1259 221.532 53.1959C221.228 53.2667 220.964 53.3834 220.735 53.5367L220.012 53.1523L220.021 53.1111H216.35L215.945 55.0396L215.764 54.7075L212.857 53.1621L212.829 53.1111H209.627L209.603 53.2255L209.465 53.1523L209.474 53.1111H205.654L205.628 53.2325L205.477 53.1519L205.486 53.1107H201.814L201.41 55.0391L201.228 54.7071L198.322 53.1616L198.294 53.1107H195.092L194.9 54.024L193.967 53.5279C193.74 53.3547 193.465 53.2315 193.159 53.175C192.919 53.1292 192.676 53.1079 192.432 53.1107H187.43C187.123 53.0972 186.815 53.1255 186.516 53.1954C186.203 53.2681 185.932 53.3895 185.7 53.5497L184.952 53.1519L184.96 53.1107H169.144L168.874 54.3982L167.6 53.7211C167.582 53.7076 167.563 53.6942 167.545 53.6817C166.897 53.2422 166.222 53.0866 165.448 53.1111H159.016L158.994 53.2181L158.87 53.1523L158.879 53.1111H155.207L154.803 55.0396L154.621 54.7075L151.715 53.1621L151.687 53.1111H148.485L148.293 54.0244L147.36 53.5284C147.133 53.3552 146.858 53.232 146.552 53.1755C146.312 53.1297 146.069 53.1084 145.825 53.1111H140.823C140.516 53.0977 140.208 53.1259 139.909 53.1959C139.655 53.2552 139.428 53.3464 139.227 53.4645L138.64 53.1523L138.648 53.1111H132.053C130.385 53.0759 129.473 54.0082 129.189 55.5013L127.731 62.5103C127.67 62.8484 127.705 63.2735 127.807 63.6005C127.928 63.9858 128.219 64.3295 128.581 64.5101C128.672 64.5555 128.767 64.5958 128.865 64.63L131.544 66.0546C131.895 66.2413 132.338 66.3297 132.845 66.3237H139.155L139.321 65.5345L140.316 66.0634C140.487 66.1546 140.68 66.2209 140.888 66.2588C141.127 66.3047 141.37 66.326 141.614 66.3237H146.618C147.274 66.3459 147.825 66.2047 148.264 65.9245L149.016 66.3237H152.615L153.187 63.6098L153.861 64.7824H153.928L156.827 66.3237H159.353L159.372 66.2311L159.546 66.3237H166.27C167.079 66.3626 167.876 66.1537 168.557 65.729L169.676 66.3237H173.44L173.664 65.259L175.666 66.3237H179.43L179.656 65.252L181.671 66.3237H185.435L185.634 65.3775L186.924 66.0634C187.096 66.1546 187.288 66.2209 187.496 66.2588C187.736 66.3047 187.979 66.326 188.222 66.3237H193.226C193.883 66.3459 194.433 66.2047 194.873 65.9245L194.871 65.9249ZM135.06 61.2112L135.7 58.2069L135.705 58.1921C135.705 58.1921 136.428 58.1921 137.391 58.1921L136.756 61.2149L135.06 61.2112Z" fill="black"/>
<path fill-rule="evenodd" clip-rule="evenodd" d="M85.458 46.5859L84.7708 49.8565H82.5L84.0688 42.4298H86.3396L85.8468 44.7404H88.969C89.1583 44.7404 89.2901 44.7005 89.3648 44.6204C89.4395 44.5403 89.5017 44.3851 89.5513 44.1554L89.9847 42.1598C90.0046 42.0598 90.0144 41.9898 90.0144 41.9496C90.0144 41.8393 89.9819 41.7671 89.9174 41.7319C89.8525 41.6967 89.7508 41.6796 89.6112 41.6796H84.2182L84.6362 39.6992H90.9702C91.4783 39.6992 91.8416 39.7891 92.0606 39.9692C92.2796 40.1494 92.3891 40.4291 92.3891 40.8093C92.3891 40.9094 92.3817 41.0117 92.3668 41.1169C92.352 41.222 92.3344 41.3396 92.3144 41.4693L91.6124 44.8149C91.4829 45.4151 91.2639 45.8602 90.9549 46.1501C90.6463 46.44 90.168 46.5855 89.5207 46.5855H85.4575L85.458 46.5859Z" fill="white"/>
<path fill-rule="evenodd" clip-rule="evenodd" d="M98.7388 49.857H91.957L94.0933 39.6992H96.3636L94.6607 47.8012H99.1721L98.7388 49.857Z" fill="white"/>
<path fill-rule="evenodd" clip-rule="evenodd" d="M101.727 49.857C101.209 49.857 100.84 49.7671 100.621 49.587C100.402 49.4068 100.293 49.1271 100.293 48.7469C100.293 48.6468 100.298 48.5417 100.308 48.4319C100.318 48.3217 100.338 48.2069 100.368 48.0869L102.13 39.6997H104.401L102.803 47.2917C102.773 47.4117 102.758 47.502 102.758 47.5617C102.758 47.672 102.792 47.7442 102.862 47.7794C102.932 47.8146 103.046 47.8317 103.206 47.8317H106.194C106.393 47.8317 106.537 47.7993 106.627 47.734C106.717 47.6692 106.786 47.5214 106.836 47.2913L108.435 39.6992H110.616L108.853 48.0865C108.724 48.6867 108.502 49.1317 108.188 49.4217C107.875 49.7116 107.399 49.8565 106.762 49.8565H101.727L101.727 49.857Z" fill="white"/>
<path fill-rule="evenodd" clip-rule="evenodd" d="M118.698 49.857L119.997 43.6904L116.247 49.857H114.47L113.26 43.6904L111.96 49.857H110.078L112.214 39.6992H114.664L115.979 46.7661L120.341 39.6992H122.701L120.565 49.857H118.698Z" fill="white"/>
<path fill-rule="evenodd" clip-rule="evenodd" d="M122.223 49.8575L123.806 42.3108H126.077L125.734 43.9461H128.9C129.119 43.9461 129.272 43.9109 129.356 43.841C129.441 43.771 129.503 43.6511 129.543 43.4807L129.796 42.2501C129.826 42.1501 129.841 42.0602 129.841 41.9801C129.841 41.8602 129.807 41.7777 129.737 41.7323C129.667 41.6874 129.548 41.6647 129.378 41.6647H123.956L124.359 39.6992H130.797C131.315 39.6992 131.689 39.7918 131.918 39.9766C132.147 40.1619 132.261 40.4444 132.261 40.8242C132.261 40.914 132.254 41.0094 132.239 41.1094C132.224 41.2095 132.206 41.3146 132.186 41.4244L131.783 43.3297C131.694 43.7497 131.534 44.0572 131.305 44.2522C131.076 44.4472 130.788 44.5648 130.439 44.6047C130.728 44.6348 130.964 44.7098 131.149 44.8297C131.333 44.9497 131.425 45.1447 131.425 45.4147C131.425 45.4647 131.423 45.5147 131.418 45.5647C131.413 45.6147 131.405 45.6648 131.395 45.7148L130.887 48.1305C130.768 48.7107 130.551 49.1433 130.238 49.4281C129.924 49.7134 129.448 49.8556 128.811 49.8556H122.223L122.223 49.8575ZM129.094 45.9412C129.104 45.8912 129.112 45.8463 129.117 45.806C129.122 45.7662 129.124 45.731 129.124 45.7009C129.124 45.5707 129.084 45.486 129.004 45.4457C128.925 45.4059 128.8 45.3855 128.631 45.3855H125.434L124.911 47.8609H128.108C128.337 47.8609 128.499 47.8234 128.593 47.7484C128.688 47.6733 128.76 47.5159 128.81 47.276L129.094 45.9408L129.094 45.9412Z" fill="white"/>
<path fill-rule="evenodd" clip-rule="evenodd" d="M132.172 49.857L134.308 39.6992H136.579L134.443 49.857H132.172Z" fill="white"/>
<path fill-rule="evenodd" clip-rule="evenodd" d="M143.481 49.857L139.657 43.1954L138.253 49.857H136.146L138.283 39.6992H140.419L143.735 45.7606L145.005 39.6992H147.126L144.99 49.857H143.481Z" fill="white"/>
<path fill-rule="evenodd" clip-rule="evenodd" d="M148.32 49.857C147.812 49.857 147.447 49.7671 147.223 49.587C146.999 49.4068 146.887 49.1317 146.887 48.7617C146.887 48.5718 146.916 48.3467 146.976 48.0865L148.365 41.4698C148.495 40.8695 148.714 40.4245 149.023 40.1346C149.332 39.8446 149.81 39.6992 150.457 39.6992H156.702L156.284 41.7249H151.025C150.826 41.7249 150.689 41.7601 150.614 41.8301C150.54 41.9 150.478 42.0501 150.428 42.2802L149.338 47.4566C149.318 47.5566 149.308 47.6215 149.308 47.6516C149.308 47.7516 149.338 47.8192 149.397 47.854C149.457 47.8892 149.562 47.9063 149.711 47.9063H152.953L153.445 45.5958H151.444L151.787 43.9605H155.91L154.671 49.857H148.322H148.32Z" fill="white"/>
<path fill-rule="evenodd" clip-rule="evenodd" d="M31.0702 64.0264H28.7994L29.681 59.8254H25.7222L24.8411 64.0264H22.5703L24.7065 53.8691H26.9773L26.1254 57.9201H30.0842L30.9357 53.8691H33.2064L31.0702 64.0264Z" fill="white"/>
<path fill-rule="evenodd" clip-rule="evenodd" d="M32.6855 64.0264L34.2543 56.5997H36.5998L36.2411 58.2503H39.961L39.6172 59.8708H35.8973L35.4491 62.0012H40.6027L40.1846 64.0269H32.6855V64.0264ZM34.4037 55.8495L34.8218 53.8691H42.3208L41.9028 55.8495H34.4037Z" fill="white"/>
<path fill-rule="evenodd" clip-rule="evenodd" d="M47.9802 64.0264L47.8758 62.4509H44.2306L43.4539 64.0264H41.2578L46.5163 53.8691H49.4891L50.2658 64.0264H47.9802ZM47.4874 55.9097L45.0375 60.7707H47.8011L47.4874 55.9097Z" fill="white"/>
<path fill-rule="evenodd" clip-rule="evenodd" d="M54.6138 64.0264H52.343L54.0612 55.8648H51.6113L52.0294 53.8691H59.2148L58.7967 55.8648H56.332L54.6138 64.0264Z" fill="white"/>
<path fill-rule="evenodd" clip-rule="evenodd" d="M58.3477 64.0264L60.4839 53.8691H62.7542L60.6184 64.0264H58.3477Z" fill="white"/>
<path fill-rule="evenodd" clip-rule="evenodd" d="M69.6571 64.0264L65.8328 57.3648L64.4283 64.0264H62.3223L64.4585 53.8691H66.5947L69.9109 59.9306L71.1808 53.8691H73.3018L71.166 64.0264H69.6571Z" fill="white"/>
<path fill-rule="evenodd" clip-rule="evenodd" d="M74.4982 64.0264C73.9901 64.0264 73.6245 63.9366 73.4004 63.7564C73.1763 63.5763 73.0645 63.3012 73.0645 62.9311C73.0645 62.7413 73.0941 62.5162 73.154 62.2559L74.5432 55.6392C74.6727 55.039 74.8917 54.5939 75.2007 54.304C75.5092 54.0141 75.9876 53.8691 76.6349 53.8691H82.8793L82.4613 55.8949H77.2028C77.0038 55.8949 76.8669 55.9301 76.7922 56C76.7175 56.0699 76.6553 56.22 76.6057 56.4501L75.5153 61.6265C75.4953 61.7266 75.4856 61.7914 75.4856 61.8215C75.4856 61.9215 75.5153 61.9892 75.5751 62.0239C75.635 62.0591 75.7394 62.0762 75.8888 62.0762H79.1302L79.623 59.7657H77.6213L77.9647 58.1304H82.0877L80.848 64.0269H74.4991L74.4982 64.0264Z" fill="white"/>
<path fill-rule="evenodd" clip-rule="evenodd" d="M93.9306 64.0264C93.4424 64.0264 93.049 63.9787 92.7506 63.8838C92.4518 63.7889 92.2676 63.6064 92.198 63.3364C92.0486 63.5967 91.8468 63.7764 91.593 63.8764C91.3391 63.9764 91.0575 64.0264 90.7489 64.0264H88.2392C87.7311 64.0264 87.3678 63.9366 87.1488 63.7564C86.9298 63.5763 86.8203 63.2966 86.8203 62.9163C86.8203 62.7561 86.8454 62.5514 86.895 62.3013L87.4328 59.7509C87.5126 59.3706 87.6843 59.0983 87.9483 58.933C88.2123 58.7681 88.5185 58.6704 88.867 58.6403C88.5784 58.6102 88.3543 58.5277 88.1947 58.3925C88.0355 58.2573 87.9557 58.0447 87.9557 57.7548C87.9557 57.6446 87.9706 57.5149 88.0007 57.3648L88.3742 55.5943C88.4939 55.014 88.7204 54.5814 89.054 54.2966C89.3876 54.0113 89.8683 53.8691 90.4956 53.8691H95.291L94.9175 55.6397H90.9438C90.7545 55.6397 90.6176 55.6823 90.5332 55.767C90.4487 55.8523 90.3815 56.0046 90.3314 56.2246L90.0325 57.62C90.0228 57.6598 90.0149 57.695 90.0103 57.7251C90.0052 57.7552 90.0028 57.7853 90.0028 57.815C90.0028 57.9252 90.0353 57.9975 90.0998 58.0327C90.1648 58.0679 90.2715 58.085 90.4209 58.085H92.9005L93.1246 57.0198H94.917L94.6929 58.085H96.6199L96.2914 59.6152H94.3644L93.9612 61.5357C93.9315 61.646 93.9162 61.7358 93.9162 61.8058C93.9162 61.9257 93.9561 62.0035 94.0359 62.0382C94.1157 62.0734 94.24 62.0906 94.4094 62.0906H95.6794L95.2761 64.026H93.9315L93.9306 64.0264ZM92.5715 59.6156H90.0919C89.9026 59.6156 89.7657 59.6531 89.6813 59.7282C89.5968 59.8032 89.5342 59.9306 89.4948 60.1107L89.196 61.5061C89.176 61.5561 89.1663 61.6038 89.1663 61.6488V61.7613C89.1663 61.9813 89.3059 62.0915 89.5848 62.0915H92.0495L92.5724 59.6161L92.5715 59.6156Z" fill="white"/>
<path fill-rule="evenodd" clip-rule="evenodd" d="M106.824 64.0264L106.72 62.4509H103.074L102.298 64.0264H100.102L105.36 53.8691H108.333L109.11 64.0264H106.824ZM106.331 55.9097L103.881 60.7707H106.645L106.331 55.9097Z" fill="white"/>
<path fill-rule="evenodd" clip-rule="evenodd" d="M110.23 64.0264L112.367 53.8691H114.637L112.501 64.0264H110.23Z" fill="white"/>
<path fill-rule="evenodd" clip-rule="evenodd" d="M120.254 64.025L120.941 60.709C120.951 60.6589 120.959 60.6163 120.963 60.5816C120.968 60.5464 120.971 60.514 120.971 60.4839C120.971 60.3236 120.831 60.244 120.553 60.244H117.281L116.49 64.025H114.219L115.787 56.5982H118.058L117.64 58.5638H120.747C120.966 58.5638 121.113 58.5286 121.188 58.4586C121.263 58.3887 121.325 58.2484 121.374 58.0386L121.733 56.388C121.743 56.338 121.751 56.293 121.755 56.2528C121.761 56.2129 121.763 56.1777 121.763 56.1476C121.763 56.0277 121.728 55.9476 121.658 55.9077C121.589 55.8679 121.469 55.8475 121.3 55.8475H115.937L116.355 53.8672H122.779C123.296 53.8672 123.67 53.9598 123.899 54.1446C124.128 54.3299 124.242 54.6124 124.242 54.9921C124.242 55.082 124.235 55.1774 124.22 55.2774C124.205 55.3774 124.188 55.4826 124.168 55.5923L123.705 57.7977C123.595 58.3178 123.396 58.6856 123.107 58.9005C122.818 59.1153 122.5 59.2432 122.151 59.283C122.47 59.3029 122.739 59.3756 122.958 59.5007C123.177 59.6257 123.287 59.8485 123.287 60.1685V60.326C123.287 60.3811 123.276 60.4385 123.257 60.4987L122.525 64.0245H120.254V64.025Z" fill="white"/>
<path fill-rule="evenodd" clip-rule="evenodd" d="M129.89 64.026C129.382 64.026 129.018 63.9361 128.799 63.756C128.58 63.5758 128.471 63.2961 128.471 62.9159C128.471 62.8158 128.476 62.7135 128.486 62.6083C128.496 62.5032 128.515 62.3856 128.545 62.2559L129.935 55.6392C130.064 55.039 130.286 54.5939 130.6 54.304C130.913 54.0141 131.389 53.8691 132.026 53.8691H137.718L137.3 55.8949H132.728C132.489 55.8949 132.327 55.9324 132.243 56.0074C132.159 56.0824 132.091 56.2348 132.041 56.465L130.98 61.4163C130.971 61.4663 130.963 61.5089 130.958 61.5436C130.953 61.5788 130.951 61.6163 130.951 61.6562C130.951 61.7664 130.986 61.846 131.055 61.8961C131.125 61.9461 131.254 61.9711 131.444 61.9711H136.044L135.611 64.0264H129.89V64.026Z" fill="white"/>
<path fill-rule="evenodd" clip-rule="evenodd" d="M138.658 64.0264C138.15 64.0264 137.785 63.9366 137.561 63.7564C137.336 63.5763 137.225 63.3012 137.225 62.9311C137.225 62.7413 137.254 62.5162 137.314 62.2559L138.703 55.6392C138.833 55.039 139.052 54.5939 139.361 54.304C139.669 54.0141 140.148 53.8691 140.795 53.8691H145.829C146.337 53.8691 146.701 53.959 146.92 54.1391C147.139 54.3193 147.248 54.599 147.248 54.9793C147.248 55.0793 147.241 55.1844 147.226 55.2942C147.211 55.4044 147.194 55.5193 147.174 55.6392L145.784 62.2559C145.655 62.8561 145.433 63.3012 145.119 63.5911C144.806 63.881 144.33 64.0264 143.693 64.0264H138.658ZM144.738 56.4349C144.748 56.3848 144.756 56.3399 144.76 56.2996C144.765 56.2598 144.768 56.2246 144.768 56.1945C144.768 55.9643 144.593 55.8495 144.245 55.8495H141.421C141.222 55.8495 141.08 55.8893 140.995 55.9694C140.911 56.0495 140.844 56.2047 140.794 56.4344L139.718 61.4908C139.698 61.5909 139.688 61.6557 139.688 61.6858C139.688 61.8961 139.833 62.0007 140.122 62.0007H142.945C143.184 62.0007 143.354 61.9609 143.453 61.8808C143.553 61.8007 143.623 61.6705 143.663 61.4908L144.738 56.4344V56.4349Z" fill="white"/>
<path fill-rule="evenodd" clip-rule="evenodd" d="M154.298 64.0264L150.473 57.3648L149.069 64.0264H146.963L149.099 53.8691H151.235L154.552 59.9306L155.821 53.8691H157.943L155.807 64.0264H154.298Z" fill="white"/>
<path fill-rule="evenodd" clip-rule="evenodd" d="M157.496 64.025L159.065 56.6131H161.305L160.155 62.0446H163.337C163.865 62.0446 164.199 61.7195 164.338 61.0693L165.235 56.8382C165.264 56.7182 165.28 56.6029 165.28 56.4931C165.28 56.0731 165.066 55.8628 164.637 55.8628H159.215L159.633 53.8672H165.474C166.948 53.8672 167.684 54.4674 167.684 55.6678C167.684 55.9179 167.655 56.1828 167.595 56.463L166.534 61.4291C166.355 62.2794 166.002 62.9246 165.474 63.3645C164.946 63.8045 164.234 64.0245 163.337 64.0245H157.497L157.496 64.025Z" fill="white"/>
<path fill-rule="evenodd" clip-rule="evenodd" d="M167.623 64.0264L169.759 53.8691H172.03L169.894 64.0264H167.623Z" fill="white"/>
<path fill-rule="evenodd" clip-rule="evenodd" d="M175.885 64.0264H173.615L175.333 55.8648H172.883L173.301 53.8691H180.486L180.068 55.8648H177.603L175.885 64.0264Z" fill="white"/>
<path fill-rule="evenodd" clip-rule="evenodd" d="M179.619 64.0264L181.755 53.8691H184.026L181.889 64.0264H179.619Z" fill="white"/>
<path fill-rule="evenodd" clip-rule="evenodd" d="M185.266 64.0264C184.758 64.0264 184.392 63.9366 184.168 63.7564C183.944 63.5763 183.832 63.3012 183.832 62.9311C183.832 62.7413 183.862 62.5162 183.922 62.2559L185.311 55.6392C185.44 55.039 185.659 54.5939 185.968 54.304C186.277 54.0141 186.755 53.8691 187.402 53.8691H192.437C192.945 53.8691 193.308 53.959 193.527 54.1391C193.746 54.3193 193.856 54.599 193.856 54.9793C193.856 55.0793 193.848 55.1844 193.833 55.2942C193.819 55.4044 193.801 55.5193 193.781 55.6392L192.392 62.2559C192.262 62.8561 192.041 63.3012 191.727 63.5911C191.413 63.881 190.938 64.0264 190.3 64.0264H185.266ZM191.345 56.4349C191.355 56.3848 191.363 56.3399 191.368 56.2996C191.373 56.2598 191.375 56.2246 191.375 56.1945C191.375 55.9643 191.201 55.8495 190.852 55.8495H188.029C187.83 55.8495 187.688 55.8893 187.603 55.9694C187.518 56.0495 187.451 56.2047 187.401 56.4344L186.326 61.4908C186.306 61.5909 186.296 61.6557 186.296 61.6858C186.296 61.8961 186.44 62.0007 186.729 62.0007H189.553C189.792 62.0007 189.961 61.9609 190.061 61.8808C190.16 61.8007 190.23 61.6705 190.27 61.4908L191.345 56.4344V56.4349Z" fill="white"/>
<path fill-rule="evenodd" clip-rule="evenodd" d="M200.907 64.0264L197.083 57.3648L195.679 64.0264H193.572L195.708 53.8691H197.845L201.161 59.9306L202.431 53.8691H204.552L202.416 64.0264H200.907Z" fill="white"/>
<path fill-rule="evenodd" clip-rule="evenodd" d="M204.133 64.0264L206.269 53.8691H208.539L206.403 64.0264H204.133Z" fill="white"/>
<path fill-rule="evenodd" clip-rule="evenodd" d="M215.442 64.0264L211.618 57.3648L210.213 64.0264H208.107L210.244 53.8691H212.38L215.696 59.9306L216.966 53.8691H219.087L216.951 64.0264H215.442Z" fill="white"/>
<path fill-rule="evenodd" clip-rule="evenodd" d="M220.283 64.0264C219.775 64.0264 219.409 63.9366 219.186 63.7564C218.962 63.5763 218.85 63.3012 218.85 62.9311C218.85 62.7413 218.879 62.5162 218.939 62.2559L220.328 55.6392C220.458 55.039 220.677 54.5939 220.986 54.304C221.294 54.0141 221.773 53.8691 222.42 53.8691H228.664L228.246 55.8949H222.988C222.789 55.8949 222.652 55.9301 222.577 56C222.503 56.0699 222.44 56.22 222.391 56.4501L221.3 61.6265C221.28 61.7266 221.271 61.7914 221.271 61.8215C221.271 61.9215 221.3 61.9892 221.36 62.0239C221.42 62.0591 221.525 62.0762 221.674 62.0762H224.915L225.408 59.7657H223.406L223.75 58.1304H227.873L226.634 64.0269H220.285L220.283 64.0264Z" fill="white"/>
</g>
<defs>
<clipPath id="clip0_3352_15929">
<rect width="245" height="90" fill="white"/>
</clipPath>
</defs>
</svg>
