<svg width="72" height="13" viewBox="0 0 72 13" fill="none" xmlns="http://www.w3.org/2000/svg">
<path d="M5.94595 0.5L7.35135 5.0913H12L8.32432 7.9087L9.72973 12.5L6.05405 9.68261L2.27027 12.3957L3.67567 7.80435L0 4.98696H4.54054L5.94595 0.5Z" fill="white"/>
<path d="M20.9459 0.5L22.3514 5.0913H27L23.3243 7.9087L24.7297 12.5L21.0541 9.68261L17.2703 12.3957L18.6757 7.80435L15 4.98696H19.5405L20.9459 0.5Z" fill="white"/>
<path d="M35.9459 0.5L37.3514 5.0913H42L38.3243 7.9087L39.7297 12.5L36.0541 9.68261L32.2703 12.3957L33.6757 7.80435L30 4.98696H34.5405L35.9459 0.5Z" fill="white"/>
<path d="M50.9459 0.5L52.3514 5.0913H57L53.3243 7.9087L54.7297 12.5L51.0541 9.68261L47.2703 12.3957L48.6757 7.80435L45 4.98696H49.5405L50.9459 0.5Z" fill="white"/>
<path d="M65.9459 0.5L67.3514 5.0913H72L68.3243 7.9087L69.7297 12.5L66.0541 9.68261L62.2703 12.3957L63.6757 7.80435L60 4.98696H64.5405L65.9459 0.5Z" fill="white"/>
</svg>
