<svg width="27" height="37" viewBox="0 0 27 37" fill="none" xmlns="http://www.w3.org/2000/svg">
<path d="M18.7167 22.9546H4.81045L4.3066 24.5244H8.03507L8.74046 26.7809H14.7866L15.492 24.5244H19.2205L18.7167 22.9546ZM7.12815 13.8301C6.72507 14.4188 6.52353 15.0075 6.52353 15.6943C6.52353 16.6754 7.02738 17.6565 7.83353 18.2452L11.1589 20.5999C11.3605 20.7961 11.4612 20.9923 11.4612 21.2867C11.4612 21.4829 11.3605 21.581 11.2597 21.7772L11.7635 22.1697L13.4766 19.815C13.8797 19.2263 14.0812 18.6376 14.0812 17.9508C14.0812 17.7546 14.0812 17.6565 14.0812 17.4603C13.9805 16.5773 13.4766 15.8905 12.7712 15.3999L9.44585 13.0452C9.24431 12.9471 9.14354 12.7509 9.14354 12.5547V12.4566C9.14354 12.2604 9.24431 12.1622 9.34508 11.966L8.84123 11.5736L7.12815 13.8301ZM9.14354 4.41139C8.53892 5.19629 8.23661 6.0793 8.23661 7.06042C8.23661 7.35475 8.23661 7.55098 8.33738 7.84531C8.53892 9.02266 9.24431 10.1019 10.252 10.8868L14.3836 13.8301C14.8874 14.2226 15.2905 14.8113 15.3913 15.498C15.3913 15.5962 15.3913 15.7924 15.3913 15.8905C15.3913 16.3811 15.1897 16.9697 14.8874 17.3622L15.2905 17.6565L18.6159 13.2415C19.2205 12.4566 19.5228 11.4755 19.5228 10.4943C19.5228 9.02266 18.8174 7.64909 17.5074 6.76608L12.4689 3.23405C11.8643 2.74349 11.6628 1.86048 12.1666 1.27181L11.7635 0.78125L9.14354 4.41139ZM0.578125 28.1545H4.40737C5.3143 28.1545 6.12045 28.4488 6.52353 28.8413C6.92661 29.2337 7.12815 29.7243 7.12815 30.2148C7.12815 31.0979 6.6243 31.5884 6.01968 31.9809C6.92661 32.3733 7.53123 32.8639 7.53123 33.9431C7.53123 35.4148 6.32199 36.1016 4.50814 36.1016H0.578125V28.1545ZM4.00429 31.3922C4.81045 31.3922 5.31429 31.0979 5.31429 30.5092C5.31429 30.0186 4.91122 29.7243 4.10506 29.7243H2.29121V31.3922H4.00429ZM4.50814 34.5318C5.3143 34.5318 5.81814 34.2374 5.81814 33.6488C5.81814 33.1582 5.41506 32.7658 4.50814 32.7658H2.29121V34.5318H4.50814ZM8.33738 28.1545H12.1666C13.0736 28.1545 13.8797 28.4488 14.2828 28.8413C14.6859 29.2337 14.8874 29.7243 14.8874 30.2148C14.8874 31.0979 14.3836 31.5884 13.7789 31.9809C14.6859 32.3733 15.2905 32.8639 15.2905 33.9431C15.2905 35.4148 14.0812 36.1016 12.2674 36.1016H8.33738V28.1545ZM11.7635 31.3922C12.5697 31.3922 13.0736 31.0979 13.0736 30.5092C13.0736 30.0186 12.6705 29.7243 11.8643 29.7243H10.0505V31.3922H11.7635ZM12.2674 34.5318C13.0736 34.5318 13.5774 34.2374 13.5774 33.6488C13.5774 33.1582 13.1743 32.7658 12.2674 32.7658H10.0505V34.5318H12.2674ZM16.0966 28.1545H19.9259C20.8328 28.1545 21.639 28.4488 22.042 28.8413C22.4451 29.2337 22.6467 29.7243 22.6467 30.2148C22.6467 31.0979 22.1428 31.5884 21.5382 31.9809C22.4451 32.3733 23.0497 32.8639 23.0497 33.9431C23.0497 35.4148 21.8405 36.1016 20.0267 36.1016H16.0966V28.1545ZM19.5228 31.3922C20.329 31.3922 20.8328 31.0979 20.8328 30.5092C20.8328 30.0186 20.4297 29.7243 19.6236 29.7243H17.8097V31.3922H19.5228ZM20.0267 34.5318C20.8328 34.5318 21.3367 34.2374 21.3367 33.6488C21.3367 33.1582 20.9336 32.7658 20.0267 32.7658H17.9105V34.5318H20.0267ZM23.4528 34.4337C23.4528 33.5507 24.1582 32.7658 25.1659 32.7658C26.0728 32.7658 26.879 33.4525 26.879 34.4337C26.879 35.3167 26.1736 36.1016 25.1659 36.1016C24.1582 36.1016 23.4528 35.3167 23.4528 34.4337ZM26.5767 34.4337C26.5767 33.6488 25.8713 32.962 25.0651 32.962C24.259 32.962 23.5536 33.6488 23.5536 34.4337C23.5536 35.2186 24.259 35.9053 25.0651 35.9053C25.8713 35.9053 26.5767 35.2186 26.5767 34.4337ZM24.4605 33.5507H25.2667C25.4682 33.5507 25.6698 33.6488 25.7705 33.7469C25.8713 33.845 25.9721 33.9431 25.8713 34.1393C25.8713 34.3356 25.7705 34.6299 25.4682 34.6299L25.8713 35.2186H25.3674L24.9644 34.6299H24.7628V35.2186H24.3597L24.4605 33.5507ZM25.1659 34.3356C25.3674 34.3356 25.4682 34.2374 25.4682 34.0412C25.4682 33.845 25.3674 33.7469 25.1659 33.7469H24.7628V34.2374H25.1659V34.3356Z" fill="#0000FF"/>
</svg>
