<?xml version="1.0" encoding="UTF-8"?>
<svg id="Layer_1" xmlns="http://www.w3.org/2000/svg" version="1.1" viewBox="0 0 27 27">
  <!-- Generator: Adobe Illustrator 29.0.1, SVG Export Plug-In . SVG Version: 2.1.0 Build 192)  -->
  <defs>
    <style>
      .st0 {
        fill: #fff;
      }
    </style>
  </defs>
  <g id="hook-icon-white_1">
    <g id="Group">
      <g id="Layer_11" data-name="Layer_1">
        <g id="Layer_1_2">
          <g id="c">
            <path id="Vector" class="st0" d="M14,26.6c-6.9,0-13-5.7-13-13.1C1,6.5,6.7.5,14.1.6c6.8,0,13,5.6,12.9,13.4-.1,6.8-5.7,12.7-13,12.6ZM14.1,24.9c6.4,0,11.3-5.5,11.2-11.5-.2-6.5-5.6-11.2-11.4-11.1-6.5,0-11.4,5.6-11.2,11.5.1,6.3,5.4,11.3,11.5,11.1Z"/>
            <path id="Vector_2" class="st0" d="M11.2,12.8c0,0,0,.1-.1.2-.7,1-1.4,1.9-2.1,2.9,0,0,0,.1-.1.2,0,0,0,0-.1,0,0,0,0,0,0-.1,0-.2,0-.4,0-.6v-.5s0,0,0,0c0,0-.1,0-.2.1-.5.7-.8,1.5-.4,2.4.3.8,1.4,1.9,2.7,1.8.7,0,1.3-.3,1.9-.7.6-.4,1.1-.9,1.6-1.5,1.6-1.8,3.1-3.7,4.6-5.6.2-.3.4-.6.7-.8.2-.3.3-.6.4-.9.2-.5.4-.9.7-1.2.4-.3.8-.5,1.3-.4.5,0,.9.5.9,1.1,0,.6-.2,1-.6,1.4-.3.3-.6.5-.9.8-.2.1-.4.3-.5.5-1.4,1.8-2.8,3.5-4.2,5.3-.7.9-1.5,1.7-2.3,2.5-.8.7-1.7,1.2-2.8,1.3-1.2.2-2.4-.1-3.4-.9-.8-.6-1.4-1.4-1.7-2.3-.4-1.4,0-3.5,1.9-4.6.9-.5,1.9-.6,2.9-.4,0,0,0,0,.1,0ZM20.9,10.3s0,0,0,0c0,0,.1,0,.2-.1.2-.2.4-.5.6-.7,0,0,0-.1,0-.2,0,0-.2,0-.2,0-.2.3-.4.5-.6.8,0,0,0,0,0,.1Z"/>
          </g>
        </g>
      </g>
    </g>
  </g>
</svg>