<svg width="46" height="46" viewBox="0 0 46 46" fill="none" xmlns="http://www.w3.org/2000/svg">
<g clip-path="url(#clip0_3155_14746)">
<path d="M45.5 32.8242C45.5 32.7776 45.4948 32.7335 45.4856 32.6895L45.4725 25.1502C45.4751 25.1411 45.4777 25.1334 45.4804 25.1243C45.5092 25.009 45.5026 24.895 45.4725 24.7888L45.4594 16.7263C45.4594 14.7421 43.8283 13.1283 41.8229 13.1283C41.4616 13.1283 41.1683 13.4184 41.1683 13.7759C41.1683 14.1333 41.4616 14.4235 41.8229 14.4235C43.1057 14.4235 44.1504 15.4557 44.1504 16.7263L44.1635 24.9676C43.5574 26.8482 41.2521 26.6591 41.1539 26.65C41.1317 26.6474 41.1107 26.6461 41.0885 26.6461H40.557C40.5662 25.5413 40.5806 23.2942 40.5505 21.9304C40.5505 21.8993 40.5465 21.8682 40.5413 21.8384C40.129 19.3931 37.0815 19.0434 36.9519 19.0304C36.9283 19.0278 36.9061 19.0265 36.8825 19.0265H35.6127L40.0648 14.211C40.2991 13.9572 40.2926 13.5673 40.0504 13.3212L27.3526 0.445788C27.1 0.189341 26.6876 0.18416 26.4284 0.434131L23.0864 3.6462L10.2014 0.272233C9.85449 0.181569 9.49843 0.383619 9.40287 0.725548L4.27662 19.0291H4.13524C2.85237 19.0291 1.80774 17.9969 1.80774 16.7263C1.80774 15.4557 2.85106 14.4235 4.13524 14.4235C4.49654 14.4235 4.78977 14.1333 4.78977 13.7759C4.78977 13.4184 4.49654 13.1283 4.13524 13.1283C2.31958 13.1283 0.810245 14.4519 0.54189 16.1758C0.515709 16.2458 0.5 16.3196 0.5 16.3986V41.4061C0.5 43.5069 2.21879 45.2165 4.3316 45.2165H35.5617C35.7855 45.2386 36.0041 45.2502 36.2136 45.2502C36.423 45.2502 36.6089 45.2373 36.7974 45.2165H41.6697C43.7825 45.2165 45.5013 43.5069 45.5013 41.4061L45.4869 33.148C45.4948 33.0405 45.5013 32.933 45.5013 32.8229L45.5 32.8242ZM44.1674 27.1189L44.1779 33.1052C44.0339 34.609 42.751 35.7902 41.1932 35.7902H22.606C20.4199 35.7902 18.6409 34.03 18.6409 31.867C18.6409 29.7041 20.4199 27.9439 22.606 27.9439H41.0584C41.8621 28.0152 43.1607 27.8649 44.1674 27.1189ZM26.8722 1.81351L38.6811 13.7914L33.8376 19.0291H31.4368C32.1778 18.2857 33.2211 17.2016 34.0523 16.1979C34.2474 15.9621 34.25 15.6241 34.0589 15.3858C32.8991 13.9352 34.034 12.2734 34.0811 12.2061C34.2644 11.9483 34.2343 11.5986 34.0091 11.3759L29.1499 6.56814C29.0256 6.4451 28.8541 6.37645 28.68 6.37904C28.5033 6.38163 28.3357 6.45287 28.214 6.5798C26.9821 7.85685 25.0565 6.5526 24.9767 6.4982C24.7162 6.31558 24.3601 6.34666 24.1349 6.57073L11.6309 19.0317H8.96695L26.8722 1.81351ZM25.7032 19.0291C25.4466 16.9672 23.6676 15.3651 21.5155 15.3651C19.3634 15.3651 17.5844 16.9672 17.3279 19.0291H13.4753L24.7005 7.8439C25.711 8.37881 27.329 8.80363 28.6512 7.90477L32.7276 11.938C32.2615 12.8576 31.9081 14.3613 32.7276 15.7484C31.3792 17.313 29.6133 18.9981 29.595 19.0162C29.5898 19.0201 29.5872 19.0253 29.5832 19.0304H25.7045L25.7032 19.0291ZM24.3797 19.0291H18.65C18.8948 17.6847 20.086 16.6602 21.5142 16.6602C22.9424 16.6602 24.1336 17.6834 24.3784 19.0291H24.3797ZM9.57435 16.6382L11.7147 8.08739C12.7907 8.06538 14.3171 7.62631 15.1169 6.08633C16.3814 6.42567 18.1591 6.96965 19.2718 7.31546L9.57566 16.6382H9.57435ZM10.492 1.68787L21.992 4.69918L20.3361 6.29097C19.3163 5.96976 16.4547 5.07608 14.8943 4.69012C14.5645 4.60852 14.2267 4.78985 14.1168 5.10846C13.4465 7.03829 11.3874 6.78314 11.3036 6.77148C10.9698 6.72227 10.6543 6.93338 10.5732 7.25718L7.79797 18.3466L7.08715 19.0291H5.63541L10.492 1.68787ZM1.80905 41.4074V19.4876C2.44002 20.0096 3.25163 20.323 4.13655 20.323H36.8419C37.1011 20.3593 38.9809 20.6676 39.244 22.0107C39.2728 23.368 39.2584 25.5672 39.2493 26.6474H22.6073C19.6986 26.6474 17.3331 28.9891 17.3331 31.8657C17.3331 34.7424 19.6999 37.0841 22.6073 37.0841H38.9286V41.5965C38.9233 41.682 38.8526 42.7104 38.0934 43.3644C37.7452 43.6649 37.2949 43.8501 36.7464 43.9213H4.3316C2.94138 43.9213 1.80905 42.7932 1.80905 41.4061V41.4074ZM41.6697 43.9226H39.3618C40.197 42.9072 40.2363 41.6846 40.2376 41.6263C40.2376 41.6211 40.2376 41.6159 40.2376 41.6107V37.0854H41.1945C42.3543 37.0854 43.4081 36.6281 44.1831 35.8873L44.1922 41.4074C44.1922 42.7945 43.0612 43.9226 41.6697 43.9226Z" fill="white"/>
<path d="M22.8021 29.666C21.4512 29.666 20.3516 30.754 20.3516 32.0906C20.3516 33.4272 21.4512 34.5152 22.8021 34.5152C24.1531 34.5152 25.2527 33.4272 25.2527 32.0906C25.2527 30.754 24.1531 29.666 22.8021 29.666ZM22.8021 33.22C22.1725 33.22 21.6606 32.7136 21.6606 32.0906C21.6606 31.4676 22.1725 30.9612 22.8021 30.9612C23.4318 30.9612 23.9436 31.4676 23.9436 32.0906C23.9436 32.7136 23.4318 33.22 22.8021 33.22Z" fill="white"/>
</g>
<defs>
<clipPath id="clip0_3155_14746">
<rect width="45" height="45" fill="white" transform="translate(0.5 0.25)"/>
</clipPath>
</defs>
</svg>
