<svg width="16" height="16" viewBox="0 0 16 16" fill="none" xmlns="http://www.w3.org/2000/svg">
<path d="M5.70508 11.9863V15.0112C5.70508 15.2225 5.84073 15.4096 6.0416 15.4762C6.09182 15.4925 6.14335 15.5003 6.19422 15.5003C6.34683 15.5003 6.49422 15.4286 6.58813 15.3007L8.35751 12.8929L5.70508 11.9863Z" fill="#D92B32"/>
<path d="M15.447 0.590711C15.297 0.484405 15.1 0.470057 14.937 0.555493L0.262859 8.21865C0.0893782 8.30931 -0.0130147 8.49453 0.00133338 8.68953C0.0163336 8.88518 0.146118 9.05214 0.330686 9.11541L4.4101 10.5098L13.0978 3.0814L6.37512 11.1809L13.212 13.5176C13.2628 13.5346 13.3163 13.5437 13.3698 13.5437C13.4585 13.5437 13.5465 13.5196 13.6241 13.4726C13.7481 13.397 13.8322 13.2698 13.8537 13.127L15.6472 1.06159C15.674 0.878977 15.597 0.697669 15.447 0.590711Z" fill="#D92B32"/>
</svg>
