<svg width="30" height="25" viewBox="0 0 30 25" fill="none" xmlns="http://www.w3.org/2000/svg">
<g clip-path="url(#clip0_3196_13337)">
<path d="M29.9941 0.49463C29.9941 0.49463 29.9941 0.492212 29.9941 0.491002C29.9978 0.470443 29.999 0.449884 29.999 0.429325C29.999 0.426906 29.999 0.424487 29.999 0.423278C29.999 0.422069 29.999 0.41965 29.999 0.41844C29.999 0.412394 29.999 0.405137 29.999 0.399091C29.999 0.384578 29.9965 0.371275 29.9941 0.356763C29.9941 0.350716 29.9916 0.344669 29.9903 0.338622C29.9903 0.333785 29.9879 0.328947 29.9866 0.32411C29.9829 0.308388 29.978 0.293876 29.9718 0.278154C29.9705 0.273317 29.9681 0.268479 29.9668 0.263642C29.9668 0.261223 29.9643 0.258804 29.9631 0.256385C29.9606 0.251548 29.9582 0.24792 29.9569 0.243082C29.9495 0.227361 29.9408 0.211639 29.9309 0.197127C29.9309 0.194708 29.9297 0.193498 29.9284 0.19108C29.9284 0.18987 29.926 0.188661 29.9247 0.186242C29.921 0.181405 29.9173 0.176567 29.9136 0.17173C29.9037 0.158427 29.8925 0.146333 29.8814 0.13424C29.8764 0.129402 29.8727 0.124565 29.8678 0.119727C29.8665 0.118518 29.8653 0.116099 29.8641 0.11489C29.8641 0.11489 29.8641 0.11489 29.8628 0.11489C29.8628 0.11489 29.8628 0.11489 29.8616 0.11368C29.8455 0.099168 29.8281 0.0858649 29.8108 0.0737713C29.8083 0.0713526 29.8046 0.0701432 29.8009 0.0677245C29.7947 0.0640964 29.7885 0.0604683 29.7823 0.0568402C29.7699 0.049584 29.7576 0.0435372 29.7439 0.0374903C29.7378 0.0350716 29.7328 0.0326529 29.7266 0.0302341C29.7217 0.0278154 29.7167 0.026606 29.7118 0.0241873C29.6969 0.0193498 29.6808 0.0145124 29.6659 0.0108843C29.661 0.0108843 29.656 0.00846556 29.6511 0.00725619C29.6474 0.00725619 29.6449 0.00604683 29.6412 0.00483746C29.6362 0.00483746 29.6313 0.00483746 29.6263 0.0036281C29.6102 0.00120937 29.5941 0 29.5793 0C29.5743 0 29.5694 0 29.5632 0C29.557 0 29.5508 0 29.5446 0C29.531 0 29.5174 0.00241873 29.5025 0.00483746C29.4951 0.00483746 29.4876 0.00725619 29.479 0.00846556C29.4753 0.00846556 29.4715 0.00846556 29.4691 0.00967492C29.4493 0.0145124 29.4307 0.0193498 29.4121 0.026606C29.4096 0.026606 29.4072 0.0278154 29.4059 0.0290248L0.272652 11.3765C0.10302 11.4418 -0.00594023 11.6039 0.000250703 11.7816C0.00644163 11.9594 0.124069 12.1142 0.296177 12.1711L7.68815 14.5704L10.7192 24.694C10.7267 24.7182 10.7353 24.74 10.7465 24.7618C10.7489 24.7678 10.7527 24.7726 10.7564 24.7787C10.7663 24.7956 10.7762 24.8125 10.7886 24.8271C10.7935 24.8343 10.7997 24.8404 10.8059 24.8464C10.8183 24.8609 10.8307 24.8742 10.8443 24.8863C10.848 24.8899 10.8505 24.8936 10.8542 24.8972C10.8579 24.8996 10.8604 24.902 10.8641 24.9045C10.8765 24.9141 10.8889 24.9226 10.9012 24.9311C10.9099 24.9359 10.9173 24.942 10.926 24.9468C10.9384 24.954 10.952 24.9589 10.9656 24.9649C10.9743 24.9686 10.983 24.9734 10.9916 24.9758C11.0065 24.9807 11.0226 24.9843 11.0387 24.9879C11.0461 24.9891 11.0535 24.9927 11.0622 24.994C11.0857 24.9976 11.1105 25 11.134 25C11.1414 25 11.1489 25 11.1563 25C11.1749 25 11.1934 24.9964 11.2108 24.9927C11.2157 24.9927 11.2207 24.9927 11.2269 24.9903C11.2541 24.9843 11.2801 24.9758 11.3061 24.9649C11.3136 24.9613 11.3197 24.9577 11.3272 24.954C11.3457 24.9456 11.3631 24.9347 11.3804 24.9238C11.3878 24.919 11.3953 24.9129 11.4027 24.9069C11.4213 24.8924 11.4386 24.8766 11.4535 24.8597C11.4559 24.8561 11.4597 24.8549 11.4634 24.8512L14.1304 21.8012C14.2864 21.6235 14.2641 21.3562 14.0821 21.205C13.9001 21.0526 13.6265 21.0744 13.4717 21.2522L11.8484 23.1086L12.6149 18.9931L21.7861 24.4618C21.9 24.5296 22.04 24.5429 22.165 24.4969C22.2901 24.4509 22.3866 24.3506 22.4263 24.2272L29.9804 0.549052C29.9829 0.539377 29.9854 0.530911 29.9866 0.521236C29.9879 0.51519 29.9903 0.507933 29.9916 0.501887C29.9916 0.499468 29.9916 0.498259 29.9928 0.49584L29.9941 0.49463ZM8.17847 13.8376L1.69657 11.7333L25.7545 2.3631L9.40922 12.8543C9.20864 12.9825 9.15416 13.245 9.2854 13.4409C9.36836 13.5642 9.50704 13.632 9.64819 13.632C9.72991 13.632 9.81287 13.609 9.88592 13.5618L26.7166 2.75856L11.9871 18.0195C11.9871 18.0195 11.9785 18.0316 11.9735 18.0365C11.9661 18.0462 11.9586 18.0546 11.9512 18.0643C11.9388 18.0812 11.9277 18.0994 11.9178 18.1175C11.9128 18.1272 11.9079 18.1356 11.9042 18.1453C11.8943 18.1695 11.8856 18.1949 11.8806 18.2203C11.8806 18.2251 11.8769 18.2288 11.8769 18.2336L11.0387 22.7385L8.4583 14.1193C8.41867 13.9863 8.31343 13.8799 8.17847 13.8363V13.8376ZM21.7651 23.4569L12.9851 18.2203L28.5949 2.04746L21.7651 23.4581V23.4569Z" fill="#0000FF"/>
</g>
<defs>
<clipPath id="clip0_3196_13337">
<rect width="30" height="25" fill="white"/>
</clipPath>
</defs>
</svg>
