<svg width="24" height="19" viewBox="0 0 24 19" fill="none" xmlns="http://www.w3.org/2000/svg">
<path d="M0.673157 8.75961C1.69119 7.99621 2.89364 7.40185 4.19739 6.90009C4.88969 6.6336 5.68528 6.83011 6.15684 7.37978C7.35986 8.78222 8.51351 10.1271 9.60616 11.4011C12.8299 5.93319 17.5592 2.89007 22.7438 0.580214C23.353 0.308878 24.0447 0.761912 23.9976 1.3988C23.9803 1.63164 23.8603 1.84591 23.669 1.99235C16.21 7.71006 14.858 13.8986 12.5232 17.0437C11.1341 18.9151 8.21673 19.0012 6.73395 17.1955C5.56015 15.7664 4.53786 13.6733 0.849355 11.5163C-0.202438 10.9012 -0.29607 9.4864 0.673157 8.75934V8.75961Z" fill="#D92B32"/>
</svg>
