<svg width="52" height="59" viewBox="0 0 52 59" fill="none" xmlns="http://www.w3.org/2000/svg">
<g clip-path="url(#clip0_3352_3751)">
<path d="M43.079 28.2002C42.7301 28.2002 42.4469 27.9052 42.4469 27.5417V6.25496C42.4469 3.80811 40.5356 1.81692 38.1869 1.81692H14.1589C11.8102 1.81692 9.89887 3.80811 9.89887 6.25496V12.6552C9.89887 13.0187 9.61571 13.3137 9.26682 13.3137C8.91792 13.3137 8.63477 13.0187 8.63477 12.6552V6.25496C8.63477 3.08117 11.1124 0.5 14.1589 0.5H38.1869C41.2334 0.5 43.711 3.08117 43.711 6.25496V27.5417C43.711 27.9052 43.4278 28.2002 43.079 28.2002Z" fill="#0000FF"/>
<path d="M38.1869 58.5007H14.1589C11.1124 58.5007 8.63477 55.9196 8.63477 52.7458V32.2307C8.63477 31.8673 8.91792 31.5723 9.26682 31.5723C9.61571 31.5723 9.89887 31.8673 9.89887 32.2307V52.7458C9.89887 55.1926 11.8102 57.1838 14.1589 57.1838H38.1869C40.5356 57.1838 42.4469 55.1926 42.4469 52.7458V47.7388C42.4469 47.3754 42.7301 47.0804 43.079 47.0804C43.4278 47.0804 43.711 47.3754 43.711 47.7388V52.7458C43.711 55.9196 41.2334 58.5007 38.1869 58.5007Z" fill="#0000FF"/>
<path d="M42.638 7.93607H9.70822C9.35933 7.93607 9.07617 7.64107 9.07617 7.2776C9.07617 6.91413 9.35933 6.61914 9.70822 6.61914H42.638C42.9869 6.61914 43.2701 6.91413 43.2701 7.2776C43.2701 7.64107 42.9869 7.93607 42.638 7.93607Z" fill="#0000FF"/>
<path d="M42.638 52.3814H9.70822C9.35933 52.3814 9.07617 52.0864 9.07617 51.7229C9.07617 51.3594 9.35933 51.0645 9.70822 51.0645H42.638C42.9869 51.0645 43.2701 51.3594 43.2701 51.7229C43.2701 52.0864 42.9869 52.3814 42.638 52.3814Z" fill="#0000FF"/>
<path d="M5.58031 31.2588C5.42356 31.2588 5.26681 31.2219 5.12018 31.1455C4.77634 30.9638 4.56145 30.6029 4.56145 30.2V26.4704H3.11279C1.39614 26.4704 -0.00195312 25.0139 -0.00195312 23.2255V19.6883C-0.00195312 17.8999 1.39614 16.4434 3.11279 16.4434H22.9212C24.6379 16.4434 26.036 17.8999 26.036 19.6883V23.2255C26.036 25.0139 24.6379 26.4704 22.9212 26.4704H13.5846C12.639 26.4704 11.7365 26.7812 10.9755 27.3659L6.18202 31.0533C6.00252 31.1903 5.79268 31.2614 5.58031 31.2614V31.2588ZM3.11532 17.7603C2.09392 17.7603 1.26467 18.6242 1.26467 19.6883V23.2255C1.26467 24.287 2.09392 25.1535 3.11532 25.1535H4.66763C5.30726 25.1535 5.82807 25.6961 5.82807 26.3624V29.689L10.2271 26.3045C11.2081 25.5512 12.3711 25.1509 13.5871 25.1509H22.9238C23.9451 25.1509 24.7744 24.287 24.7744 23.2229V19.6856C24.7744 18.6242 23.9451 17.7576 22.9238 17.7576H3.11532V17.7603Z" fill="#0000FF"/>
<path d="M46.4191 46.1423C46.2068 46.1423 45.9944 46.0711 45.8149 45.9342L41.0214 42.2468C40.2604 41.6621 39.3579 41.3513 38.4123 41.3513H29.0757C27.359 41.3513 25.9609 39.8948 25.9609 38.1064V34.5691C25.9609 32.7807 27.359 31.3242 29.0757 31.3242H48.8841C50.6008 31.3242 51.9989 32.7807 51.9989 34.5691V38.1064C51.9989 39.8948 50.6008 41.3513 48.8841 41.3513H47.438V45.0808C47.438 45.4838 47.2231 45.8446 46.8793 46.0264C46.7326 46.1028 46.5759 46.1423 46.4191 46.1423ZM29.0757 32.6464C28.0543 32.6464 27.225 33.5103 27.225 34.5744V38.1117C27.225 39.1731 28.0543 40.0396 29.0757 40.0396H38.4123C39.6309 40.0396 40.7939 40.4373 41.7723 41.1933L46.1714 44.5778V41.2512C46.1714 40.5848 46.6922 40.0423 47.3318 40.0423H48.8841C49.903 40.0423 50.7348 39.1784 50.7348 38.1143V34.577C50.7348 33.5156 49.9055 32.649 48.8841 32.649H29.0757V32.6464Z" fill="#0000FF"/>
</g>
<defs>
<clipPath id="clip0_3352_3751">
<rect width="52" height="58" fill="white" transform="translate(0 0.5)"/>
</clipPath>
</defs>
</svg>
