<svg width="19" height="31" viewBox="0 0 19 31" fill="none" xmlns="http://www.w3.org/2000/svg">
<path d="M17.4121 2.46485C16.9394 2.21924 16.4511 2.19691 15.9368 2.19691H12.1105V0.804002C12.1105 0.639119 11.9697 0.5 11.8029 0.5H6.87661C6.70979 0.5 6.56904 0.639119 6.56904 0.804002V2.19691H2.53071C1.77482 2.19691 1.06064 2.43393 0.57062 3.03335C0.188334 3.50051 0.0527964 4.05356 0.0527964 4.64095V26.0568C0.0527964 26.3728 0.0475833 26.6819 0.132729 26.9911C0.409018 28.0027 1.35257 28.664 2.39517 28.6691C3.44819 28.6743 4.50296 28.6691 5.55772 28.6691H6.47694V30.1943C6.47694 30.3592 6.61769 30.4983 6.78451 30.4983H8.5465C8.70811 30.4983 8.86102 30.3592 8.85407 30.1943V28.6691H9.82543V30.1943C9.82543 30.3592 9.96618 30.4983 10.133 30.4983H11.895C12.0566 30.4983 12.2095 30.3592 12.2025 30.1943V28.6691H16.3295C17.5963 28.6468 18.6093 27.6472 18.6267 26.3934C18.6284 26.2113 18.6267 26.0276 18.6267 25.8455V6.8806C18.6267 6.09741 18.6302 5.31594 18.6267 4.53275C18.6232 3.67914 18.1888 2.87018 17.4103 2.46485H17.4121ZM11.193 1.108H11.4953V2.19691H7.18417V1.108H11.193ZM0.886875 3.64822C1.24136 3.03507 1.86692 2.80492 2.54461 2.80492H15.8291C16.1992 2.80492 16.5745 2.78087 16.929 2.9114C17.6328 3.17247 18.0116 3.84058 18.0133 4.55851C18.0133 4.83331 18.0133 5.10812 18.0133 5.38292V18.2764H2.57936C1.94511 18.2764 1.30565 18.254 0.669667 18.2695V5.81402C0.669667 5.14762 0.54108 4.24936 0.888613 3.64822H0.886875ZM8.23894 29.892H7.09208V28.6708H8.23894V29.892ZM11.5892 29.892H10.4423V28.6708H11.5892V29.892ZM18.0133 26.3694C18.0046 27.3002 17.2783 28.0457 16.3312 28.0628H3.60458C3.21882 28.0628 2.83306 28.0628 2.44904 28.0628C1.59584 28.0628 0.83127 27.5304 0.688781 26.6648C0.654028 26.4518 0.669667 26.2234 0.669667 26.0087V18.8861H16.1036C16.7379 18.8861 17.3773 18.9084 18.0133 18.893V24.2774C18.0133 24.9747 18.0203 25.672 18.0133 26.3694Z" fill="#0000FF"/>
<path d="M14.0671 20.5078H4.61421C4.44739 20.5078 4.30664 20.6469 4.30664 20.8118V25.1726C4.30664 25.3375 4.44739 25.4766 4.61421 25.4766H14.0671C14.1575 25.4766 14.2252 25.444 14.2756 25.3959C14.2791 25.3925 14.2826 25.389 14.2861 25.3856C14.2878 25.3839 14.2895 25.3821 14.2913 25.3804C14.3417 25.3323 14.3747 25.2636 14.3747 25.1726V20.8118C14.3747 20.6469 14.2339 20.5078 14.0671 20.5078ZM10.8768 24.8686H4.92177V21.1158H13.7595V24.8686H10.8768Z" fill="#0000FF"/>
<path d="M7.15745 22.6914H5.89764C5.73604 22.6914 5.58312 22.8305 5.59007 22.9954C5.59702 23.1603 5.72561 23.2994 5.89764 23.2994H7.15745C7.31905 23.2994 7.47196 23.1603 7.46501 22.9954C7.45806 22.8305 7.32948 22.6914 7.15745 22.6914Z" fill="#0000FF"/>
<path d="M12.782 22.6914H8.15456C7.75837 22.6914 7.75837 23.2994 8.15456 23.2994H12.782C13.1782 23.2994 13.1782 22.6914 12.782 22.6914Z" fill="#0000FF"/>
<path d="M8.27462 11.4098C9.49099 11.8563 10.9298 11.4699 11.7482 10.4737C12.5684 9.47586 12.6952 8.0486 12.0245 6.93736C11.3503 5.82097 10.0227 5.24731 8.73511 5.48777C7.2772 5.75914 6.23982 7.06617 6.2207 8.51233C6.23634 9.80391 7.0461 10.9598 8.27462 11.4098ZM8.46924 6.18852C9.46492 5.83299 10.5875 6.1284 11.2704 6.93049C11.9463 7.72398 12.028 8.89362 11.4928 9.78158C10.9611 10.6627 9.88718 11.1487 8.86369 10.9443C7.68903 10.7108 6.84974 9.69227 6.83584 8.51233C6.848 7.49212 7.48572 6.54061 8.46924 6.18852Z" fill="#0000FF"/>
<path d="M9.55831 8.72682C9.81201 8.45373 10.064 8.18064 10.3177 7.90928C10.3542 7.86977 10.3889 7.83199 10.4254 7.79248C10.5349 7.67569 10.5523 7.47646 10.4254 7.3631C10.3072 7.2549 10.1057 7.23772 9.99099 7.3631C9.73729 7.63619 9.48533 7.90928 9.23163 8.18064C9.19514 8.22015 9.16039 8.25793 9.1239 8.29744C9.01442 8.41423 8.99705 8.61346 9.1239 8.72682C9.24206 8.83502 9.44363 8.8522 9.55831 8.72682Z" fill="#0000FF"/>
</svg>
