<svg width="55" height="50" viewBox="0 0 55 50" fill="none" xmlns="http://www.w3.org/2000/svg">
<g clip-path="url(#clip0_3352_6568)">
<path d="M7.11451 22.9844H2.40321C1.07866 22.9844 0 24.0715 0 25.4065V47.5729C0 48.9102 1.07866 49.995 2.40321 49.995H7.11219C8.43674 49.995 9.51539 48.9079 9.51539 47.5729V25.4065C9.51539 24.0692 8.43674 22.9844 7.11219 22.9844H7.11451ZM8.28364 47.5752C8.28364 48.2252 7.75938 48.7536 7.11451 48.7536H2.40321C1.75833 48.7536 1.23408 48.2252 1.23408 47.5752V25.4089C1.23408 24.7589 1.75833 24.2305 2.40321 24.2305H7.11219C7.75706 24.2305 8.28132 24.7589 8.28132 25.4089V47.5752H8.28364Z" fill="#0000FF"/>
<path d="M40.0146 26.8291C40.0146 24.7109 38.305 22.9854 36.201 22.9854H24.1548C24.3427 22.3168 24.7835 21.2156 25.2497 20.0583C25.8946 18.4521 26.5627 16.7898 26.8062 15.6746C27.3514 13.1776 26.7993 10.5614 25.2915 8.49699C24.4471 7.34203 23.4636 7.13161 23.2177 7.0942C22.6053 6.96094 21.9813 7.08018 21.457 7.42853C20.9305 7.77923 20.5755 8.31697 20.4596 8.94121L19.3229 13.6546C18.3162 17.3018 11.6795 26.2025 11.6122 26.2937C11.4081 26.5672 11.4615 26.9577 11.7329 27.1657C12.0043 27.3738 12.3917 27.3177 12.5981 27.0442C12.8765 26.6701 19.4412 17.8629 20.5175 13.9702L21.6635 9.21943L21.6704 9.18202C21.7238 8.88743 21.8885 8.63259 22.1367 8.4666C22.3849 8.3006 22.6818 8.24683 22.9718 8.31463L23.0391 8.32632C23.0669 8.33099 23.7071 8.42685 24.2987 9.23579C25.5977 11.0103 26.0709 13.2618 25.6023 15.4104C25.382 16.4227 24.7046 18.1084 24.1061 19.5954C23.5563 20.9678 23.0785 22.1508 22.9092 22.8849C22.8326 23.2122 22.9092 23.5536 23.1156 23.8178C23.3244 24.082 23.6352 24.2339 23.9693 24.2339H36.2033C37.6253 24.2339 38.7828 25.4006 38.7828 26.8338C38.7828 28.2669 37.6253 29.4336 36.2033 29.4336H34.3522C34.0112 29.4336 33.7352 29.7118 33.7352 30.0555C33.7352 30.3992 34.0112 30.6774 34.3522 30.6774H35.6582C37.0802 30.6774 38.2377 31.844 38.2377 33.2772C38.2377 34.7104 37.0802 35.8771 35.6582 35.8771H34.7512C34.7303 35.8771 34.7094 35.8817 34.6909 35.8841C34.6491 35.8841 34.6097 35.8771 34.5703 35.8771H33.6633C33.3223 35.8771 33.0462 36.1553 33.0462 36.499C33.0462 36.8426 33.3223 37.1209 33.6633 37.1209H34.5703C35.9922 37.1209 37.1498 38.2875 37.1498 39.7207C37.1498 41.1539 35.9922 42.3205 34.5703 42.3205H33.6633C33.6424 42.3205 33.6215 42.3252 33.603 42.3275C33.5612 42.3275 33.5218 42.3205 33.4823 42.3205H32.5753C32.2343 42.3205 31.9583 42.5987 31.9583 42.9424C31.9583 43.2861 32.2343 43.5643 32.5753 43.5643H33.4823C34.9043 43.5643 36.0618 44.731 36.0618 46.1642C36.0618 47.5973 34.9043 48.764 33.4823 48.764H19.0956C16.4813 48.764 12.5239 45.7153 12.4844 45.6825C12.2154 45.4745 11.828 45.5235 11.6192 45.7948C11.4104 46.066 11.4615 46.4564 11.7305 46.6668C11.9068 46.8024 16.0614 50.0055 19.0956 50.0055H33.4823C35.584 50.0055 37.2959 48.2824 37.2959 46.1618C37.2959 45.0139 36.7925 43.9852 35.9992 43.2814C37.3957 42.711 38.3862 41.3316 38.3862 39.7207C38.3862 38.5727 37.8828 37.544 37.0895 36.8403C38.4859 36.2698 39.4764 34.8904 39.4764 33.2796C39.4764 32.0404 38.8895 30.9392 37.9825 30.2355C39.1934 29.5902 40.0216 28.309 40.0216 26.8361L40.0146 26.8291Z" fill="#0000FF"/>
<path d="M43.779 0C37.5923 0 32.5586 5.07341 32.5586 11.3088C32.5586 17.5442 37.5923 22.6176 43.779 22.6176C49.9656 22.6176 54.9993 17.5442 54.9993 11.3088C54.9993 5.07341 49.9656 0 43.779 0ZM43.779 21.3738C38.272 21.3738 33.7927 16.8592 33.7927 11.3088C33.7927 5.75844 38.272 1.2438 43.779 1.2438C49.2859 1.2438 53.7653 5.75844 53.7653 11.3088C53.7653 16.8592 49.2859 21.3738 43.779 21.3738Z" fill="#0000FF"/>
<path d="M39.7672 10.0954C40.5373 10.0954 41.1613 9.46649 41.1613 8.69028C41.1613 7.91407 40.5373 7.28516 39.7672 7.28516C38.997 7.28516 38.373 7.91407 38.373 8.69028C38.373 9.46649 38.997 10.0954 39.7672 10.0954Z" fill="#0000FF"/>
<path d="M47.7926 10.0954C48.5627 10.0954 49.1867 9.46649 49.1867 8.69028C49.1867 7.91407 48.5627 7.28516 47.7926 7.28516C47.0224 7.28516 46.3984 7.91407 46.3984 8.69028C46.3984 9.46649 47.0224 10.0954 47.7926 10.0954Z" fill="#0000FF"/>
<path d="M49.5049 13.253C49.2033 13.094 48.8299 13.2109 48.6721 13.5149C47.7141 15.3525 45.8398 16.4935 43.7799 16.4935C41.72 16.4935 39.848 15.3525 38.8876 13.5125C38.7299 13.2086 38.3564 13.0917 38.0549 13.2507C37.7533 13.4097 37.6373 13.7861 37.7951 14.09C38.9688 16.3368 41.2607 17.7349 43.7799 17.7349C46.2991 17.7349 48.5909 16.3392 49.7647 14.09C49.9224 13.7861 49.8064 13.4097 49.5049 13.2507V13.253Z" fill="#0000FF"/>
</g>
<defs>
<clipPath id="clip0_3352_6568">
<rect width="55" height="50" fill="white"/>
</clipPath>
</defs>
</svg>
