<svg width="50" height="67" viewBox="0 0 50 67" fill="none" xmlns="http://www.w3.org/2000/svg">
<g clip-path="url(#clip0_3352_6549)">
<path d="M39.7656 66.0638C39.3859 66.0638 39.0777 65.7519 39.0777 65.3675V60.1815C39.0777 59.5911 39.3941 59.0591 39.9031 58.7945C41.9804 57.7055 43.268 55.5609 43.268 53.1963C43.268 50.9598 42.3243 49.052 40.7038 47.9351V54.3354C40.7038 54.6947 40.4919 55.015 40.1673 55.1543L37.3857 56.3408C37.1683 56.4327 36.9207 56.4327 36.7061 56.3408L33.9217 55.1543C33.5943 55.015 33.3852 54.6947 33.3852 54.3354V47.9351C31.7647 49.052 30.821 50.9598 30.821 53.1963C30.821 55.5609 32.1114 57.7055 34.1859 58.7945C34.6949 59.0619 35.0113 59.5938 35.0113 60.1815V65.2644C35.0113 65.6488 34.7031 65.9607 34.3234 65.9607C33.9437 65.9607 33.6356 65.6488 33.6356 65.2644V60.1815C33.6356 60.1175 33.6026 60.0562 33.5531 60.0311C31.0191 58.7026 29.4453 56.0845 29.4453 53.1963C29.4453 50.1493 30.9998 47.4923 33.498 46.264C33.7732 46.1303 34.0896 46.1471 34.3482 46.3086C34.6068 46.4729 34.7609 46.7542 34.7609 47.0606V53.9984L37.0445 54.9705L39.3281 53.9984V47.0606C39.3281 46.7542 39.4822 46.4729 39.7408 46.3086C39.9994 46.1443 40.3158 46.1276 40.591 46.2612C43.0919 47.4895 44.6437 50.1466 44.6437 53.1935C44.6437 56.079 43.0699 58.6998 40.5359 60.0283C40.4864 60.0534 40.4534 60.1147 40.4534 60.1787V65.3647C40.4534 65.7491 40.1453 66.061 39.7656 66.061V66.0638Z" fill="#0000FF"/>
<path d="M37.0447 66.9414C29.8995 66.9414 24.0859 61.0563 24.0859 53.8232C24.0859 46.5901 29.8995 40.7051 37.0447 40.7051C44.1899 40.7051 50.0035 46.5901 50.0035 53.8232C50.0035 61.0563 44.1899 66.9414 37.0447 66.9414ZM37.0447 42.1004C30.6589 42.1004 25.4616 47.3588 25.4616 53.826C25.4616 60.2932 30.6561 65.5516 37.0447 65.5516C43.4333 65.5516 48.6278 60.2932 48.6278 53.826C48.6278 47.3588 43.4333 42.1004 37.0447 42.1004Z" fill="#0000FF"/>
<path d="M23.0947 67.0004H6.39135C2.86689 67.0004 0 64.0982 0 60.5304V14.7395C0 11.1717 2.86689 8.26953 6.39135 8.26953C6.77103 8.26953 7.07918 8.58147 7.07918 8.96582C7.07918 9.35018 6.77103 9.66211 6.39135 9.66211C3.62626 9.66211 1.37567 11.9404 1.37567 14.7395V60.5304C1.37567 63.3295 3.62626 65.6078 6.39135 65.6078H23.0975C23.4771 65.6078 23.7853 65.9197 23.7853 66.3041C23.7853 66.6884 23.4771 67.0004 23.0975 67.0004H23.0947Z" fill="#0000FF"/>
<path d="M45.5007 39.3715C45.121 39.3715 44.8129 39.0596 44.8129 38.6752V14.7395C44.8129 11.9404 42.5623 9.66211 39.7972 9.66211C39.4175 9.66211 39.1094 9.35018 39.1094 8.96582C39.1094 8.58147 39.4175 8.26953 39.7972 8.26953C43.3217 8.26953 46.1886 11.1717 46.1886 14.7395V38.6752C46.1886 39.0596 45.8804 39.3715 45.5007 39.3715Z" fill="#0000FF"/>
<path d="M35.4681 14.2768H10.7226C10.098 14.2768 9.5918 13.7643 9.5918 13.1321V9.17713C9.5918 6.84316 11.4682 4.94089 13.7766 4.94089H17.5679C17.9091 2.15293 20.2945 0 23.0953 0C25.8962 0 28.2816 2.15293 28.6228 4.94089H32.4141C34.7197 4.94089 36.5989 6.84037 36.5989 9.17713V13.1321C36.5989 13.7643 36.0927 14.2768 35.4681 14.2768ZM10.9675 12.8842H35.2232V9.17713C35.2232 7.60908 33.9631 6.33347 32.4141 6.33347H28.3999C27.8084 6.33347 27.3241 5.88227 27.2746 5.28068C27.0958 3.09989 25.2606 1.39258 23.0953 1.39258C20.93 1.39258 19.0949 3.09989 18.9161 5.28068C18.8665 5.87949 18.3823 6.33347 17.7908 6.33347H13.7766C12.2276 6.33347 10.9675 7.60908 10.9675 9.17713V12.8842Z" fill="#0000FF"/>
<path d="M23.0951 6.43867C22.3413 6.43867 21.7305 5.81758 21.7305 5.05722C21.7305 4.29687 22.344 3.67578 23.0951 3.67578C23.8462 3.67578 24.4598 4.29687 24.4598 5.05722C24.4598 5.81758 23.8462 6.43867 23.0951 6.43867ZM23.0869 5.05444C23.0869 5.05444 23.0924 5.06558 23.0979 5.06558L23.7747 5.05444H23.0869Z" fill="#0000FF"/>
<path d="M39.1602 24.8281H12.8382C12.4585 24.8281 12.1504 24.5162 12.1504 24.1318C12.1504 23.7475 12.4585 23.4355 12.8382 23.4355H39.1602C39.5399 23.4355 39.8481 23.7475 39.8481 24.1318C39.8481 24.5162 39.5399 24.8281 39.1602 24.8281Z" fill="#0000FF"/>
<path d="M7.0629 24.8275C6.71898 24.8275 6.38882 24.6883 6.14395 24.4376L3.96765 22.2011C3.70077 21.9282 3.70352 21.4853 3.9759 21.2152C4.24553 20.945 4.683 20.9478 4.94987 21.2235L7.0574 23.3876L9.72619 19.6973C9.9518 19.3881 10.381 19.3185 10.6864 19.5469C10.9918 19.7753 11.0606 20.2097 10.835 20.5189L8.10841 24.29C7.8828 24.6019 7.53613 24.7969 7.1592 24.822C7.12893 24.822 7.09592 24.8248 7.06565 24.8248L7.0629 24.8275Z" fill="#0000FF"/>
<path d="M39.1602 37.0371H12.8382C12.4585 37.0371 12.1504 36.7252 12.1504 36.3408C12.1504 35.9565 12.4585 35.6445 12.8382 35.6445H39.1602C39.5399 35.6445 39.8481 35.9565 39.8481 36.3408C39.8481 36.7252 39.5399 37.0371 39.1602 37.0371Z" fill="#0000FF"/>
<path d="M7.0629 37.0385C6.71898 37.0385 6.38882 36.8992 6.14395 36.6486L3.96765 34.4121C3.70077 34.1391 3.70352 33.6963 3.9759 33.4261C4.24553 33.156 4.683 33.1587 4.94987 33.4345L7.0574 35.5986L9.72619 31.9082C9.9518 31.5991 10.381 31.5294 10.6864 31.7578C10.9918 31.9862 11.0606 32.4207 10.835 32.7298L8.10841 36.5009C7.8828 36.8129 7.53613 37.0078 7.1592 37.0357C7.12893 37.0357 7.09592 37.0385 7.06565 37.0385H7.0629Z" fill="#0000FF"/>
<path d="M21.2149 49.2481H12.8343C12.4546 49.2481 12.1465 48.9361 12.1465 48.5518C12.1465 48.1674 12.4546 47.8555 12.8343 47.8555H21.2149C21.5946 47.8555 21.9027 48.1674 21.9027 48.5518C21.9027 48.9361 21.5946 49.2481 21.2149 49.2481Z" fill="#0000FF"/>
<path d="M7.0629 49.2475C6.71898 49.2475 6.38882 49.1082 6.14395 48.8575L3.96765 46.6211C3.70077 46.3481 3.70352 45.9053 3.9759 45.6351C4.24553 45.3649 4.683 45.3677 4.94987 45.6435L7.0574 47.8075L9.72619 44.1172C9.9518 43.808 10.381 43.7384 10.6864 43.9668C10.9918 44.1952 11.0606 44.6297 10.835 44.9388L8.10841 48.7099C7.8828 49.0219 7.53613 49.2168 7.1592 49.2419C7.12893 49.2419 7.09592 49.2447 7.06565 49.2447L7.0629 49.2475Z" fill="#0000FF"/>
</g>
<defs>
<clipPath id="clip0_3352_6549">
<rect width="50" height="67" fill="white"/>
</clipPath>
</defs>
</svg>
