<svg width="31" height="31" viewBox="0 0 31 31" fill="none" xmlns="http://www.w3.org/2000/svg">
<g clip-path="url(#clip0_3196_13332)">
<path d="M30.5 22.2161C30.5 22.185 30.4965 22.1557 30.4904 22.1263L30.4817 17.1001C30.4834 17.0941 30.4852 17.0889 30.4869 17.0829C30.5061 17.006 30.5017 16.93 30.4817 16.8592L30.4729 11.4842C30.4729 10.1614 29.3856 9.08551 28.0486 9.08551C27.8077 9.08551 27.6122 9.27892 27.6122 9.51724C27.6122 9.75555 27.8077 9.94897 28.0486 9.94897C28.9038 9.94897 29.6002 10.6371 29.6002 11.4842L29.609 16.9784C29.2049 18.2321 27.6681 18.1061 27.6026 18.1C27.5878 18.0983 27.5738 18.0974 27.559 18.0974H27.2047C27.2108 17.3609 27.2204 15.8628 27.2003 14.9536C27.2003 14.9328 27.1977 14.9121 27.1942 14.8923C26.9193 13.2621 24.8877 13.0289 24.8013 13.0203C24.7855 13.0186 24.7707 13.0177 24.755 13.0177H23.9085L26.8765 9.80736C27.0328 9.63812 27.0284 9.37822 26.8669 9.21416L18.4017 0.630525C18.2333 0.45956 17.9584 0.456107 17.7856 0.622754L15.5576 2.76413L6.96759 0.514822C6.73633 0.45438 6.49895 0.589079 6.43525 0.817032L3.01774 13.0194H2.92349C2.06825 13.0194 1.37183 12.3312 1.37183 11.4842C1.37183 10.6371 2.06737 9.94897 2.92349 9.94897C3.16436 9.94897 3.35984 9.75555 3.35984 9.51724C3.35984 9.27892 3.16436 9.08551 2.92349 9.08551C1.71306 9.08551 0.70683 9.96796 0.527926 11.1172C0.510472 11.1639 0.5 11.2131 0.5 11.2657V27.9374C0.5 29.3379 1.64586 30.4777 3.0544 30.4777H23.8744C24.0237 30.4924 24.1694 30.5001 24.3091 30.5001C24.4487 30.5001 24.5726 30.4915 24.6983 30.4777H27.9465C29.355 30.4777 30.5009 29.3379 30.5009 27.9374L30.4913 22.432C30.4965 22.3603 30.5009 22.2887 30.5009 22.2153L30.5 22.2161ZM29.6116 18.4126L29.6186 22.4035C29.5226 23.406 28.6673 24.1934 27.6288 24.1934H15.2373C13.7799 24.1934 12.5939 23.02 12.5939 21.578C12.5939 20.136 13.7799 18.9626 15.2373 18.9626H27.5389C28.0748 19.0101 28.9405 18.9099 29.6116 18.4126ZM18.0815 1.54234L25.9541 9.5276L22.7251 13.0194H21.1246C21.6185 12.5238 22.3141 11.8011 22.8682 11.1319C22.9983 10.9748 23 10.7494 22.8726 10.5905C22.0994 9.62344 22.856 8.51563 22.8874 8.47073C23.0096 8.2989 22.9895 8.06577 22.8394 7.91725L19.6 4.71209C19.517 4.63006 19.4027 4.5843 19.2867 4.58603C19.1688 4.58775 19.0571 4.63524 18.976 4.71986C18.1548 5.57123 16.871 4.70173 16.8178 4.66547C16.6441 4.54372 16.4067 4.56444 16.2566 4.71382L7.92058 13.0212H6.14464L18.0815 1.54234ZM17.3021 13.0194C17.1311 11.6448 15.9451 10.5767 14.5104 10.5767C13.0756 10.5767 11.8896 11.6448 11.7186 13.0194H9.15022L16.6336 5.5626C17.3074 5.91921 18.386 6.20242 19.2675 5.60318L21.985 8.29199C21.6744 8.90505 21.4387 9.90752 21.985 10.8323C21.0862 11.8753 19.9089 12.9987 19.8967 13.0108C19.8932 13.0134 19.8914 13.0168 19.8888 13.0203H17.303L17.3021 13.0194ZM16.4198 13.0194H12.6C12.7632 12.1232 13.5574 11.4402 14.5095 11.4402C15.4616 11.4402 16.2558 12.1223 16.419 13.0194H16.4198ZM6.54957 11.4255L7.97644 5.72493C8.6938 5.71025 9.71137 5.41754 10.2446 4.39089C11.0876 4.61711 12.2727 4.97976 13.0145 5.21031L6.55044 11.4255H6.54957ZM7.16133 1.45858L14.828 3.46612L13.7241 4.52731C13.0442 4.31317 11.1365 3.71739 10.0962 3.46008C9.87631 3.40568 9.65115 3.52656 9.57784 3.73898C9.13102 5.02553 7.75826 4.85543 7.70241 4.84766C7.47987 4.81484 7.26955 4.95559 7.21544 5.17145L5.36531 12.5644L4.89144 13.0194H3.92361L7.16133 1.45858ZM1.3727 27.9383V13.3251C1.79334 13.6731 2.33442 13.882 2.92437 13.882H24.7279C24.9007 13.9062 26.1539 14.1117 26.3294 15.0071C26.3486 15.912 26.339 17.3782 26.3328 18.0983H15.2382C13.299 18.0983 11.7221 19.6594 11.7221 21.5772C11.7221 23.4949 13.2999 25.056 15.2382 25.056H26.119V28.0643C26.1155 28.1213 26.0684 28.8069 25.5623 29.2429C25.3301 29.4433 25.0299 29.5667 24.6642 29.6142H3.0544C2.12759 29.6142 1.3727 28.8622 1.3727 27.9374V27.9383ZM27.9465 29.6151H26.4079C26.9647 28.9381 26.9909 28.123 26.9917 28.0842C26.9917 28.0807 26.9917 28.0773 26.9917 28.0738V25.0569H27.6297C28.4029 25.0569 29.1054 24.7521 29.6221 24.2582L29.6282 27.9383C29.6282 28.863 28.8742 29.6151 27.9465 29.6151Z" fill="#0000FF"/>
<path d="M15.3681 20.1113C14.4674 20.1113 13.7344 20.8366 13.7344 21.7277C13.7344 22.6188 14.4674 23.3441 15.3681 23.3441C16.2687 23.3441 17.0018 22.6188 17.0018 21.7277C17.0018 20.8366 16.2687 20.1113 15.3681 20.1113ZM15.3681 22.4807C14.9483 22.4807 14.6071 22.143 14.6071 21.7277C14.6071 21.3124 14.9483 20.9748 15.3681 20.9748C15.7878 20.9748 16.1291 21.3124 16.1291 21.7277C16.1291 22.143 15.7878 22.4807 15.3681 22.4807Z" fill="#0000FF"/>
</g>
<defs>
<clipPath id="clip0_3196_13332">
<rect width="30" height="30" fill="white" transform="translate(0.5 0.5)"/>
</clipPath>
</defs>
</svg>
