<svg width="23" height="23" viewBox="0 0 23 23" fill="none" xmlns="http://www.w3.org/2000/svg">
<g clip-path="url(#clip0_3352_16011)">
<path d="M22.5803 20.5517L18.1287 16.0982C21.4596 11.6469 20.5514 5.33824 16.1001 2.00734C11.6489 -1.32356 5.34019 -0.41533 2.00929 4.03591C-1.3216 8.48715 -0.413377 14.7959 4.03786 18.1268C7.61347 20.8024 12.5245 20.8024 16.1001 18.1268L20.5536 22.5802C21.1133 23.1399 22.0207 23.1399 22.5803 22.5802C23.1399 22.0206 23.1399 21.1132 22.5803 20.5536L22.5803 20.5517ZM10.1061 17.2672C6.15006 17.2672 2.94309 14.0602 2.94309 10.1042C2.94309 6.14811 6.15006 2.94113 10.1061 2.94113C14.0622 2.94113 17.2691 6.14811 17.2691 10.1042C17.2649 14.0584 14.0604 17.263 10.1061 17.2672Z" fill="#D92B32"/>
</g>
<defs>
<clipPath id="clip0_3352_16011">
<rect width="23" height="23" fill="white"/>
</clipPath>
</defs>
</svg>
