<svg width="54" height="53" viewBox="0 0 54 53" fill="none" xmlns="http://www.w3.org/2000/svg">
<g clip-path="url(#clip0_3352_3713)">
<path d="M38.5708 34.999C39.0614 34.1286 39.4424 33.2062 39.7075 32.243H41.998C42.8604 32.243 43.5613 31.539 43.5613 30.6727V27.2484C43.5613 26.3821 42.8604 25.6781 41.998 25.6781H39.7075C39.4424 24.7149 39.0614 23.7915 38.5708 22.9221L40.191 21.2947C40.4866 20.9977 40.6491 20.6039 40.6491 20.1845C40.6491 19.7652 40.4866 19.3713 40.191 19.0744L37.7806 16.6531C37.1711 16.0409 36.1797 16.0409 35.5703 16.6531L33.9501 18.2806C33.0837 17.7877 32.1654 17.4051 31.2066 17.1388V14.8379C31.2066 13.9716 30.5057 13.2676 29.6433 13.2676H26.2344C25.372 13.2676 24.6711 13.9716 24.6711 14.8379V17.1388C23.7123 17.4051 22.793 17.7877 21.9276 18.2806L20.3074 16.6531C19.698 16.0409 18.7066 16.0409 18.0971 16.6531L15.6867 19.0744C15.3911 19.3713 15.2286 19.7652 15.2286 20.1845C15.2286 20.6039 15.3911 20.9988 15.6867 21.2947L17.3069 22.9221C16.8162 23.7925 16.4353 24.7149 16.1702 25.6781H13.8797C13.0173 25.6781 12.3164 26.3821 12.3164 27.2484V30.6727C12.3164 31.539 13.0173 32.243 13.8797 32.243H16.1702C16.4353 33.2062 16.8162 34.1296 17.3069 34.999L15.6867 36.6264C15.0772 37.2386 15.0772 38.2345 15.6867 38.8467L18.0971 41.268C18.3927 41.5649 18.7848 41.7282 19.2023 41.7282C19.6197 41.7282 20.0118 41.5649 20.3074 41.268L21.9276 39.6405C22.794 40.1334 23.7123 40.516 24.6711 40.7823V43.0832C24.6711 43.9495 25.372 44.6535 26.2344 44.6535H29.6433C30.5057 44.6535 31.2066 43.9495 31.2066 43.0832V40.7823C32.1654 40.516 33.0847 40.1334 33.9501 39.6405L35.5703 41.268C36.1797 41.8802 37.1711 41.8802 37.7806 41.268L40.191 38.8467C40.8004 38.2345 40.8004 37.2386 40.191 36.6264L38.5708 34.999ZM39.1854 37.8376L36.775 40.2589C36.7201 40.314 36.6307 40.314 36.5759 40.2589L34.5636 38.2376C34.329 38.0019 33.9623 37.961 33.682 38.1386C32.651 38.7916 31.5255 39.26 30.3381 39.5303C30.014 39.6038 29.7845 39.8936 29.7845 40.2272V43.0852C29.7845 43.1638 29.7215 43.2271 29.6433 43.2271H26.2344C26.1562 43.2271 26.0932 43.1638 26.0932 43.0852V40.2272C26.0932 39.8936 25.8636 39.6048 25.5396 39.5303C24.3522 39.2589 23.2267 38.7906 22.1957 38.1386C22.0789 38.0651 21.9479 38.0284 21.8168 38.0284C21.633 38.0284 21.4512 38.0998 21.314 38.2376L19.3018 40.2589C19.2673 40.2936 19.2287 40.3007 19.2023 40.3007C19.1759 40.3007 19.1362 40.2936 19.1027 40.2589L16.6923 37.8376C16.6375 37.7825 16.6375 37.6927 16.6923 37.6376L18.7045 35.6163C18.9392 35.3806 18.9798 35.0122 18.8031 34.7306C18.153 33.695 17.6867 32.5644 17.4176 31.3716C17.3444 31.0461 17.056 30.8155 16.7238 30.8155H13.8787C13.8004 30.8155 13.7375 30.7523 13.7375 30.6737V27.2494C13.7375 27.1709 13.8004 27.1076 13.8787 27.1076H16.7238C17.056 27.1076 17.3434 26.877 17.4176 26.5515C17.6878 25.3587 18.154 24.2282 18.8031 23.1925C18.9798 22.9099 18.9392 22.5426 18.7045 22.3069L16.6923 20.2855C16.6578 20.2508 16.6507 20.2121 16.6507 20.1855C16.6507 20.159 16.6578 20.1192 16.6923 20.0856L19.1027 17.6643C19.1576 17.6092 19.247 17.6092 19.3018 17.6643L21.314 19.6856C21.5487 19.9213 21.9154 19.9621 22.1957 19.7845C23.2267 19.1315 24.3522 18.6632 25.5396 18.3928C25.8636 18.3193 26.0932 18.0295 26.0932 17.6959V14.8379C26.0932 14.7593 26.1562 14.6961 26.2344 14.6961H29.6433C29.7215 14.6961 29.7845 14.7593 29.7845 14.8379V17.6959C29.7845 18.0295 30.014 18.3183 30.3381 18.3928C31.5255 18.6642 32.651 19.1325 33.682 19.7845C33.9633 19.9621 34.329 19.9213 34.5636 19.6856L36.5759 17.6643C36.6307 17.6092 36.7201 17.6092 36.775 17.6643L39.1854 20.0856C39.2199 20.1202 39.227 20.159 39.227 20.1855C39.227 20.2121 39.2199 20.2519 39.1854 20.2855L37.1731 22.3069C36.9385 22.5426 36.8979 22.9109 37.0746 23.1925C37.7247 24.2282 38.1909 25.3587 38.4601 26.5515C38.5333 26.877 38.8217 27.1076 39.1539 27.1076H41.999C42.0772 27.1076 42.1402 27.1709 42.1402 27.2494V30.6737C42.1402 30.7523 42.0772 30.8155 41.999 30.8155H39.1539C38.8217 30.8155 38.5343 31.0461 38.4601 31.3716C38.1909 32.5644 37.7247 33.695 37.0746 34.7306C36.8979 35.0133 36.9385 35.3806 37.1731 35.6163L39.1854 37.6376C39.2402 37.6927 39.2402 37.7825 39.1854 37.8376Z" fill="#0000FF"/>
<path d="M27.9393 22.2539C24.2581 22.2539 21.2637 25.2619 21.2637 28.9596C21.2637 32.6574 24.2581 35.6654 27.9393 35.6654C31.6204 35.6654 34.6149 32.6574 34.6149 28.9596C34.6149 25.2619 31.6204 22.2539 27.9393 22.2539ZM27.9393 34.2379C25.0423 34.2379 22.6857 31.8707 22.6857 28.9607C22.6857 26.0506 25.0423 23.6834 27.9393 23.6834C30.8362 23.6834 33.1928 26.0506 33.1928 28.9607C33.1928 31.8707 30.8362 34.2379 27.9393 34.2379Z" fill="#0000FF"/>
<path d="M52.7924 12.4012C52.185 12.9981 50.9986 13.2664 50.0926 13.2674H50.0854C49.1144 13.2674 47.7279 12.9297 46.9701 12.1859C45.9249 11.1604 44.1483 10.7002 42.8512 10.6992H42.8451C41.6891 10.6992 40.1147 11.0339 39.1579 11.9726C38.8765 12.2481 38.8714 12.7001 39.1457 12.9828C39.4199 13.2644 39.8699 13.2705 40.1513 12.995C40.7618 12.3961 41.9431 12.1287 42.8451 12.1287H42.8491C43.8568 12.1287 45.2545 12.5012 45.9757 13.2093C47.0239 14.2378 48.7924 14.6969 50.0844 14.6969H50.0936C51.2526 14.6949 52.8311 14.3592 53.7849 13.4236C54.0652 13.1481 54.0713 12.696 53.796 12.4134C53.5218 12.1318 53.0718 12.1257 52.7904 12.4022L52.7924 12.4012Z" fill="#0000FF"/>
<path d="M52.7914 7.69413C52.184 8.29103 50.9976 8.55939 50.0915 8.56041H50.0844C49.1134 8.56041 47.7268 8.22267 46.9691 7.47884C45.9239 6.45339 44.1473 5.99321 42.8502 5.99219H42.8451C41.6891 5.99219 40.1147 6.32686 39.1579 7.26558C38.8765 7.54108 38.8714 7.99309 39.1457 8.27573C39.4199 8.55735 39.8699 8.56347 40.1513 8.28797C40.7618 7.68903 41.9431 7.42068 42.8451 7.42068H42.8491C43.8568 7.42068 45.2545 7.7931 45.9757 8.50123C47.0239 9.52974 48.7924 9.9889 50.0844 9.9889H50.0936C51.2526 9.98685 52.8311 9.65116 53.7849 8.7155C54.0652 8.44001 54.0713 7.98799 53.796 7.70535C53.5218 7.42374 53.0718 7.41762 52.7904 7.69413H52.7914Z" fill="#0000FF"/>
<path d="M40.1523 3.57992C40.7628 2.98098 41.9441 2.71365 42.8461 2.71365H42.8502C43.8578 2.71365 45.2555 3.08607 45.9767 3.7942C47.0249 4.82271 48.7934 5.28186 50.0854 5.28186H50.0946C51.2536 5.27982 52.8321 4.94413 53.7859 4.00847C54.0662 3.73297 54.0723 3.28096 53.797 2.99832C53.5228 2.71671 53.0728 2.71058 52.7914 2.9871C52.184 3.584 50.9976 3.85235 50.0915 3.85338H50.0844C49.1134 3.85338 47.7268 3.51564 46.9691 2.77181C45.9239 1.74635 44.1473 1.28618 42.8502 1.28516H42.8451C41.6891 1.28516 40.1147 1.61983 39.1579 2.55855C38.8765 2.83405 38.8714 3.28606 39.1457 3.5687C39.4199 3.85031 39.8699 3.85644 40.1513 3.58094L40.1523 3.57992Z" fill="#0000FF"/>
<path d="M49.0822 36.8673C48.1375 35.6143 47.8572 35.5215 47.5372 35.5215C47.2172 35.5215 46.9369 35.6154 45.9922 36.8673C45.4102 37.6397 44.7764 38.5978 44.2096 39.5641C43.0709 41.5028 41.7148 44.2812 41.7148 46.5076C41.7148 49.7329 44.3274 52.3572 47.5382 52.3572C50.749 52.3572 53.3616 49.7329 53.3616 46.5076C53.3616 44.2822 52.0045 41.5038 50.8669 39.5641C50.2991 38.5978 49.6662 37.6397 49.0842 36.8673H49.0822ZM47.5362 50.9288C45.1095 50.9288 43.1349 48.9452 43.1349 46.5076C43.1349 43.5567 46.3467 38.606 47.5362 37.1979C48.7256 38.605 51.9375 43.5567 51.9375 46.5076C51.9375 48.9452 49.9628 50.9288 47.5362 50.9288Z" fill="#0000FF"/>
<path d="M39.0169 47.9336H18.5665C18.1734 47.9336 17.8555 48.253 17.8555 48.6478C17.8555 49.0427 18.1734 49.3621 18.5665 49.3621H39.0169C39.41 49.3621 39.7279 49.0427 39.7279 48.6478C39.7279 48.253 39.41 47.9336 39.0169 47.9336Z" fill="#0000FF"/>
<path d="M48.2482 32.8127V16.9779C48.2482 16.583 47.9303 16.2637 47.5372 16.2637C47.1441 16.2637 46.8262 16.583 46.8262 16.9779V32.8127C46.8262 33.2076 47.1441 33.527 47.5372 33.527C47.9303 33.527 48.2482 33.2076 48.2482 32.8127Z" fill="#0000FF"/>
<path d="M16.8614 9.98904H36.8862C37.2793 9.98904 37.5972 9.66967 37.5972 9.27479C37.5972 8.87992 37.2793 8.56055 36.8862 8.56055H16.8614C16.4683 8.56055 16.1504 8.87992 16.1504 9.27479C16.1504 9.66967 16.4683 9.98904 16.8614 9.98904Z" fill="#0000FF"/>
<path d="M7.62891 20.8295V33.241C7.62891 33.6359 7.94684 33.9553 8.33994 33.9553C8.73304 33.9553 9.05097 33.6359 9.05097 33.241V20.8295C9.05097 20.4346 8.73304 20.1152 8.33994 20.1152C7.94684 20.1152 7.62891 20.4346 7.62891 20.8295Z" fill="#0000FF"/>
<path d="M12.8686 42.9942L15.7849 43.7789C15.8468 43.7952 15.9088 43.8034 15.9697 43.8034C16.2836 43.8034 16.5711 43.5932 16.6564 43.2738C16.758 42.8932 16.5325 42.5014 16.1536 42.3994L13.6396 41.7229L14.313 39.1975C14.4146 38.8169 14.1891 38.4251 13.8102 38.3231C13.4313 38.221 13.0413 38.4465 12.9397 38.8281L12.1586 41.7576L9.05238 43.5585V39.9556L11.1875 37.8109C11.4648 37.5323 11.4648 37.0793 11.1875 36.8007C10.9102 36.5222 10.4592 36.5222 10.1819 36.8007L8.34134 38.6496L6.50078 36.8007C6.22348 36.5222 5.77248 36.5222 5.49518 36.8007C5.21787 37.0793 5.21787 37.5323 5.49518 37.8109L7.63031 39.9556V43.5585L4.52411 41.7576L3.74298 38.8281C3.64141 38.4465 3.25135 38.221 2.87247 38.3231C2.4936 38.4251 2.2681 38.8169 2.36967 39.1975L3.04312 41.7229L0.529109 42.3994C0.150229 42.5014 -0.0752699 42.8932 0.0263064 43.2738C0.111631 43.5932 0.399091 43.8034 0.712962 43.8034C0.773908 43.8034 0.83587 43.7952 0.897831 43.7789L3.81409 42.9942L6.92029 44.7951L3.81409 46.5961L0.897831 45.8114C0.518952 45.7094 0.128899 45.9359 0.0273222 46.3165C-0.0742541 46.6971 0.151245 47.0889 0.530125 47.1909L3.04414 47.8674L2.37069 50.3928C2.26911 50.7734 2.49461 51.1652 2.87349 51.2672C2.93545 51.2836 2.99741 51.2917 3.05836 51.2917C3.37223 51.2917 3.65969 51.0815 3.74502 50.7622L4.52614 47.8327L7.63234 46.0318V49.6347L5.49721 51.7794C5.2199 52.058 5.2199 52.511 5.49721 52.7896C5.77451 53.0681 6.22551 53.0681 6.50281 52.7896L8.34337 50.9407L10.1839 52.7896C10.3231 52.9294 10.5049 52.9988 10.6867 52.9988C10.8686 52.9988 11.0504 52.9294 11.1895 52.7896C11.4668 52.511 11.4668 52.058 11.1895 51.7794L9.05441 49.6347V46.0318L12.1606 47.8327L12.9417 50.7622C13.0271 51.0815 13.3145 51.2917 13.6284 51.2917C13.6893 51.2917 13.7513 51.2836 13.8133 51.2672C14.1921 51.1652 14.4176 50.7734 14.3161 50.3928L13.6426 47.8674L16.1566 47.1909C16.5355 47.0889 16.761 46.6971 16.6594 46.3165C16.5578 45.9359 16.1678 45.7094 15.7889 45.8114L12.8727 46.5961L9.76646 44.7951L12.8727 42.9942H12.8686Z" fill="#0000FF"/>
<path d="M8.34067 18.1198C10.3163 18.1198 11.9639 17.3586 13.1046 15.9179C14.0493 14.7251 14.5907 13.0833 14.5907 11.414C14.5907 9.86922 13.5739 7.66017 12.6617 6.6439C12.4616 6.42044 12.1427 6.34698 11.8664 6.46126C11.5891 6.57451 11.4123 6.85001 11.4235 7.14999C11.452 7.89587 11.2915 8.48971 10.9817 8.77847C10.7846 8.96213 10.5134 9.03254 10.1508 8.99172C9.89378 8.96315 9.6825 8.83153 9.53928 8.61011C9.31479 8.26319 9.29041 7.7571 9.47122 7.1857C10.7623 3.10329 8.2716 1.31563 6.62302 0.13305C6.37213 -0.0465317 6.03489 -0.044491 5.78705 0.140192C5.5392 0.323855 5.43762 0.647306 5.53514 0.940146C5.7972 1.73092 6.25328 3.74611 4.8241 5.37764C3.19888 7.23162 1.66406 8.98356 1.66406 11.413C1.66406 13.4639 2.3304 15.1812 3.58995 16.3811C4.7855 17.5188 6.42698 18.1198 8.33966 18.1198H8.34067ZM5.89167 6.32249C7.00596 5.05113 7.26295 3.60836 7.2274 2.44924C8.2777 3.47877 8.77136 4.68177 8.11619 6.7541C7.80435 7.74077 7.88663 8.67745 8.34677 9.38966C8.71854 9.96411 9.31885 10.3365 9.99332 10.412C10.9745 10.5222 11.5982 10.1529 11.9497 9.82535C12.1762 9.61413 12.3621 9.35088 12.5053 9.04478C12.8832 9.84371 13.1686 10.7508 13.1686 11.4151C13.1686 12.768 12.7399 14.0853 11.9913 15.0301C11.13 16.1178 9.86737 16.6923 8.34067 16.6923C5.10039 16.6923 3.08715 14.67 3.08715 11.4151C3.08715 9.52434 4.38732 8.04076 5.89268 6.32351L5.89167 6.32249Z" fill="#0000FF"/>
</g>
<defs>
<clipPath id="clip0_3352_3713">
<rect width="54" height="53" fill="white"/>
</clipPath>
</defs>
</svg>
