<?xml version="1.0" encoding="utf-8"?>
<!-- Generator: Adobe Illustrator 27.0.0, SVG Export Plug-In . SVG Version: 6.00 Build 0)  -->
<svg version="1.1" id="Layer_1" xmlns="http://www.w3.org/2000/svg" xmlns:xlink="http://www.w3.org/1999/xlink" x="0px" y="0px"
	 viewBox="0 0 56.6 11.3" style="enable-background:new 0 0 56.6 11.3;" xml:space="preserve">
<g id="Facebook_Rating-2" transform="translate(-8127.431 -4252.471)">
	<g id="Facebook_5-Star_Logo-2" transform="translate(4.002 -9.605)">
		<g id="Rating-3" transform="translate(-0.561 6.461)">
			<path id="Star-11" d="M8179.8,4260.2l-3.4-0.2l-1.3-3.2l-1.3,3.2l-3.4,0.2l2.6,2.2l-0.9,3.4l2.9-1.8l2.9,1.8l-0.9-3.4
				L8179.8,4260.2z" fill="#FBBC05"/>
			<path id="Star-12" d="M8168.4,4260.2l-3.4-0.2l-1.3-3.2l-1.3,3.2l-3.4,0.2l2.6,2.2l-0.9,3.4l2.9-1.8l2.9,1.8l-0.9-3.4
				L8168.4,4260.2z" fill="#FBBC05"/>
			<path id="Star-13" d="M8157.1,4260.2l-3.4-0.2l-1.3-3.2l-1.3,3.2l-3.4,0.2l2.6,2.2l-0.9,3.4l2.9-1.8l2.9,1.8l-0.9-3.4
				L8157.1,4260.2z" fill="#FBBC05"/>
			<path id="Star-14" d="M8145.7,4260.2l-3.4-0.2l-1.3-3.2l-1.3,3.2l-3.4,0.2l2.6,2.2l-0.9,3.4l2.9-1.8l2.9,1.8l-0.9-3.4
				L8145.7,4260.2z" fill="#FBBC05"/>
			<path id="Star-15" d="M8134.3,4260.2l-3.4-0.2l-1.3-3.2l-1.3,3.2l-3.4,0.2l2.6,2.2l-0.9,3.4l2.9-1.8l2.9,1.8l-0.9-3.4
				L8134.3,4260.2z" fill="#FBBC05"/>
		</g>
	</g>
</g>
</svg>
