<svg width="16" height="21" viewBox="0 0 16 21" fill="none" xmlns="http://www.w3.org/2000/svg">
<path d="M12.2874 0.5H10.1352H7.92953L6.43913 9.83574C6.40762 9.83996 6.37612 9.84207 6.34355 9.84629C3.05076 10.2863 0.495313 13.0711 0.523671 16.1851C0.536275 17.4873 0.978462 18.5045 1.77146 19.3381C2.48779 20.0916 3.46354 20.5 4.44875 20.5C4.83422 20.5 5.22076 20.4377 5.5936 20.309C7.36865 19.6948 7.95791 18.1985 8.23415 16.8288C8.23415 16.8288 8.23308 16.832 8.23308 16.8341C8.31288 15.305 7.49994 13.795 5.94965 12.9012L5.45915 16.0131C5.30164 16.8963 5.0968 17.424 4.65777 17.5759C4.39518 17.6667 4.07168 17.5728 3.85321 17.3427C3.57172 17.0462 3.40683 16.7159 3.40157 16.1577C3.38687 14.6012 4.60525 13.3792 5.94965 12.9012C6.37192 12.7482 6.81095 12.6764 7.30145 12.6764C7.79928 12.6764 8.32343 12.7725 8.80236 12.9339C10.6184 13.3645 11.7191 15.2997 11.9911 17.3955L12.1508 18.57H15.1726L12.2874 0.5ZM9.18781 10.0362L10.0543 3.35548H10.0806H10.1615L11.1288 10.8108C10.5144 10.4741 9.86107 10.2114 9.18781 10.0362Z" fill="#FF6153"/>
<path d="M8.23367 16.8334C8.38601 16.1802 8.73888 13.6719 8.80193 12.9333C8.32403 12.7729 7.79885 12.6758 7.30102 12.6758C6.81052 12.6758 6.37144 12.7486 5.94922 12.9006C7.50058 13.7944 8.31353 15.3044 8.23367 16.8334Z" fill="#A03027"/>
</svg>
