<svg width="63" height="64" viewBox="0 0 63 64" fill="none" xmlns="http://www.w3.org/2000/svg">
<g clip-path="url(#clip0_2001_17055)">
<path d="M62.7853 32.708C62.7853 30.0845 62.5724 28.17 62.1117 26.1846H32.1531V38.0261H49.7381C49.3837 40.9688 47.4692 45.4006 43.2146 48.3786L43.155 48.775L52.6274 56.1131L53.2836 56.1786C59.3107 50.6123 62.7853 42.4224 62.7853 32.708Z" fill="#4285F4"/>
<path d="M32.1535 63.9073C40.7687 63.9073 48.0012 61.0709 53.2841 56.1784L43.2151 48.3783C40.5206 50.2574 36.9042 51.5692 32.1535 51.5692C23.7155 51.5692 16.5539 46.0031 14.0009 38.3096L13.6267 38.3413L3.77724 45.964L3.64844 46.322C8.89557 56.7454 19.6736 63.9073 32.1535 63.9073Z" fill="#34A853"/>
<path d="M14.0006 38.3081C13.327 36.3227 12.9372 34.1953 12.9372 31.9973C12.9372 29.799 13.327 27.6719 13.9652 25.6865L13.9474 25.2636L3.97442 17.5186L3.64813 17.6738C1.48553 21.9992 0.244629 26.8565 0.244629 31.9973C0.244629 37.1381 1.48553 41.9952 3.64813 46.3206L14.0006 38.3081Z" fill="#FBBC05"/>
<path d="M32.1535 12.4287C38.1451 12.4287 42.1868 15.0168 44.4914 17.1797L53.4967 8.38705C47.966 3.24624 40.7687 0.0908203 32.1535 0.0908203C19.6736 0.0908203 8.89557 7.25247 3.64844 17.6759L13.9655 25.6886C16.5539 17.9951 23.7155 12.4287 32.1535 12.4287Z" fill="#EB4335"/>
</g>
<defs>
<clipPath id="clip0_2001_17055">
<rect width="62.5408" height="64" fill="white" transform="translate(0.244629)"/>
</clipPath>
</defs>
</svg>
