<svg width="33" height="34" viewBox="0 0 33 34" fill="none" xmlns="http://www.w3.org/2000/svg">
<g clip-path="url(#clip0_5228_10736)">
<path d="M32.6433 17.2039C32.6433 15.8345 32.5322 14.8351 32.2917 13.7988H16.6543V19.9797H25.8331C25.6481 21.5157 24.6488 23.829 22.4281 25.3834L22.3969 25.5903L27.3412 29.4206L27.6838 29.4548C30.8297 26.5493 32.6433 22.2744 32.6433 17.2039Z" fill="#4285F4"/>
<path d="M16.6561 33.4881C21.1529 33.4881 24.9281 32.0076 27.6855 29.4539L22.4299 25.3825C21.0234 26.3633 19.1358 27.048 16.6561 27.048C12.2517 27.048 8.51357 24.1427 7.18102 20.127L6.9857 20.1435L1.84458 24.1223L1.77734 24.3092C4.51618 29.7499 10.142 33.4881 16.6561 33.4881Z" fill="#34A853"/>
<path d="M7.18019 20.1288C6.82859 19.0925 6.6251 17.9821 6.6251 16.8348C6.6251 15.6873 6.82859 14.577 7.16169 13.5407L7.15238 13.32L1.94683 9.27734L1.77652 9.35836C0.647711 11.6161 0 14.1514 0 16.8348C0 19.5181 0.647711 22.0533 1.77652 24.3111L7.18019 20.1288Z" fill="#FBBC05"/>
<path d="M16.6561 6.61967C19.7835 6.61967 21.8931 7.97059 23.0961 9.09953L27.7965 4.51005C24.9097 1.82671 21.1529 0.179688 16.6561 0.179688C10.142 0.179688 4.51618 3.91784 1.77734 9.35851L7.16252 13.5409C8.51357 9.52512 12.2517 6.61967 16.6561 6.61967Z" fill="#EB4335"/>
</g>
<defs>
<clipPath id="clip0_5228_10736">
<rect width="32.6443" height="33.4059" fill="white" transform="translate(0 0.130859)"/>
</clipPath>
</defs>
</svg>
