<svg width="33" height="35" viewBox="0 0 33 35" fill="none" xmlns="http://www.w3.org/2000/svg">
<g clip-path="url(#clip0_3352_6075)">
<path d="M15.3952 27.0788H4.01408C2.0619 27.0788 0.472656 25.4928 0.472656 23.5419V7.1499C0.472656 5.20019 2.06066 3.61295 4.01408 3.61295H6.02944V2.20757C6.02944 1.51602 6.59305 0.953125 7.28548 0.953125H9.65138C10.3438 0.953125 10.9074 1.51602 10.9074 2.20757V3.61295H16.5348V2.20757C16.5348 1.51602 17.0984 0.953125 17.7908 0.953125H20.1568C20.8566 0.953125 21.4264 1.51602 21.4264 2.20757V3.61295H23.4418C25.3939 3.61295 26.9832 5.19895 26.9832 7.14866V17.1855L26.6091 17.1063C25.9972 16.9764 25.3556 16.9108 24.699 16.9108C24.6706 16.9108 24.6173 16.9108 24.5975 16.9158L24.2184 17.0024L24.2135 16.6152V10.9565H3.24114V23.5295C3.24114 23.9551 3.58673 24.3002 4.01285 24.3002H15.5624L15.4993 24.6627C15.4039 25.2107 15.3556 25.7464 15.3556 26.2574C15.3556 26.4318 15.3556 26.5951 15.368 26.7448L15.3952 27.08V27.0788ZM4.01408 4.23275C2.40378 4.23275 1.092 5.54164 1.092 7.15114V23.5443C1.092 25.1538 2.40254 26.4627 4.01408 26.4627H14.7375C14.7375 26.3947 14.7375 26.3266 14.7375 26.2586C14.7375 25.8268 14.7697 25.3778 14.8341 24.92H4.01285C3.24609 24.92 2.62179 24.2965 2.62179 23.5307V10.3392H24.8328V16.2948C25.3531 16.3009 25.8659 16.348 26.3626 16.4321V7.1499C26.3626 5.54164 25.0508 4.23152 23.4405 4.23152H20.8058V2.20881C20.8058 1.8587 20.5147 1.57293 20.1555 1.57293H17.7896C17.4329 1.57293 17.1529 1.85252 17.1529 2.20881V4.23275H10.2868V2.20881C10.2868 1.85252 10.0069 1.57293 9.65014 1.57293H7.28424C6.92749 1.57293 6.64755 1.85252 6.64755 2.20881V4.23275H4.01285H4.01408Z" fill="#0000FF"/>
<path d="M21.0727 16.9791H18.3687C17.8026 16.9791 17.3418 16.5189 17.3418 15.9535V14.0087C17.3418 13.4433 17.8026 12.9844 18.3687 12.9844H21.0727C21.3552 12.9844 21.6277 13.0994 21.8209 13.2986C22.0104 13.4941 22.1095 13.7502 22.0996 14.0199V15.9535C22.0996 16.5189 21.6401 16.9791 21.074 16.9791H21.0727ZM18.3687 13.6042C18.1482 13.6042 17.9611 13.7897 17.9611 14.01V15.9547C17.9611 16.1749 18.1469 16.3617 18.3687 16.3617H21.0727C21.2932 16.3617 21.479 16.1762 21.479 15.9547V14.01C21.4828 13.8986 21.4456 13.8034 21.3737 13.7291C21.2957 13.6487 21.1879 13.6029 21.0715 13.6029H18.3674L18.3687 13.6042Z" fill="#0000FF"/>
<path d="M15.0845 16.9791H12.3804C11.8143 16.9791 11.3535 16.5189 11.3535 15.9535V14.0087C11.3535 13.4433 11.8143 12.9844 12.3804 12.9844H15.0845C15.6505 12.9844 16.1101 13.4446 16.1101 14.0087V15.9535C16.1101 16.5189 15.6493 16.9791 15.0845 16.9791ZM12.3804 13.6042C12.1599 13.6042 11.9729 13.7897 11.9729 14.01V15.9547C11.9729 16.1749 12.1587 16.3617 12.3804 16.3617H15.0845C15.305 16.3617 15.4908 16.1762 15.4908 15.9547V14.01C15.4908 13.7897 15.305 13.6042 15.0845 13.6042H12.3804Z" fill="#0000FF"/>
<path d="M15.0845 22.2857H12.3804C11.8143 22.2857 11.3535 21.8255 11.3535 21.2614V19.3166C11.3535 18.7512 11.8143 18.291 12.3804 18.291H15.0845C15.6505 18.291 16.1101 18.7512 16.1101 19.3166V21.2614C16.1101 21.8267 15.6493 22.2857 15.0845 22.2857ZM12.3804 18.9096C12.1599 18.9096 11.9729 19.0951 11.9729 19.3166V21.2614C11.9729 21.4816 12.1587 21.6671 12.3804 21.6671H15.0845C15.305 21.6671 15.4908 21.4816 15.4908 21.2614V19.3166C15.4908 19.0964 15.305 18.9096 15.0845 18.9096H12.3804Z" fill="#0000FF"/>
<path d="M9.06884 16.9791H6.36477C5.79869 16.9791 5.33789 16.5189 5.33789 15.9535V14.0087C5.33789 13.4433 5.79869 12.9844 6.36477 12.9844H9.08247C9.35622 12.9844 9.62254 13.0982 9.81453 13.2949C10.0053 13.4916 10.1044 13.7489 10.0957 14.0199V15.9535C10.0957 16.5189 9.63492 16.9791 9.07008 16.9791H9.06884ZM6.36477 13.6042C6.14428 13.6042 5.95724 13.7897 5.95724 14.01V15.9547C5.95724 16.1749 6.14304 16.3617 6.36477 16.3617H9.06884C9.28933 16.3617 9.47637 16.1762 9.47637 15.9547V14.01C9.48009 13.8986 9.44169 13.8009 9.3686 13.7254C9.29304 13.6475 9.18899 13.6029 9.08247 13.6029H6.36477V13.6042Z" fill="#0000FF"/>
<path d="M9.06884 22.2857H6.36477C5.79869 22.2857 5.33789 21.8255 5.33789 21.2614V19.3166C5.33789 18.7512 5.79869 18.291 6.36477 18.291H9.08247C9.35622 18.291 9.62254 18.4048 9.81453 18.6015C10.0053 18.7982 10.1044 19.0556 10.0957 19.3265V21.2601C10.0957 21.8255 9.63492 22.2845 9.07008 22.2845L9.06884 22.2857ZM6.36477 18.9096C6.14428 18.9096 5.95724 19.0951 5.95724 19.3166V21.2614C5.95724 21.4816 6.14304 21.6671 6.36477 21.6671H9.06884C9.28933 21.6671 9.47637 21.4816 9.47637 21.2614V19.3166C9.48009 19.2053 9.44169 19.1075 9.3686 19.0321C9.29304 18.9541 9.18899 18.9096 9.08247 18.9096H6.36477Z" fill="#0000FF"/>
<path d="M24.6965 34.0627C20.3883 34.0627 16.8828 30.5616 16.8828 26.2589C16.8828 21.9562 20.3883 18.4551 24.6965 18.4551C26.7948 18.4551 28.7644 19.2703 30.2409 20.75C31.71 22.2221 32.5164 24.1793 32.5089 26.2589C32.5089 30.5616 29.0034 34.0627 24.6953 34.0627H24.6965ZM24.6965 19.0736C20.729 19.0736 17.5022 22.2964 17.5022 26.2589C17.5022 30.2214 20.729 33.4441 24.6965 33.4441C28.664 33.4441 31.8908 30.2202 31.8908 26.2589C31.897 24.3438 31.155 22.5438 29.8036 21.1879C28.4435 19.8246 26.6301 19.0749 24.6977 19.0749L24.6965 19.0736ZM27.7796 27.6482H24.7101C23.9434 27.6482 23.3191 27.0247 23.3191 26.2589V22.6131C23.3191 21.8473 23.9434 21.2238 24.7101 21.2238C25.4769 21.2238 26.1012 21.8473 26.1012 22.6131V24.8696H27.792C28.5587 24.8696 29.183 25.4931 29.183 26.2589C29.183 27.0247 28.5526 27.6482 27.7784 27.6482H27.7796ZM24.7101 21.8411C24.284 21.8411 23.9384 22.1875 23.9384 22.6118V26.2576C23.9384 26.6832 24.284 27.0284 24.7101 27.0284H27.7796C28.2057 27.0284 28.5649 26.6758 28.5649 26.2576C28.5649 25.8395 28.2181 25.4869 27.7932 25.4869H25.4831V22.6118C25.4831 22.1863 25.1375 21.8411 24.7114 21.8411H24.7101Z" fill="#0000FF"/>
</g>
<defs>
<clipPath id="clip0_3352_6075">
<rect width="32.0555" height="33.0896" fill="white" transform="translate(0.472656 0.955078)"/>
</clipPath>
</defs>
</svg>
