<svg width="63" height="63" viewBox="0 0 63 63" fill="none" xmlns="http://www.w3.org/2000/svg">
<g clip-path="url(#clip0_3352_3651)">
<path d="M62.4674 47.2017H51.5256C51.499 46.1763 50.657 45.3498 49.6249 45.3498H48.9067C47.8724 45.3498 47.0304 46.1763 47.0061 47.2017H45.5695C45.1231 47.2017 44.7607 46.8393 44.7607 46.3929V44.9896C45.7861 44.9631 46.6127 44.1211 46.6127 43.0869V42.3687C46.6127 41.3367 45.7861 40.4947 44.7607 40.4704V20.6744C45.7861 20.6479 46.6127 19.806 46.6127 18.774V18.0557C46.6127 17.0215 45.7861 16.1818 44.7607 16.1575V14.7277C44.7607 8.15113 39.4102 2.80104 32.8332 2.80104H31.348C31.295 1.79776 30.464 1 29.4496 1H28.7314C27.7148 1 26.8838 1.79776 26.8308 2.80104H20.7885C20.7355 1.79997 19.9045 1 18.8879 1H18.1697C17.1553 1 16.3243 1.79997 16.2713 2.80104H14.7817C8.20468 2.80104 2.852 8.15113 2.852 14.7277V16.1575C1.82434 16.184 1 17.0237 1 18.0557V18.774C1 19.8038 1.82434 20.6457 2.852 20.6722V62.4674C2.852 62.7613 3.09068 63 3.38683 63H13.438C13.7342 63 13.9728 62.7613 13.9728 62.4674V20.6722C15.0005 20.6457 15.8248 19.8038 15.8248 18.774V18.0557C15.8248 17.0237 15.0005 16.184 13.9728 16.1575V14.7277C13.9728 14.2813 14.3353 13.9189 14.7817 13.9189H16.2691C16.2691 14.9686 17.1221 15.8216 18.1697 15.8216H18.8879C19.9377 15.8216 20.7908 14.9686 20.7908 13.9211L26.8285 13.9189C26.8285 14.9686 27.6816 15.8216 28.7314 15.8216H29.4496C30.4972 15.8216 31.3503 14.9686 31.3503 13.9211L32.8332 13.9189C33.2796 13.9189 33.642 14.2813 33.642 14.7277V16.1575C32.6166 16.1818 31.79 17.0215 31.79 18.0557V18.774C31.79 19.806 32.6166 20.6479 33.642 20.6744V40.4704C32.6166 40.4947 31.79 41.3367 31.79 42.3687V43.0869C31.79 44.1211 32.6166 44.9631 33.642 44.9896V46.3929C33.642 52.9694 38.9925 58.3217 45.5695 58.3217H47.0061C47.0326 59.3471 47.8746 60.1714 48.9067 60.1714H49.6249C50.6548 60.1714 51.4968 59.3471 51.5233 58.3217H62.4674C62.7613 58.3217 63 58.083 63 57.7869V47.7342C63 47.4403 62.7613 47.2017 62.4674 47.2017ZM50.4603 58.2709C50.4603 58.2886 50.4603 58.304 50.4581 58.3217C50.4316 58.7593 50.0669 59.1062 49.6249 59.1062H48.9067C48.4625 59.1062 48.1 58.7593 48.0735 58.3217C48.0735 58.304 48.0735 58.2886 48.0735 58.2709V47.2503C48.0735 47.2348 48.0735 47.2171 48.0735 47.2017C48.0978 46.7641 48.4603 46.415 48.9067 46.415H49.6249C50.0691 46.415 50.4338 46.7641 50.4581 47.2017C50.4603 47.2171 50.4603 47.2348 50.4603 47.2503V58.2709ZM32.8553 43.0869V42.3687C32.8553 41.9245 33.2045 41.5599 33.642 41.5356C33.6575 41.5334 33.6752 41.5334 33.6907 41.5334H44.7121C44.7275 41.5334 44.7452 41.5334 44.7607 41.5356C45.1983 41.5599 45.5474 41.9245 45.5474 42.3687V43.0869C45.5474 43.5333 45.1983 43.8957 44.7607 43.92C44.7452 43.9222 44.7275 43.9222 44.7121 43.9222H33.6907C33.6752 43.9222 33.6575 43.9222 33.642 43.92C33.2045 43.8957 32.8553 43.5333 32.8553 43.0869ZM32.8553 18.774V18.0557C32.8553 17.6116 33.2045 17.2469 33.642 17.2226C33.6575 17.2204 33.6752 17.2204 33.6907 17.2204H44.7121C44.7275 17.2204 44.7452 17.2204 44.7607 17.2226C45.1983 17.2469 45.5474 17.6116 45.5474 18.0557V18.774C45.5474 19.2181 45.1983 19.5828 44.7607 19.6071C44.7452 19.6093 44.7275 19.6093 44.7121 19.6093H33.6907C33.6752 19.6093 33.6575 19.6093 33.642 19.6071C33.2045 19.5828 32.8553 19.2181 32.8553 18.774ZM30.285 13.9189C30.285 14.3807 29.9093 14.7564 29.4496 14.7564H28.7314C28.2695 14.7564 27.896 14.3807 27.896 13.9211V2.90048C27.896 2.86734 27.8982 2.83419 27.9026 2.80104C27.9512 2.38559 28.3026 2.06516 28.7314 2.06516H29.4496C29.8762 2.06516 30.2298 2.38559 30.2784 2.80104C30.2828 2.83419 30.285 2.86734 30.285 2.90048V13.9189ZM19.7233 13.9189C19.7233 14.3807 19.3498 14.7564 18.8879 14.7564H18.1697C17.71 14.7564 17.3365 14.3807 17.3365 13.9211V2.90048C17.3365 2.86734 17.3365 2.83419 17.3431 2.80104C17.3917 2.3878 17.7431 2.06516 18.1697 2.06516H18.8879C19.3167 2.06516 19.6681 2.3878 19.7167 2.80104C19.7211 2.83419 19.7233 2.86734 19.7233 2.90048V13.9189ZM14.7574 18.0557V18.774C14.7574 19.2159 14.4104 19.5806 13.9728 19.6071C13.9552 19.6093 13.9397 19.6093 13.922 19.6093H2.90283C2.88515 19.6093 2.86968 19.6093 2.852 19.6071C2.41442 19.5806 2.06744 19.2159 2.06744 18.774V18.0557C2.06744 17.6138 2.41442 17.2491 2.852 17.2226C2.86968 17.2204 2.88515 17.2204 2.90283 17.2204H13.922C13.9397 17.2204 13.9552 17.2204 13.9728 17.2226C14.4104 17.2491 14.7574 17.6138 14.7574 18.0557ZM3.91944 61.9348V20.6744H12.9054V61.9348H3.91944ZM14.7817 12.8537C13.7474 12.8537 12.9054 13.6935 12.9054 14.7277V16.1553H3.91944V14.7277C3.91944 8.74116 8.79254 3.86841 14.7817 3.86841H16.2691V12.8537H14.7817ZM20.7908 12.8537V3.86841H26.8285V12.8537H20.7908ZM32.8332 12.8537H31.3503V3.86841H32.8332C38.8223 3.86841 43.6954 8.74116 43.6954 14.7277V16.1553H34.7073V14.7277C34.7073 13.6935 33.8675 12.8537 32.8332 12.8537ZM43.6954 20.6744V40.4682H34.7073V20.6744H43.6954ZM34.7073 46.3929V44.9896H43.6954V46.3929C43.6954 47.4271 44.5353 48.269 45.5695 48.269H47.0038V57.2543H45.5695C39.5804 57.2543 34.7073 52.3816 34.7073 46.3929ZM61.9348 57.2543H51.5256V48.269H61.9348V57.2543Z" fill="#0000FF"/>
</g>
<defs>
<clipPath id="clip0_3352_3651">
<rect width="62" height="62" fill="white" transform="translate(0.5 0.5)"/>
</clipPath>
</defs>
</svg>
