<svg width="46" height="63" viewBox="0 0 46 63" fill="none" xmlns="http://www.w3.org/2000/svg">
<g clip-path="url(#clip0_3352_3679)">
<path d="M14.7141 61.2534C14.5836 61.2143 14.4572 61.1717 14.3308 61.1291C14.2655 61.1078 14.2003 61.083 14.135 61.0617C14.0983 61.0475 14.0616 61.0333 14.0208 61.0226C13.8536 60.9623 14.0575 61.0368 14.0086 61.0191C13.8129 60.9445 13.6171 60.87 13.4254 60.7919C12.2265 60.3091 11.0765 59.7376 9.9836 59.095C6.88839 57.2739 4.14796 54.6753 2.7125 51.5585C0.510373 46.766 1.46463 41.5014 3.58112 36.8226C4.38041 35.0547 5.34282 33.3259 6.47243 31.6964C7.70807 29.9144 9.13945 28.253 10.5627 26.5845C12.5242 24.2877 14.498 21.9554 16.0028 19.4029C17.2425 17.3049 18.0458 15.0862 18.3925 12.7468C18.8207 9.84646 18.6208 6.88934 18.3272 3.98548C18.2293 3.02699 18.1152 2.0685 17.9969 1.11001C17.585 1.25911 17.1772 1.40466 16.7653 1.55376C17.7481 2.37735 18.6371 3.29678 19.4895 4.21977C21.557 6.44915 23.3636 8.87377 24.8643 11.4262C26.7932 14.717 28.2042 18.2883 28.7221 21.9625C28.9056 23.2617 29.0524 24.6214 28.9178 25.9278C28.824 26.8188 28.8159 27.7169 28.8689 28.608C29.0646 31.8846 30.1779 35.4452 33.5097 37.3373C34.0276 37.632 34.7698 37.1421 34.5699 36.6273C34.1091 35.431 33.8522 34.1459 33.7013 32.8928C33.3751 30.1806 33.5994 27.3974 34.7127 24.8308C35.4834 23.0523 36.7191 21.4619 38.2809 20.1378C37.8691 19.9887 37.4613 19.8431 37.0494 19.694C36.7354 21.8418 36.8781 24.0853 37.1636 26.226C37.449 28.3808 37.9465 30.5143 38.7091 32.5839C39.5492 34.8737 40.7563 36.9681 42.1061 39.0555C45.1646 43.7947 45.5928 50.0888 42.1632 54.7676C39.6471 58.2004 35.3978 60.2062 30.9854 61.2498C31.2178 61.6013 31.4543 61.9492 31.6868 62.3006C35.1939 58.5164 36.3684 52.9891 34.1377 48.4984C33.1263 46.4607 31.4217 44.9058 29.8843 43.1735C28.5059 41.6221 27.254 39.9785 26.2019 38.2461C24.8928 36.0877 23.8407 33.6773 23.5715 31.2598C23.49 30.5179 23.4859 29.783 23.5634 29.0411C23.5756 28.931 23.5879 28.8813 23.5675 28.9878C23.5756 28.9417 23.5838 28.892 23.5919 28.8458C23.6082 28.7642 23.6246 28.6825 23.6449 28.5973C23.6613 28.5299 23.6776 28.4624 23.702 28.3985C23.9019 27.8234 22.968 27.2945 22.4949 27.7879C21.1737 29.1618 20.0278 30.6883 18.996 32.236C17.0141 35.2109 15.4237 38.5053 15.073 41.9558C14.865 44.0112 15.1994 46.056 16.1577 47.9446L17.1446 47.0855C17.0753 47.0394 17.3036 47.2204 17.2098 47.1281C17.165 47.0855 17.0997 47.05 17.0467 47.0145C16.851 46.8761 16.6634 46.7305 16.4799 46.585C15.8886 46.1128 15.3299 45.6052 14.8324 45.0549C13.6049 43.7095 12.618 41.9842 12.9809 40.2234C13.1155 39.5702 12.0634 39.0591 11.6597 39.7406C10.7095 41.3488 10.0529 43.1344 9.56357 44.8845C8.56037 48.4771 8.36055 52.3359 9.63289 55.8965C10.4934 58.3105 12.0145 60.4795 14.0208 62.2971C14.6652 62.8828 15.6847 61.9918 15.0403 61.4096C11.7738 58.4489 10.1712 54.5795 10.1834 50.497C10.1916 47.5648 10.9297 44.6431 12.1368 41.9132C12.3937 41.3275 12.5568 40.9618 12.9035 40.3725C12.463 40.2128 12.0226 40.0495 11.5822 39.8897C10.9093 43.1664 13.5396 46.2868 16.4106 48.1718C17.059 48.5978 17.6503 47.8061 17.3974 47.3127C15.7988 44.1639 16.4309 40.582 17.7359 37.4474C18.8451 34.7849 20.4886 32.2822 22.3726 29.9818C22.5357 29.783 22.7029 29.5842 22.8701 29.3854C22.9354 29.3109 22.9965 29.2363 23.0618 29.1653C23.0903 29.1334 23.1189 29.0979 23.1474 29.0659C23.1923 29.0162 23.0618 29.1618 23.1597 29.0517C23.2738 28.9239 23.388 28.7997 23.5063 28.6754C23.1026 28.4731 22.7029 28.2672 22.2992 28.0648C22.0382 28.821 22.026 29.6836 22.0545 30.4682C22.1402 32.6975 22.866 34.8737 23.8652 36.9149C24.6155 38.4449 25.5412 39.911 26.5811 41.3062C27.2336 42.1795 27.9309 43.0244 28.6609 43.8515C29.4561 44.7532 30.3451 45.591 31.124 46.5033C33.579 49.3752 34.4313 52.8897 33.4077 56.3615C33.0285 57.6573 32.4331 58.8927 31.6705 60.0535C31.4299 60.4156 31.177 60.7706 30.9038 61.1149C30.8223 61.2179 30.7325 61.3208 30.6469 61.4238C30.5246 61.5693 30.7488 61.3137 30.651 61.4167C30.2228 61.8782 30.602 62.645 31.3524 62.4675C35.5283 61.4806 39.5859 59.6808 42.3304 56.6917C44.5325 54.2955 45.7355 51.3739 45.9598 48.3209C46.1678 45.4632 45.5153 42.5735 44.2104 39.9536C43.3336 38.1964 42.0816 36.6096 41.2008 34.8488C40.0997 32.6407 39.3494 30.2942 38.8804 27.9228C38.3543 25.2568 38.0893 22.3991 38.4848 19.6976C38.5664 19.1296 37.6611 18.9095 37.2533 19.2538C32.2618 23.4818 31.2871 29.8292 32.7348 35.541C32.8572 36.0203 32.9877 36.4995 33.1671 36.9646C33.5219 36.7267 33.8726 36.4924 34.2274 36.2546C31.4258 34.6642 30.5123 31.5473 30.3166 28.8068C30.2513 27.8767 30.2554 26.9395 30.3451 26.0094C30.4675 24.7705 30.3574 23.5102 30.1983 22.2784C29.3419 15.5512 25.8104 9.26781 21.0799 3.96773C20.0563 2.82109 18.9797 1.67445 17.7767 0.666266C17.3648 0.32192 16.4717 0.542018 16.5451 1.11001C17.2384 6.63374 18.0132 12.5906 15.285 17.809C13.9801 20.3046 12.149 22.5695 10.3017 24.7776C8.96002 26.3786 7.56126 27.9441 6.29708 29.5913C4.99211 31.2917 3.87473 33.0809 2.92456 34.9518C0.412501 39.8933 -1.04743 45.5697 0.893706 50.8627C2.19052 54.3949 4.86977 57.3413 8.24637 59.5565C9.42491 60.3268 10.6809 61.0084 11.9981 61.5835C12.7118 61.8959 13.4621 62.2367 14.2288 62.4355C14.2614 62.4426 14.2941 62.4568 14.3267 62.4675C15.2075 62.7266 15.5868 61.5125 14.71 61.2569L14.7141 61.2534Z" fill="#0000FF"/>
</g>
<defs>
<clipPath id="clip0_3352_3679">
<rect width="46" height="62" fill="white" transform="translate(0 0.5)"/>
</clipPath>
</defs>
</svg>
