<svg width="60" height="61" viewBox="0 0 60 61" fill="none" xmlns="http://www.w3.org/2000/svg">
<g clip-path="url(#clip0_3352_3690)">
<path d="M13.0857 13.5827C16.606 10.0864 21.1189 7.74065 26.0096 6.90607C30.732 6.09898 35.7188 6.75839 40.0634 8.78129C44.6243 10.9072 48.4572 14.4619 50.9128 18.8546C53.2723 23.0789 54.2717 27.9765 53.8218 32.7882C53.3685 37.6513 51.3696 42.3497 48.1859 46.052C44.93 49.8368 40.5545 52.55 35.7051 53.7384C31.0308 54.882 26.0645 54.5764 21.5585 52.8935C16.8945 51.1488 12.8213 47.8826 10.0668 43.7372C7.38107 39.688 5.98668 34.8694 6.08284 30.0131C6.17901 25.143 7.78633 20.3726 10.6438 16.4298C11.3788 15.4167 12.203 14.4688 13.0857 13.5827C13.6387 13.0263 12.78 12.1677 12.2271 12.724C8.57626 16.3955 6.08628 21.1419 5.22423 26.2558C4.37935 31.2839 5.06624 36.4836 7.20591 41.1133C9.4074 45.8769 13.1647 49.9055 17.7463 52.4642C22.1664 54.9301 27.325 56.0188 32.3633 55.5346C37.5185 55.04 42.4229 52.9656 46.3622 49.5964C50.3221 46.21 53.1761 41.5907 54.416 36.5283C55.6146 31.6342 55.3261 26.3863 53.5436 21.6674C51.6856 16.7424 48.2923 12.4802 43.9134 9.55748C39.665 6.72061 34.5476 5.2541 29.4475 5.36744C24.3507 5.48077 19.3158 7.16022 15.2013 10.1791C14.147 10.9519 13.1544 11.8036 12.2271 12.724C11.6707 13.277 12.5328 14.1356 13.0857 13.5827Z" fill="#0000FF"/>
<path d="M16.2105 16.707C21.9529 11.0058 30.8756 9.36072 38.2322 12.8089C41.9346 14.5433 45.0393 17.4283 47.0382 20.9967C48.9684 24.4449 49.7823 28.4426 49.4148 32.3716C48.6558 40.5181 42.5974 47.4798 34.6673 49.434C26.7371 51.3882 18.199 48.0533 13.7068 41.2256C9.29349 34.5147 9.50299 25.5611 14.2013 19.0528C14.8058 18.2148 15.4824 17.4386 16.2105 16.707C16.7634 16.1506 15.9014 15.292 15.3519 15.8484C12.3433 18.8776 10.2861 22.7929 9.58199 27.0104C8.89166 31.1455 9.45148 35.4077 11.2065 39.2165C14.8298 47.0917 23.3301 51.9514 31.9506 51.1237C40.6055 50.2892 48.0273 43.9526 50.1155 35.4901C51.1115 31.4546 50.8745 27.1203 49.408 23.2291C47.8762 19.1627 45.0806 15.6492 41.4675 13.2348C34.3753 8.49867 24.7108 8.691 17.8281 13.7328C16.9523 14.375 16.1246 15.0791 15.3553 15.845C14.7989 16.3979 15.6575 17.2565 16.2139 16.7036L16.2105 16.707Z" fill="#0000FF"/>
<path d="M27.5922 28.0891C28.5985 27.1034 30.1268 26.7978 31.4044 27.3885C32.7439 28.0101 33.5235 29.4011 33.393 30.847C33.2659 32.2483 32.1875 33.4641 30.8068 33.8075C29.4639 34.1406 27.9528 33.5843 27.1663 32.3925C26.2733 31.0359 26.4485 29.2568 27.5922 28.0926C28.1417 27.5327 27.2796 26.6741 26.7335 27.2339C25.3666 28.6318 25.0129 30.7096 25.8268 32.4818C26.6202 34.2093 28.5401 35.2946 30.429 35.0989C32.3523 34.8997 34.0112 33.5224 34.4817 31.63C34.9488 29.7445 34.1726 27.756 32.5721 26.6638C30.7622 25.424 28.2756 25.7193 26.7301 27.2339C26.1703 27.7835 27.0289 28.6421 27.5887 28.0926L27.5922 28.0891Z" fill="#0000FF"/>
<path d="M34.2461 30.6863C36.5609 30.937 38.2095 29.1202 39.9611 27.9353C40.8334 27.348 41.8775 26.8088 42.9593 27.0595C43.8592 27.269 44.5804 27.9456 45.0681 28.7046C46.2015 30.463 46.4247 32.8981 45.3154 34.7149C44.1958 36.5489 42.0286 37.0572 40.0332 36.5764C37.5775 35.9891 35.7058 34.1379 33.9542 32.4344C33.3944 31.8883 32.5323 32.747 33.0956 33.293C34.8884 35.0377 36.7911 36.8649 39.2433 37.6205C41.4791 38.3074 44.1168 38.0086 45.731 36.1814C47.4001 34.2959 47.6302 31.5827 46.7235 29.2919C45.913 27.2415 44.0652 25.4419 41.7058 25.8437C40.3011 26.0807 39.1437 26.9977 38.0549 27.8529C36.9559 28.7183 35.7229 29.625 34.2496 29.4636C33.4734 29.3812 33.4768 30.597 34.2496 30.6794L34.2461 30.6863Z" fill="#0000FF"/>
<path d="M29.616 25.9942C29.8667 23.6793 28.0499 22.0308 26.865 20.2792C26.2777 19.4069 25.7385 18.3628 25.9892 17.2809C26.1987 16.3811 26.8753 15.6599 27.6343 15.1722C29.3927 14.0388 31.8278 13.8156 33.6446 14.9249C35.4786 16.0445 35.9869 18.2117 35.5061 20.2071C34.9188 22.6627 33.0676 24.5345 31.3641 26.2861C30.818 26.8459 31.6767 27.708 32.2227 27.1447C33.9674 25.3519 35.7946 23.4492 36.5501 20.997C37.237 18.7612 36.9382 16.1235 35.1111 14.5093C33.2256 12.8402 30.5124 12.6101 28.2216 13.5168C26.1712 14.3273 24.3716 16.175 24.7734 18.5345C25.0104 19.9392 25.9274 21.0966 26.7825 22.1853C27.648 23.2844 28.5547 24.5173 28.3933 25.9907C28.3109 26.7669 29.5267 26.7635 29.6091 25.9907L29.616 25.9942Z" fill="#0000FF"/>
<path d="M25.6348 30.2125C23.32 29.9617 21.6714 31.7786 19.9198 32.9635C19.0475 33.5508 18.0034 34.09 16.9216 33.8392C16.0217 33.6297 15.3005 32.9532 14.8128 32.1941C13.6794 30.4357 13.4562 28.0007 14.5655 26.1838C15.6852 24.3498 17.8523 23.8415 19.8477 24.3224C22.3034 24.9097 24.1751 26.7608 25.9267 28.4643C26.4865 29.0104 27.3486 28.1518 26.7853 27.6057C24.9925 25.861 23.0899 24.0339 20.6377 23.2783C18.4018 22.5914 15.7642 22.8902 14.15 24.7173C12.4808 26.6028 12.2507 29.3161 13.1574 31.6068C13.9679 33.6572 15.8157 35.4569 18.1751 35.055C19.5798 34.8181 20.7372 33.9011 21.826 33.0459C22.925 32.1804 24.158 31.2737 25.6314 31.4351C26.4075 31.5176 26.4041 30.3018 25.6314 30.2193L25.6348 30.2125Z" fill="#0000FF"/>
<path d="M30.2691 34.9082C30.0184 37.2231 31.8352 38.8716 33.0201 40.6232C33.6074 41.4955 34.1466 42.5396 33.8959 43.6215C33.6864 44.5213 33.0098 45.2425 32.2508 45.7302C30.4923 46.8636 28.0573 47.0868 26.2405 45.9775C24.4065 44.8579 23.8982 42.6907 24.379 40.6953C24.9663 38.2397 26.8175 36.3679 28.521 34.6163C29.067 34.0565 28.2084 33.1944 27.6623 33.7577C25.9176 35.5505 24.0905 37.4532 23.3349 39.9054C22.648 42.1412 22.9468 44.7789 24.774 46.3931C26.6595 48.0622 29.3727 48.2923 31.6635 47.3856C33.7139 46.5751 35.5135 44.7273 35.1117 42.3679C34.8747 40.9632 33.9577 39.8058 33.1025 38.717C32.237 37.618 31.3303 36.385 31.4918 34.9117C31.5742 34.1355 30.3584 34.1389 30.276 34.9117L30.2691 34.9082Z" fill="#0000FF"/>
<path d="M3.54513 1.71988H55.2715C56.0408 1.71988 56.9029 1.62372 57.5932 2.01525C58.7506 2.6678 58.7815 3.79086 58.7815 4.92423V50.6438C58.7815 52.7388 58.8193 54.8407 58.7815 56.9357C58.7575 58.2305 57.7649 59.2539 56.4598 59.2814C56.319 59.2814 56.1816 59.2814 56.0408 59.2814H3.75463C2.31902 59.2814 1.2303 58.3129 1.22343 56.8395C1.22 56.0771 1.22343 55.3146 1.22343 54.5522V4.63574C1.22343 4.44685 1.22343 4.25795 1.22343 4.06905C1.24747 2.7674 2.2366 1.7508 3.54513 1.71988C4.32475 1.70271 4.32818 0.486914 3.54513 0.504086C1.59092 0.552169 0.0488456 2.08394 0.00763213 4.04158C0.00763213 4.18239 0.00763213 4.31977 0.00763213 4.46058V49.871C0.00763213 52.203 -0.00954016 54.535 0.00763213 56.867C0.02137 58.9208 1.60809 60.4835 3.65503 60.4938C4.43465 60.4972 5.21771 60.4938 5.99733 60.4938H56.082C56.2778 60.4938 56.477 60.5006 56.6728 60.4869C58.5411 60.353 59.9596 58.8212 59.9973 56.9597C60.0076 56.4205 59.9973 55.8813 59.9973 55.3455V4.86585C59.9973 3.55389 59.8634 2.29344 58.7678 1.3627C57.7821 0.528128 56.6762 0.504086 55.4913 0.504086H3.54513C2.76207 0.504086 2.75863 1.71988 3.54513 1.71988Z" fill="#0000FF"/>
<path d="M4.62211 6.5156C4.62898 6.12751 4.72515 5.82871 4.96899 5.47496C5.0789 5.31697 4.93121 5.51617 5.00334 5.43031C5.03768 5.39253 5.06859 5.35475 5.10637 5.31697C5.13385 5.2895 5.16476 5.25859 5.19223 5.23111C5.19223 5.23111 5.34335 5.1006 5.25405 5.16929C5.33305 5.10747 5.42234 5.05252 5.5082 5.00444C5.54255 4.98383 5.58033 4.96666 5.61811 4.94605C5.68336 4.91514 5.69367 4.91171 5.64215 4.93231C5.66962 4.92201 5.70053 4.90827 5.72801 4.9014C6.48016 4.65069 7.19452 4.83958 7.70626 5.45092C7.65131 5.38566 7.71313 5.46122 7.72343 5.47152C7.75777 5.52304 7.79212 5.57112 7.82303 5.62608C7.84364 5.66042 7.86424 5.6982 7.88142 5.73254C7.88142 5.73254 7.96728 5.91457 7.92263 5.81154C7.96384 5.9077 7.99475 6.0073 8.01879 6.1069C8.0291 6.14811 8.03597 6.18933 8.04627 6.23054C8.06001 6.3061 8.06001 6.31297 8.05314 6.25802C8.05657 6.28893 8.06001 6.32327 8.06001 6.35418C8.06688 6.45035 8.06688 6.54994 8.06001 6.64611C8.06001 6.64611 8.03597 6.85218 8.05314 6.73884C8.04627 6.78005 8.0394 6.82127 8.0291 6.86248C8.00506 6.96551 7.97415 7.06168 7.9398 7.16128C7.88142 7.333 7.99132 7.08229 7.90546 7.24371C7.87455 7.29866 7.85051 7.35361 7.81616 7.40512C7.62383 7.72453 7.40059 7.9306 7.00906 8.10919C7.0331 8.09889 7.09836 8.07828 6.98502 8.11949C6.92664 8.1401 6.86825 8.16071 6.80643 8.17788C6.76522 8.18818 6.724 8.19848 6.68622 8.20879C6.7034 8.20535 6.50076 8.24313 6.57976 8.22939C6.65875 8.21909 6.45268 8.2397 6.46985 8.23626C6.4149 8.23626 6.35995 8.2397 6.30843 8.23626C6.25348 8.23626 6.20196 8.23283 6.14701 8.22939C6.01307 8.22253 6.17449 8.24313 6.05772 8.21566C5.76922 8.14697 5.67649 8.12293 5.45669 7.99242C5.42234 7.97181 5.388 7.9512 5.35365 7.92716C5.31931 7.90312 5.2884 7.88251 5.25405 7.85847C5.2987 7.88938 5.29183 7.88251 5.23688 7.83787C5.16476 7.76918 5.09263 7.69705 5.02395 7.62493C4.77666 7.36735 4.62898 6.90369 4.62211 6.51903C4.61181 5.73598 3.39601 5.73598 3.40632 6.51903C3.42349 7.76231 4.18937 8.84416 5.34678 9.28034C6.46642 9.70278 7.82646 9.34216 8.58548 8.41486C9.36854 7.45664 9.51622 6.09316 8.87397 5.01474C8.23173 3.93976 6.98846 3.41772 5.76922 3.63409C4.39887 3.88137 3.42692 5.14869 3.40632 6.5156C3.39601 7.29866 4.61181 7.29866 4.62211 6.5156Z" fill="#0000FF"/>
<path d="M51.856 6.5156C51.8629 6.12751 51.959 5.82871 52.2029 5.47496C52.3128 5.31697 52.1651 5.51617 52.2372 5.43031C52.2716 5.39253 52.3025 5.35475 52.3403 5.31697C52.3677 5.2895 52.3987 5.25859 52.4261 5.23111C52.4261 5.23111 52.5773 5.1006 52.488 5.16929C52.5669 5.10747 52.6562 5.05252 52.7421 5.00444C52.7765 4.98383 52.8142 4.96666 52.852 4.94605C52.9173 4.91514 52.9276 4.91171 52.8761 4.93231C52.9035 4.92201 52.9344 4.90827 52.9619 4.9014C53.7141 4.65069 54.4284 4.83958 54.9402 5.45092C54.8852 5.38566 54.947 5.46122 54.9573 5.47152C54.9917 5.52304 55.026 5.57112 55.0569 5.62608C55.0775 5.66042 55.0981 5.6982 55.1153 5.73254C55.1153 5.73254 55.2012 5.91457 55.1565 5.81154C55.1977 5.9077 55.2287 6.0073 55.2527 6.1069C55.263 6.14811 55.2699 6.18933 55.2802 6.23054C55.2939 6.3061 55.2939 6.31297 55.287 6.25802C55.2905 6.28893 55.2939 6.32327 55.2939 6.35418C55.3008 6.45035 55.3008 6.54994 55.2939 6.64611C55.2939 6.64611 55.2699 6.85218 55.287 6.73884C55.2802 6.78005 55.2733 6.82127 55.263 6.86248C55.239 6.96551 55.208 7.06168 55.1737 7.16128C55.1153 7.333 55.2252 7.08229 55.1359 7.24371C55.105 7.29866 55.081 7.35361 55.0466 7.40512C54.8543 7.72453 54.6311 7.9306 54.2395 8.10919C54.2636 8.09889 54.3288 8.07828 54.2155 8.11949C54.1571 8.1401 54.0987 8.16071 54.0369 8.17788C53.9957 8.18818 53.9545 8.19848 53.9167 8.20879C53.9339 8.20535 53.7312 8.24313 53.8102 8.22939C53.8892 8.21909 53.6831 8.2397 53.7003 8.23626C53.6454 8.23626 53.5904 8.2397 53.5389 8.23626C53.4839 8.23626 53.4324 8.23283 53.3775 8.22939C53.2435 8.22253 53.405 8.24313 53.2882 8.21566C52.9997 8.14697 52.907 8.12293 52.6872 7.99242C52.6528 7.97181 52.6185 7.9512 52.5841 7.92716C52.5498 7.90312 52.5189 7.88251 52.4845 7.85847C52.5292 7.88938 52.5223 7.88251 52.4674 7.83787C52.3952 7.76918 52.3231 7.69705 52.2544 7.62493C52.0071 7.36735 51.8594 6.90369 51.8526 6.51903C51.8423 5.73598 50.6265 5.73598 50.6368 6.51903C50.654 7.76231 51.4198 8.84416 52.5773 9.28034C53.6969 9.70278 55.0569 9.34216 55.8159 8.41486C56.599 7.45664 56.7467 6.09316 56.1044 5.01474C55.4622 3.93976 54.2189 3.41772 52.9997 3.63409C51.6293 3.88137 50.6574 5.14869 50.6368 6.5156C50.6265 7.29866 51.8423 7.29866 51.8526 6.5156H51.856Z" fill="#0000FF"/>
<path d="M4.66118 53.8105C4.66805 53.4224 4.76421 53.1236 5.00806 52.7699C5.11796 52.6119 4.97028 52.8111 5.0424 52.7252C5.07675 52.6875 5.10766 52.6497 5.14543 52.6119C5.17291 52.5844 5.20382 52.5535 5.2313 52.526C5.2313 52.526 5.38241 52.3955 5.29312 52.4642C5.37211 52.4024 5.46141 52.3474 5.54727 52.2994C5.58161 52.2787 5.61939 52.2616 5.65717 52.241C5.72242 52.2101 5.73273 52.2066 5.68121 52.2272C5.70869 52.2169 5.7396 52.2032 5.76707 52.1963C6.51922 51.9456 7.23359 52.1345 7.74532 52.7458C7.69037 52.6806 7.75219 52.7561 7.76249 52.7664C7.79684 52.818 7.83118 52.866 7.86209 52.921C7.8827 52.9553 7.90331 52.9931 7.92048 53.0275C7.92048 53.0275 8.00634 53.2095 7.96169 53.1065C8.00291 53.2026 8.03381 53.3022 8.05786 53.4018C8.06816 53.443 8.07503 53.4842 8.08533 53.5255C8.09907 53.601 8.09907 53.6079 8.0922 53.5529C8.09564 53.5838 8.09907 53.6182 8.09907 53.6491C8.10594 53.7453 8.10594 53.8449 8.09907 53.941C8.09907 53.941 8.07503 54.1471 8.0922 54.0338C8.08533 54.075 8.07846 54.1162 8.06816 54.1574C8.04412 54.2604 8.01321 54.3566 7.97886 54.4562C7.92048 54.6279 8.03038 54.3772 7.94452 54.5386C7.91361 54.5936 7.88957 54.6485 7.85522 54.7C7.66289 55.0195 7.43965 55.2255 7.04813 55.4041C7.07217 55.3938 7.13742 55.3732 7.02408 55.4144C6.9657 55.435 6.90731 55.4556 6.84549 55.4728C6.80428 55.4831 6.76307 55.4934 6.72529 55.5037C6.74246 55.5003 6.53983 55.5381 6.61882 55.5243C6.69781 55.514 6.49174 55.5346 6.50892 55.5312C6.45396 55.5312 6.39901 55.5346 6.3475 55.5312C6.29254 55.5312 6.24103 55.5277 6.18608 55.5243C6.05213 55.5174 6.21355 55.5381 6.09678 55.5106C5.80829 55.4419 5.71556 55.4178 5.49575 55.2873C5.46141 55.2667 5.42706 55.2461 5.39272 55.2221C5.35837 55.198 5.32746 55.1774 5.29312 55.1534C5.33776 55.1843 5.3309 55.1774 5.27594 55.1328C5.20382 55.0641 5.1317 54.992 5.06301 54.9199C4.81573 54.6623 4.66805 54.1986 4.66118 53.814C4.65087 53.0309 3.43507 53.0309 3.44538 53.814C3.46255 55.0572 4.22843 56.1391 5.38585 56.5753C6.50548 56.9977 7.86553 56.6371 8.62454 55.7098C9.4076 54.7516 9.55528 53.3881 8.91304 52.3097C8.27079 51.2347 7.02752 50.7126 5.80829 50.929C4.43794 51.1763 3.46598 52.4436 3.44538 53.8105C3.43507 54.5936 4.65087 54.5936 4.66118 53.8105Z" fill="#0000FF"/>
<path d="M51.8956 53.8105C51.9024 53.4224 51.9986 53.1236 52.2424 52.7699C52.3523 52.6119 52.2047 52.8111 52.2768 52.7252C52.3111 52.6875 52.342 52.6497 52.3798 52.6119C52.4073 52.5844 52.4382 52.5535 52.4657 52.526C52.4657 52.526 52.6168 52.3955 52.5275 52.4642C52.6065 52.4024 52.6958 52.3474 52.7816 52.2994C52.816 52.2787 52.8538 52.2616 52.8915 52.241C52.9568 52.2101 52.9671 52.2066 52.9156 52.2272C52.9431 52.2169 52.974 52.2032 53.0015 52.1963C53.7536 51.9456 54.468 52.1345 54.9797 52.7458C54.9247 52.6806 54.9866 52.7561 54.9969 52.7664C55.0312 52.818 55.0656 52.866 55.0965 52.921C55.1171 52.9553 55.1377 52.9931 55.1549 53.0275C55.1549 53.0275 55.2407 53.2095 55.1961 53.1065C55.2373 53.2026 55.2682 53.3022 55.2922 53.4018C55.3025 53.443 55.3094 53.4842 55.3197 53.5255C55.3334 53.601 55.3334 53.6079 55.3266 53.5529C55.33 53.5838 55.3334 53.6182 55.3334 53.6491C55.3403 53.7453 55.3403 53.8449 55.3334 53.941C55.3334 53.941 55.3094 54.1471 55.3266 54.0338C55.3197 54.075 55.3128 54.1162 55.3025 54.1574C55.2785 54.2604 55.2476 54.3566 55.2132 54.4562C55.1549 54.6279 55.2648 54.3772 55.1789 54.5386C55.148 54.5936 55.1239 54.6485 55.0896 54.7C54.8973 55.0195 54.674 55.2255 54.2825 55.4041C54.3065 55.3938 54.3718 55.3732 54.2585 55.4144C54.2001 55.435 54.1417 55.4556 54.0799 55.4728C54.0387 55.4831 53.9974 55.4934 53.9597 55.5037C53.9768 55.5003 53.7742 55.5381 53.8532 55.5243C53.9322 55.514 53.7261 55.5346 53.7433 55.5312C53.6883 55.5312 53.6334 55.5346 53.5819 55.5312C53.5269 55.5312 53.4754 55.5277 53.4204 55.5243C53.2865 55.5174 53.4479 55.5381 53.3312 55.5106C53.0427 55.4419 52.9499 55.4178 52.7301 55.2873C52.6958 55.2667 52.6614 55.2461 52.6271 55.2221C52.5927 55.198 52.5618 55.1774 52.5275 55.1534C52.5721 55.1843 52.5653 55.1774 52.5103 55.1328C52.4382 55.0641 52.3661 54.992 52.2974 54.9199C52.0501 54.6623 51.9024 54.1986 51.8956 53.814C51.8853 53.0309 50.6694 53.0309 50.6798 53.814C50.6969 55.0572 51.4628 56.1391 52.6202 56.5753C53.7399 56.9977 55.0999 56.6371 55.8589 55.7098C56.642 54.7516 56.7897 53.3881 56.1474 52.3097C55.5052 51.2347 54.2619 50.7126 53.0427 50.929C51.6723 51.1763 50.7004 52.4436 50.6798 53.8105C50.6694 54.5936 51.8853 54.5936 51.8956 53.8105Z" fill="#0000FF"/>
</g>
<defs>
<clipPath id="clip0_3352_3690">
<rect width="60" height="59.9931" fill="white" transform="translate(0 0.503906)"/>
</clipPath>
</defs>
</svg>
