<svg width="17" height="17" viewBox="0 0 17 17" fill="none" xmlns="http://www.w3.org/2000/svg">
<path d="M1.24535 7.65453C0.959728 6.88168 0.758115 6.09203 0.808519 5.25197C0.842121 4.73114 1.04373 4.29431 1.43016 3.92469C1.83338 3.53826 2.23661 3.11824 2.63984 2.73181C3.16067 2.21098 3.83271 2.21098 4.35355 2.73181C4.67277 3.05103 5.00879 3.38705 5.32801 3.70627C5.64723 4.0255 5.96645 4.32791 6.26887 4.64714C6.8233 5.20157 6.8233 5.85681 6.26887 6.41125C5.88244 6.81447 5.47922 7.2009 5.07599 7.58732C4.97518 7.68813 4.95838 7.77214 5.00879 7.90654C5.2776 8.54499 5.64723 9.09942 6.08406 9.63706C6.94091 10.6955 7.93217 11.6364 9.09145 12.3756C9.34346 12.5268 9.61228 12.6444 9.8811 12.7789C10.0155 12.8461 10.0995 12.8293 10.2171 12.7116C10.6035 12.3084 11.0068 11.9052 11.41 11.502C11.9308 10.9811 12.6029 10.9811 13.1237 11.502C13.7621 12.1404 14.4174 12.7789 15.0558 13.4341C15.5935 13.9717 15.5935 14.6438 15.0558 15.1814C14.6862 15.551 14.2998 15.9039 13.9638 16.2903C13.4597 16.8447 12.8381 17.0295 12.1156 16.9959C11.074 16.9455 10.0995 16.5927 9.17545 16.1391C7.10892 15.131 5.32801 13.7365 3.84951 11.9724C2.74064 10.6787 1.83338 9.25063 1.24535 7.65453ZM16.9969 8.0087C16.6134 4.22394 13.6104 1.21054 9.83034 0.811081C9.374 0.762856 8.97384 1.11343 8.97384 1.57231V1.58698C8.97384 1.98006 9.27184 2.3067 9.66275 2.34788C12.7092 2.66885 15.1476 5.09382 15.4726 8.15061C15.5145 8.54464 15.8457 8.84371 16.242 8.83935C16.6872 8.83446 17.0418 8.45168 16.9969 8.0087ZM8.97384 4.47268V4.48341C8.97384 4.84974 9.23045 5.17533 9.59152 5.23718C10.3335 5.36427 11.02 5.7188 11.5612 6.26004C12.1024 6.80127 12.457 7.48772 12.5841 8.22973C12.6459 8.5908 12.9715 8.8474 13.3378 8.8474H13.3446C13.8171 8.8474 14.184 8.42249 14.1014 7.95725C13.7178 5.79707 12.0104 4.08927 9.86094 3.71539C9.39664 3.63463 8.97384 4.00141 8.97384 4.47268Z" fill="#D92B32"/>
</svg>
