<svg width="58" height="60" viewBox="0 0 58 60" fill="none" xmlns="http://www.w3.org/2000/svg">
<g clip-path="url(#clip0_3352_6536)">
<path d="M27.0143 47.3461H6.41106C2.87702 47.3461 0 44.4717 0 40.936V11.2286C0 7.69507 2.87477 4.8185 6.41106 4.8185H10.0595V2.2715C10.0595 1.01819 11.0798 -0.00195312 12.3333 -0.00195312H16.6163C17.8698 -0.00195312 18.8901 1.01819 18.8901 2.2715V4.8185H29.0774V2.2715C29.0774 1.01819 30.0977 -0.00195312 31.3512 -0.00195312H35.6342C36.9011 -0.00195312 37.9327 1.01819 37.9327 2.2715V4.8185H41.5811C45.1151 4.8185 47.9921 7.69283 47.9921 11.2263V29.4162L47.3149 29.2727C46.2072 29.0373 45.0456 28.9185 43.8571 28.9185C43.8055 28.9185 43.7091 28.9185 43.6732 28.9275L42.987 29.0844L42.9781 28.3826V18.1274H5.01179V40.9136C5.01179 41.6848 5.63742 42.3104 6.40881 42.3104H27.3171L27.2027 42.9673C27.03 43.9605 26.9426 44.9314 26.9426 45.8573C26.9426 46.1735 26.9426 46.4694 26.965 46.7407L27.0143 47.3483V47.3461ZM6.41106 5.94177C3.49592 5.94177 1.12121 8.31388 1.12121 11.2308V40.9405C1.12121 43.8574 3.49368 46.2295 6.41106 46.2295H25.8236C25.8236 46.1062 25.8236 45.9829 25.8236 45.8596C25.8236 45.0771 25.8819 44.2632 25.9985 43.4336H6.40881C5.02076 43.4336 3.89059 42.3036 3.89059 40.9158V17.0086H44.0993V27.8019C45.0411 27.8132 45.9695 27.8984 46.8687 28.0508V11.2286C46.8687 8.31388 44.4939 5.93953 41.5788 5.93953H36.8092V2.27375C36.8092 1.63924 36.2822 1.12132 35.6319 1.12132H31.3489C30.7031 1.12132 30.1963 1.62803 30.1963 2.27375V5.94177H17.7666V2.27375C17.7666 1.62803 17.2598 1.12132 16.614 1.12132H12.331C11.6852 1.12132 11.1784 1.62803 11.1784 2.27375V5.94177H6.40881H6.41106Z" fill="#0000FF"/>
<path d="M37.2952 29.0424H32.4C31.3752 29.0424 30.541 28.2083 30.541 27.1837V23.6592C30.541 22.6345 31.3752 21.8027 32.4 21.8027H37.2952C37.8064 21.8027 38.2998 22.0112 38.6496 22.3722C38.9927 22.7265 39.1721 23.1906 39.1541 23.6793V27.1837C39.1541 28.2083 38.3222 29.0424 37.2974 29.0424H37.2952ZM32.4 22.926C32.0008 22.926 31.6622 23.2623 31.6622 23.6614V27.1859C31.6622 27.585 31.9986 27.9236 32.4 27.9236H37.2952C37.6943 27.9236 38.0307 27.5873 38.0307 27.1859V23.6614C38.0374 23.4596 37.9701 23.287 37.8401 23.1525C37.6988 23.0067 37.5037 22.9238 37.2929 22.9238H32.3977L32.4 22.926Z" fill="#0000FF"/>
<path d="M26.4534 29.0424H21.5582C20.5334 29.0424 19.6992 28.2083 19.6992 27.1837V23.6592C19.6992 22.6345 20.5334 21.8027 21.5582 21.8027H26.4534C27.4781 21.8027 28.3101 22.6368 28.3101 23.6592V27.1837C28.3101 28.2083 27.4759 29.0424 26.4534 29.0424ZM21.5582 22.926C21.159 22.926 20.8204 23.2623 20.8204 23.6614V27.1859C20.8204 27.585 21.1568 27.9236 21.5582 27.9236H26.4534C26.8525 27.9236 27.1889 27.5873 27.1889 27.1859V23.6614C27.1889 23.2623 26.8525 22.926 26.4534 22.926H21.5582Z" fill="#0000FF"/>
<path d="M26.4534 38.6596H21.5582C20.5334 38.6596 19.6992 37.8255 19.6992 36.8031V33.2786C19.6992 32.254 20.5334 31.4199 21.5582 31.4199H26.4534C27.4781 31.4199 28.3101 32.254 28.3101 33.2786V36.8031C28.3101 37.8278 27.4759 38.6596 26.4534 38.6596ZM21.5582 32.541C21.159 32.541 20.8204 32.8773 20.8204 33.2786V36.8031C20.8204 37.2022 21.1568 37.5385 21.5582 37.5385H26.4534C26.8525 37.5385 27.1889 37.2022 27.1889 36.8031V33.2786C27.1889 32.8795 26.8525 32.541 26.4534 32.541H21.5582Z" fill="#0000FF"/>
<path d="M15.5627 29.0424H10.6676C9.64277 29.0424 8.80859 28.2083 8.80859 27.1837V23.6592C8.80859 22.6345 9.64277 21.8027 10.6676 21.8027H15.5874C16.083 21.8027 16.5651 22.009 16.9127 22.3655C17.258 22.722 17.4374 23.1883 17.4217 23.6793V27.1837C17.4217 28.2083 16.5875 29.0424 15.565 29.0424H15.5627ZM10.6676 22.926C10.2684 22.926 9.9298 23.2623 9.9298 23.6614V27.1859C9.9298 27.585 10.2662 27.9236 10.6676 27.9236H15.5627C15.9619 27.9236 16.3005 27.5873 16.3005 27.1859V23.6614C16.3072 23.4596 16.2377 23.2825 16.1054 23.1457C15.9686 23.0045 15.7803 22.9238 15.5874 22.9238H10.6676V22.926Z" fill="#0000FF"/>
<path d="M15.5627 38.6596H10.6676C9.64277 38.6596 8.80859 37.8255 8.80859 36.8031V33.2786C8.80859 32.254 9.64277 31.4199 10.6676 31.4199H15.5874C16.083 31.4199 16.5651 31.6262 16.9127 31.9827C17.258 32.3392 17.4374 32.8055 17.4217 33.2965V36.8009C17.4217 37.8255 16.5875 38.6573 15.565 38.6573L15.5627 38.6596ZM10.6676 32.541C10.2684 32.541 9.9298 32.8773 9.9298 33.2786V36.8031C9.9298 37.2022 10.2662 37.5385 10.6676 37.5385H15.5627C15.9619 37.5385 16.3005 37.2022 16.3005 36.8031V33.2786C16.3072 33.0768 16.2377 32.8997 16.1054 32.7629C15.9686 32.6217 15.7803 32.541 15.5874 32.541H10.6676Z" fill="#0000FF"/>
<path d="M43.8541 60.0008C36.055 60.0008 29.709 53.6557 29.709 45.8578C29.709 38.0599 36.055 31.7148 43.8541 31.7148C47.6528 31.7148 51.2182 33.1924 53.8912 35.8739C56.5507 38.5419 58.0105 42.0889 57.997 45.8578C57.997 53.6557 51.651 60.0008 43.8519 60.0008H43.8541ZM43.8541 32.8359C36.6717 32.8359 30.8302 38.6765 30.8302 45.8578C30.8302 53.0392 36.6717 58.8797 43.8541 58.8797C51.0366 58.8797 56.878 53.0369 56.878 45.8578C56.8893 42.3871 55.5461 39.1249 53.0996 36.6676C50.6374 34.1968 47.3545 32.8381 43.8564 32.8381L43.8541 32.8359ZM49.4355 48.3757H43.8788C42.4907 48.3757 41.3606 47.2457 41.3606 45.8578V39.2504C41.3606 37.8626 42.4907 36.7326 43.8788 36.7326C45.2668 36.7326 46.397 37.8626 46.397 39.2504V43.34H49.4579C50.846 43.34 51.9761 44.47 51.9761 45.8578C51.9761 47.2457 50.8347 48.3757 49.4332 48.3757H49.4355ZM43.8788 37.8514C43.1074 37.8514 42.4818 38.4792 42.4818 39.2482V45.8556C42.4818 46.6268 43.1074 47.2524 43.8788 47.2524H49.4355C50.2069 47.2524 50.8572 46.6134 50.8572 45.8556C50.8572 45.0978 50.2293 44.4588 49.4602 44.4588H45.2781V39.2482C45.2781 38.4769 44.6524 37.8514 43.881 37.8514H43.8788Z" fill="#0000FF"/>
</g>
<defs>
<clipPath id="clip0_3352_6536">
<rect width="58" height="60" fill="white"/>
</clipPath>
</defs>
</svg>
