<svg width="27" height="27" viewBox="0 0 27 27" fill="none" xmlns="http://www.w3.org/2000/svg">
<g clip-path="url(#clip0_3352_6090)">
<path d="M27 19.5445C27 19.5165 26.9969 19.4901 26.9914 19.4637L26.9835 14.9401C26.9851 14.9347 26.9866 14.93 26.9882 14.9246C27.0055 14.8554 27.0016 14.787 26.9835 14.7233L26.9757 9.88578C26.9757 8.69524 25.997 7.72696 24.7937 7.72696C24.5769 7.72696 24.401 7.90103 24.401 8.11552C24.401 8.33 24.5769 8.50407 24.7937 8.50407C25.5634 8.50407 26.1902 9.12343 26.1902 9.88578L26.1981 14.8305C25.8344 15.9589 24.4513 15.8455 24.3924 15.84C24.379 15.8385 24.3664 15.8377 24.3531 15.8377H24.0342C24.0397 15.1748 24.0483 13.8265 24.0303 13.0082C24.0303 12.9896 24.0279 12.9709 24.0248 12.953C23.7774 11.4859 21.9489 11.276 21.8711 11.2683C21.857 11.2667 21.8436 11.2659 21.8295 11.2659H21.0676L23.7389 8.37663C23.8795 8.22431 23.8756 7.9904 23.7302 7.84275L16.1116 0.117473C15.96 -0.0363957 15.7126 -0.0395041 15.557 0.110479L13.5518 2.03772L5.82083 0.0133395C5.6127 -0.0410583 5.39906 0.0801712 5.34172 0.285329L2.26597 11.2675H2.18114C1.41142 11.2675 0.784646 10.6481 0.784646 9.88578C0.784646 9.12343 1.41064 8.50407 2.18114 8.50407C2.39792 8.50407 2.57386 8.33 2.57386 8.11552C2.57386 7.90103 2.39792 7.72696 2.18114 7.72696C1.09175 7.72696 0.186147 8.52117 0.0251338 9.55551C0.00942518 9.59747 0 9.64176 0 9.68917V24.6937C0 25.9541 1.03127 26.9799 2.29896 26.9799H21.037C21.1713 26.9931 21.3025 27.0001 21.4281 27.0001C21.5538 27.0001 21.6653 26.9924 21.7785 26.9799H24.7018C25.9695 26.9799 27.0008 25.9541 27.0008 24.6937L26.9921 19.7388C26.9969 19.6743 27.0008 19.6098 27.0008 19.5437L27 19.5445ZM26.2004 16.1213L26.2067 19.7131C26.1203 20.6154 25.3506 21.3241 24.4159 21.3241H13.2636C11.9519 21.3241 10.8845 20.268 10.8845 18.9702C10.8845 17.6724 11.9519 16.6164 13.2636 16.6164H24.335C24.8173 16.6591 25.5964 16.5689 26.2004 16.1213ZM15.8233 0.938104L22.9087 8.12484L20.0026 11.2675H18.5621C19.0067 10.8214 19.6327 10.171 20.1314 9.56872C20.2484 9.42728 20.25 9.22446 20.1353 9.08147C19.4394 8.2111 20.1204 7.21407 20.1487 7.17366C20.2586 7.01901 20.2406 6.80919 20.1055 6.67553L17.19 3.79088C17.1153 3.71706 17.0125 3.67587 16.908 3.67743C16.802 3.67898 16.7014 3.72172 16.6284 3.79788C15.8893 4.56411 14.7339 3.78156 14.686 3.74892C14.5297 3.63935 14.3161 3.658 14.181 3.79244L6.67853 11.269H5.08017L15.8233 0.938104ZM15.1219 11.2675C14.968 10.0303 13.9006 9.06903 12.6093 9.06903C11.3181 9.06903 10.2507 10.0303 10.0967 11.2675H7.7852L14.5203 4.55634C15.1266 4.87729 16.0974 5.13218 16.8907 4.59286L19.3365 7.01279C19.0569 7.56454 18.8449 8.46677 19.3365 9.29906C18.5275 10.2378 17.468 11.2488 17.457 11.2597C17.4539 11.262 17.4523 11.2652 17.4499 11.2683H15.1227L15.1219 11.2675ZM14.3278 11.2675H10.89C11.0369 10.4608 11.7516 9.84615 12.6085 9.84615C13.4654 9.84615 14.1802 10.4601 14.3271 11.2675H14.3278ZM5.44461 9.83293L6.72879 4.70244C7.37442 4.68923 8.29023 4.42579 8.77013 3.5018C9.52886 3.7054 10.5955 4.03179 11.2631 4.23928L5.4454 9.83293H5.44461ZM5.9952 0.862724L12.8952 2.66951L11.9016 3.62458C11.2898 3.43186 9.57284 2.89565 8.63661 2.66407C8.43868 2.61511 8.23604 2.72391 8.17006 2.91508C7.76792 4.07298 6.53244 3.91988 6.48217 3.91289C6.28188 3.88336 6.09259 4.01003 6.0439 4.20431L4.37878 10.8579L3.95229 11.2675H3.08125L5.9952 0.862724ZM0.785432 24.6944V11.5426C1.16401 11.8558 1.65098 12.0438 2.18193 12.0438H21.8052C21.9607 12.0656 23.0886 12.2505 23.2464 13.0564C23.2637 13.8708 23.2551 15.1903 23.2496 15.8385H13.2644C11.5191 15.8385 10.0999 17.2435 10.0999 18.9694C10.0999 20.6954 11.5199 22.1004 13.2644 22.1004H23.0571V24.8079C23.054 24.8592 23.0116 25.4762 22.556 25.8687C22.3471 26.0489 22.0769 26.1601 21.7478 26.2028H2.29896C1.46483 26.2028 0.785432 25.5259 0.785432 24.6937V24.6944ZM24.7018 26.2036H23.3171C23.8182 25.5943 23.8418 24.8607 23.8426 24.8258C23.8426 24.8227 23.8426 24.8196 23.8426 24.8164V22.1012H24.4167C25.1126 22.1012 25.7449 21.8269 26.2099 21.3824L26.2154 24.6944C26.2154 25.5267 25.5367 26.2036 24.7018 26.2036Z" fill="#0000FF"/>
<path d="M13.3805 17.6504C12.5699 17.6504 11.9102 18.3032 11.9102 19.1051C11.9102 19.9071 12.5699 20.5599 13.3805 20.5599C14.1911 20.5599 14.8508 19.9071 14.8508 19.1051C14.8508 18.3032 14.1911 17.6504 13.3805 17.6504ZM13.3805 19.7828C13.0027 19.7828 12.6956 19.4789 12.6956 19.1051C12.6956 18.7314 13.0027 18.4275 13.3805 18.4275C13.7583 18.4275 14.0654 18.7314 14.0654 19.1051C14.0654 19.4789 13.7583 19.7828 13.3805 19.7828Z" fill="#0000FF"/>
</g>
<defs>
<clipPath id="clip0_3352_6090">
<rect width="27" height="27" fill="white"/>
</clipPath>
</defs>
</svg>
