<svg width="38" height="32" viewBox="0 0 38 32" fill="none" xmlns="http://www.w3.org/2000/svg">
<path d="M10.8496 13.5222L19.3574 20.7091C19.6019 20.9156 19.9058 21.027 20.2224 21.027C20.2604 21.027 20.2984 21.0257 20.3377 21.0219C20.6948 20.9916 21.0203 20.8244 21.2507 20.5496L21.8181 19.8784C22.0498 19.6036 22.1613 19.2566 22.1309 18.8982C22.1005 18.541 21.9333 18.2156 21.6585 17.9851L21.5965 17.9319L24.7537 14.3201C24.836 14.2263 24.9234 14.1377 25.0133 14.0516C25.2488 14.5037 25.7161 14.7734 26.2062 14.7734C26.3759 14.7734 26.5494 14.7405 26.7166 14.6721L27.5296 14.3365C28.0983 14.1022 28.4187 13.5197 28.3503 12.9359H32.6928V12.9409C32.6928 13.8198 33.4084 14.5354 34.286 14.5354C35.1636 14.5354 35.8804 13.8198 35.8804 12.9409V2.10419C35.8804 1.22529 35.1649 0.509766 34.286 0.509766C33.8617 0.509766 33.4615 0.675666 33.1576 0.977074C32.8841 1.25189 32.7245 1.60775 32.6966 1.99021H27.8007C26.5444 1.99021 25.2957 2.14978 24.0799 2.46132L24.0077 2.28528C23.7253 1.60142 22.9389 1.27468 22.2537 1.55583L21.4407 1.89143C20.7556 2.17384 20.4288 2.96155 20.7112 3.64542L20.753 3.748C19.1434 4.6041 17.7174 5.73501 16.5131 7.11414L13.233 10.8665L13.1495 10.7969C12.5834 10.3182 11.7336 10.3904 11.2562 10.9565L10.6888 11.6277C10.4571 11.9025 10.3456 12.2495 10.376 12.6079C10.4064 12.965 10.5736 13.2905 10.8484 13.5209L10.8496 13.5222ZM33.4514 2.10419C33.4514 1.88256 33.5388 1.67234 33.6946 1.5153C33.8529 1.357 34.0631 1.27088 34.2847 1.27088C34.7444 1.27088 35.1193 1.64448 35.1193 2.10545V12.9422C35.1193 13.4019 34.7457 13.7768 34.2847 13.7768C33.8237 13.7768 33.4514 13.4032 33.4514 12.9422V2.10419ZM24.3737 3.16924C25.4945 2.89063 26.6457 2.75006 27.8019 2.75006H32.6928V12.1747H28.0919L25.7212 6.43407L24.3737 3.16924ZM21.732 2.59556L22.545 2.25996C22.6172 2.22956 22.6932 2.21563 22.7666 2.21563C22.9959 2.21563 23.215 2.35114 23.3074 2.57656L24.9234 6.49233L27.4866 12.7016L27.5562 12.8713C27.6791 13.1689 27.5372 13.5108 27.2396 13.6337L26.4266 13.9693C26.129 14.0921 25.7871 13.9503 25.6642 13.6527L25.5122 13.2854L21.5901 3.78346L21.4154 3.35921C21.2925 3.0616 21.4344 2.71967 21.732 2.59682V2.59556ZM17.0855 7.61564C18.2139 6.32516 19.5436 5.2639 21.0456 4.45593L24.7005 13.3095C24.5156 13.4652 24.3421 13.6362 24.1825 13.8186L21.0165 17.4405L13.8156 11.3579L17.0868 7.61564H17.0855ZM11.2714 12.119L11.8387 11.4478C11.9388 11.3288 12.0806 11.2553 12.2351 11.2427C12.2516 11.2414 12.268 11.2401 12.2845 11.2401C12.4225 11.2401 12.5542 11.2883 12.6606 11.3782L13.0266 11.6884C13.0266 11.6884 13.0266 11.6897 13.0292 11.691L20.8113 18.2637L21.1684 18.5651C21.2875 18.6651 21.3597 18.807 21.3736 18.9615C21.3862 19.1173 21.3381 19.268 21.2381 19.387L20.6707 20.0582C20.5707 20.1772 20.4288 20.2507 20.2743 20.2634C20.1186 20.276 19.9679 20.2279 19.8488 20.1279L11.341 12.9409C11.0953 12.7332 11.0637 12.3647 11.2714 12.119Z" fill="#0000FF"/>
<path d="M4.27836 28.7338C4.48859 28.7338 4.65829 28.5641 4.65829 28.3539C4.65829 23.3363 6.54905 20.0664 8.13461 18.2086C9.84807 16.2001 11.5881 15.3541 11.6249 15.3364C11.8148 15.2464 11.8959 15.021 11.806 14.8311C11.716 14.6411 11.4893 14.5601 11.3007 14.65C11.2247 14.6854 9.40989 15.5555 7.58245 17.6868C5.90191 19.646 3.89844 23.0868 3.89844 28.3551C3.89844 28.5654 4.06814 28.7351 4.27836 28.7351V28.7338Z" fill="#0000FF"/>
<path d="M19.0243 20.63C18.8382 20.5337 18.6089 20.6084 18.5127 20.7946C18.4367 20.9428 16.6587 24.4761 17.8807 28.464C17.9314 28.6274 18.0808 28.7325 18.2442 28.7325C18.2809 28.7325 18.3189 28.7274 18.3557 28.716C18.5557 28.654 18.6697 28.4425 18.6077 28.2411C17.4793 24.5559 19.1725 21.1758 19.1902 21.1416C19.2852 20.9554 19.2117 20.7262 19.0256 20.63H19.0243Z" fill="#0000FF"/>
<path d="M12.0118 17.4613C11.8801 17.5639 8.79385 20.0359 8.2417 24.1695C8.21383 24.3772 8.35947 24.5684 8.56843 24.5963C8.5849 24.5988 8.60263 24.6001 8.61909 24.6001C8.80652 24.6001 8.96989 24.4608 8.99522 24.2708C9.50432 20.45 12.4525 18.0831 12.4817 18.059C12.6463 17.9299 12.6742 17.6905 12.545 17.5259C12.4145 17.3612 12.1765 17.3321 12.0118 17.4626V17.4613Z" fill="#0000FF"/>
<path d="M15.2716 19.7355C15.0754 19.6646 14.8563 19.7659 14.7853 19.9635C14.7284 20.1205 13.4125 23.8501 15.1298 27.6506C15.1931 27.7912 15.3312 27.8748 15.4768 27.8748C15.5287 27.8748 15.5819 27.8634 15.6326 27.8406C15.8238 27.7545 15.9087 27.529 15.8225 27.3378C14.2357 23.8248 15.4869 20.2573 15.4996 20.2218C15.5705 20.0242 15.4692 19.8064 15.2716 19.7355Z" fill="#0000FF"/>
<path d="M36.9826 29.9291C36.8699 29.7518 36.6343 29.6999 36.4583 29.8126C35.5908 30.366 34.5916 30.6801 33.5721 30.7232C32.1955 30.7802 30.8379 30.3521 29.7488 29.5201C28.9712 28.9261 27.8758 28.9299 27.0843 29.5302C26.0547 30.3141 24.8237 30.7282 23.5269 30.7282C22.2301 30.7282 20.9991 30.3141 19.9683 29.5289C19.1805 28.9299 18.08 28.9299 17.2923 29.5289C16.2602 30.3128 15.0292 30.7282 13.7337 30.7282C12.4381 30.7282 11.2059 30.3141 10.175 29.5289C9.38353 28.9286 8.28808 28.9248 7.51176 29.5201C6.42264 30.3521 5.06631 30.7802 3.68845 30.7232C2.72344 30.6839 1.77236 30.3977 0.939052 29.8962C0.75922 29.7885 0.526199 29.8455 0.417287 30.0254C0.309642 30.2052 0.367897 30.4382 0.547729 30.5471C1.48994 31.1132 2.56513 31.4362 3.65679 31.4817C5.20815 31.5451 6.74305 31.0626 7.97274 30.1229C8.47931 29.7354 9.1961 29.7404 9.71533 30.133C10.8792 31.0182 12.2684 31.4868 13.7337 31.4868C15.1989 31.4868 16.5882 31.0182 17.7533 30.133C18.27 29.7404 18.9931 29.7404 19.5098 30.133C20.6749 31.0182 22.0642 31.4868 23.5294 31.4868C24.9947 31.4868 26.3839 31.0182 27.5465 30.133C28.0657 29.7392 28.7825 29.7341 29.2904 30.1216C30.5201 31.0613 32.055 31.5438 33.6063 31.4805C34.7613 31.4324 35.8897 31.0765 36.8699 30.4521C37.0472 30.3394 37.0991 30.1039 36.9864 29.9279L36.9826 29.9291Z" fill="#0000FF"/>
</svg>
